MetaMessage('time_signature', numerator=1, denominator=4, clocks_per_click=24, notated_32nd_notes_per_beat=8, time=0)
MetaMessage('key_signature', key='C', time=0)
MetaMessage('set_tempo', tempo=454544, time=0)
MetaMessage('track_name', name='Rondo (alla Turca) from Sonata in A', time=0)
MetaMessage('text', text='Wolfgang Amadeus Mozart', time=0)
program_change channel=0 program=0 time=0
control_change channel=0 control=121 value=0 time=0
control_change channel=0 control=64 value=0 time=0
control_change channel=0 control=10 value=76 time=0
control_change channel=0 control=7 value=126 time=0
note_on channel=0 note=71 velocity=52 time=0
control_change channel=0 control=121 value=0 time=0
control_change channel=0 control=64 value=0 time=0
control_change channel=0 control=10 value=51 time=0
control_change channel=0 control=7 value=110 time=0
MetaMessage('track_name', name='Keyboard', time=0)
note_on channel=0 note=69 velocity=47 time=0.113636
note_off channel=0 note=71 velocity=0 time=0.0017755625
note_on channel=0 note=68 velocity=59 time=0.1118604375
note_off channel=0 note=69 velocity=0 time=0.0017755625
note_on channel=0 note=69 velocity=62 time=0.1118604375
note_off channel=0 note=68 velocity=0 time=0.0017755625
MetaMessage('time_signature', numerator=2, denominator=4, clocks_per_click=24, notated_32nd_notes_per_beat=8, time=0.1118604375)
note_on channel=0 note=72 velocity=71 time=0
note_on channel=0 note=57 velocity=41 time=0
note_off channel=0 note=69 velocity=0 time=0.0017755625
note_off channel=0 note=72 velocity=0 time=0.14737168750000001
note_on channel=0 note=60 velocity=48 time=0.07812475
note_on channel=0 note=64 velocity=48 time=0
note_off channel=0 note=57 velocity=0 time=0.003551125
note_off channel=0 note=60 velocity=0 time=0.2112919375
note_off channel=0 note=64 velocity=0 time=0
note_on channel=0 note=74 velocity=59 time=0.0124289375
note_on channel=0 note=60 velocity=47 time=0
note_on channel=0 note=64 velocity=47 time=0
note_on channel=0 note=72 velocity=57 time=0.113636
note_off channel=0 note=74 velocity=0 time=0.0017755625
note_off channel=0 note=60 velocity=0 time=0.0337356875
note_off channel=0 note=64 velocity=0 time=0
note_on channel=0 note=71 velocity=62 time=0.07812475
note_on channel=0 note=60 velocity=50 time=0
note_on channel=0 note=64 velocity=50 time=0
note_off channel=0 note=72 velocity=0 time=0.0017755625
note_on channel=0 note=72 velocity=64 time=0.1118604375
note_off channel=0 note=71 velocity=0 time=0.0017755625
note_off channel=0 note=60 velocity=0 time=0.0337356875
note_off channel=0 note=64 velocity=0 time=0
note_on channel=0 note=76 velocity=71 time=0.07812475
note_on channel=0 note=57 velocity=40 time=0
note_off channel=0 note=72 velocity=0 time=0.0017755625
note_off channel=0 note=76 velocity=0 time=0.14737168750000001
note_on channel=0 note=60 velocity=46 time=0.07812475
note_on channel=0 note=64 velocity=46 time=0
note_off channel=0 note=57 velocity=0 time=0.003551125
note_off channel=0 note=60 velocity=0 time=0.2112919375
note_off channel=0 note=64 velocity=0 time=0
note_on channel=0 note=77 velocity=56 time=0.0124289375
note_on channel=0 note=60 velocity=53 time=0
note_on channel=0 note=64 velocity=53 time=0
note_on channel=0 note=76 velocity=52 time=0.113636
note_off channel=0 note=77 velocity=0 time=0.0017755625
note_off channel=0 note=60 velocity=0 time=0.0337356875
note_off channel=0 note=64 velocity=0 time=0
note_on channel=0 note=75 velocity=61 time=0.07812475
note_on channel=0 note=60 velocity=48 time=0
note_on channel=0 note=64 velocity=48 time=0
note_off channel=0 note=76 velocity=0 time=0.0017755625
note_on channel=0 note=76 velocity=65 time=0.1118604375
note_off channel=0 note=75 velocity=0 time=0.0017755625
note_off channel=0 note=60 velocity=0 time=0.0337356875
note_off channel=0 note=64 velocity=0 time=0
note_on channel=0 note=83 velocity=78 time=0.07812475
note_on channel=0 note=57 velocity=48 time=0
note_off channel=0 note=76 velocity=0 time=0.0017755625
note_on channel=0 note=81 velocity=67 time=0.1118604375
note_off channel=0 note=83 velocity=0 time=0.0017755625
note_off channel=0 note=57 velocity=0 time=0.0337356875
note_on channel=0 note=80 velocity=60 time=0.07812475
note_on channel=0 note=60 velocity=66 time=0
note_on channel=0 note=64 velocity=66 time=0
note_off channel=0 note=81 velocity=0 time=0.0017755625
note_on channel=0 note=81 velocity=76 time=0.1118604375
note_off channel=0 note=80 velocity=0 time=0.0017755625
note_off channel=0 note=60 velocity=0 time=0.0337356875
note_off channel=0 note=64 velocity=0 time=0
note_on channel=0 note=83 velocity=73 time=0.07812475
note_on channel=0 note=57 velocity=57 time=0
note_off channel=0 note=81 velocity=0 time=0.0017755625
note_on channel=0 note=81 velocity=70 time=0.1118604375
note_off channel=0 note=83 velocity=0 time=0.0017755625
note_off channel=0 note=57 velocity=0 time=0.0337356875
note_on channel=0 note=80 velocity=73 time=0.07812475
note_on channel=0 note=60 velocity=67 time=0
note_on channel=0 note=64 velocity=67 time=0
note_off channel=0 note=81 velocity=0 time=0.0017755625
note_on channel=0 note=81 velocity=81 time=0.1118604375
note_off channel=0 note=80 velocity=0 time=0.0017755625
note_off channel=0 note=60 velocity=0 time=0.0337356875
note_off channel=0 note=64 velocity=0 time=0
note_on channel=0 note=84 velocity=90 time=0.07812475
note_on channel=0 note=57 velocity=62 time=0
note_off channel=0 note=81 velocity=0 time=0.0017755625
note_on channel=0 note=60 velocity=75 time=0.2254964375
note_on channel=0 note=64 velocity=75 time=0
note_off channel=0 note=57 velocity=0 time=0.003551125
note_off channel=0 note=84 velocity=0 time=0.2006385625
note_off channel=0 note=60 velocity=0 time=0.010653375
note_off channel=0 note=64 velocity=0 time=0
note_on channel=0 note=81 velocity=75 time=0.0124289375
note_on channel=0 note=60 velocity=65 time=0
note_on channel=0 note=64 velocity=65 time=0
note_off channel=0 note=81 velocity=0 time=0.14914725
note_off channel=0 note=60 velocity=0 time=0
note_off channel=0 note=64 velocity=0 time=0
note_on channel=0 note=84 velocity=89 time=0.07812475
note_on channel=0 note=60 velocity=67 time=0
note_on channel=0 note=64 velocity=67 time=0
note_off channel=0 note=84 velocity=0 time=0.145596125
note_on channel=0 note=79 velocity=87 time=0
note_off channel=0 note=60 velocity=0 time=0.003551125
note_off channel=0 note=64 velocity=0 time=0
note_on channel=0 note=81 velocity=87 time=0.0372868125
note_on channel=0 note=83 velocity=87 time=0.0408379375
note_off channel=0 note=79 velocity=0 time=0
note_off channel=0 note=81 velocity=0 time=0
note_on channel=0 note=52 velocity=58 time=0
note_off channel=0 note=83 velocity=0 time=0.14914725
note_off channel=0 note=52 velocity=0 time=0
note_on channel=0 note=78 velocity=77 time=0.07812475
note_on channel=0 note=81 velocity=77 time=0
note_on channel=0 note=59 velocity=81 time=0
note_on channel=0 note=64 velocity=81 time=0
note_off channel=0 note=78 velocity=0 time=0.14914725
note_off channel=0 note=81 velocity=0 time=0
note_off channel=0 note=59 velocity=0 time=0
note_off channel=0 note=64 velocity=0 time=0
note_on channel=0 note=76 velocity=76 time=0.07812475
note_on channel=0 note=79 velocity=76 time=0
note_on channel=0 note=59 velocity=70 time=0
note_on channel=0 note=64 velocity=70 time=0
note_off channel=0 note=76 velocity=0 time=0.14914725
note_off channel=0 note=79 velocity=0 time=0
note_off channel=0 note=59 velocity=0 time=0
note_off channel=0 note=64 velocity=0 time=0
note_on channel=0 note=78 velocity=86 time=0.07812475
note_on channel=0 note=81 velocity=86 time=0
note_on channel=0 note=59 velocity=68 time=0
note_on channel=0 note=64 velocity=68 time=0
note_off channel=0 note=78 velocity=0 time=0.145596125
note_off channel=0 note=81 velocity=0 time=0
note_on channel=0 note=79 velocity=87 time=0
note_off channel=0 note=59 velocity=0 time=0.003551125
note_off channel=0 note=64 velocity=0 time=0
note_on channel=0 note=81 velocity=87 time=0.0372868125
note_on channel=0 note=83 velocity=87 time=0.0408379375
note_off channel=0 note=79 velocity=0 time=0
note_off channel=0 note=81 velocity=0 time=0
note_on channel=0 note=52 velocity=60 time=0
note_off channel=0 note=83 velocity=0 time=0.14914725
note_off channel=0 note=52 velocity=0 time=0
note_on channel=0 note=78 velocity=74 time=0.07812475
note_on channel=0 note=81 velocity=74 time=0
note_on channel=0 note=59 velocity=76 time=0
note_on channel=0 note=64 velocity=76 time=0
note_off channel=0 note=78 velocity=0 time=0.14914725
note_off channel=0 note=81 velocity=0 time=0
note_off channel=0 note=59 velocity=0 time=0
note_off channel=0 note=64 velocity=0 time=0
note_on channel=0 note=76 velocity=74 time=0.07812475
note_on channel=0 note=79 velocity=74 time=0
note_on channel=0 note=59 velocity=64 time=0
note_on channel=0 note=64 velocity=64 time=0
note_off channel=0 note=76 velocity=0 time=0.14914725
note_off channel=0 note=79 velocity=0 time=0
note_off channel=0 note=59 velocity=0 time=0
note_off channel=0 note=64 velocity=0 time=0
note_on channel=0 note=78 velocity=97 time=0.07812475
note_on channel=0 note=81 velocity=97 time=0
note_on channel=0 note=59 velocity=62 time=0
note_on channel=0 note=64 velocity=62 time=0
note_off channel=0 note=78 velocity=0 time=0.145596125
note_off channel=0 note=81 velocity=0 time=0
note_on channel=0 note=79 velocity=105 time=0
note_off channel=0 note=59 velocity=0 time=0.003551125
note_off channel=0 note=64 velocity=0 time=0
note_on channel=0 note=81 velocity=105 time=0.0372868125
note_on channel=0 note=83 velocity=105 time=0.0408379375
note_off channel=0 note=79 velocity=0 time=0
note_off channel=0 note=81 velocity=0 time=0
note_on channel=0 note=52 velocity=57 time=0
note_off channel=0 note=83 velocity=0 time=0.14914725
note_off channel=0 note=52 velocity=0 time=0
note_on channel=0 note=78 velocity=88 time=0.07812475
note_on channel=0 note=81 velocity=88 time=0
note_on channel=0 note=59 velocity=83 time=0
note_on channel=0 note=64 velocity=83 time=0
note_off channel=0 note=78 velocity=0 time=0.14914725
note_off channel=0 note=81 velocity=0 time=0
note_off channel=0 note=59 velocity=0 time=0
note_off channel=0 note=64 velocity=0 time=0
note_on channel=0 note=76 velocity=88 time=0.07812475
note_on channel=0 note=79 velocity=88 time=0
note_on channel=0 note=47 velocity=61 time=0
note_off channel=0 note=76 velocity=0 time=0.14914725
note_off channel=0 note=79 velocity=0 time=0
note_off channel=0 note=47 velocity=0 time=0
note_on channel=0 note=75 velocity=83 time=0.07812475
note_on channel=0 note=78 velocity=83 time=0
note_on channel=0 note=59 velocity=66 time=0
note_off channel=0 note=75 velocity=0 time=0.14914725
note_off channel=0 note=78 velocity=0 time=0
note_off channel=0 note=59 velocity=0 time=0
MetaMessage('time_signature', numerator=1, denominator=4, clocks_per_click=24, notated_32nd_notes_per_beat=8, time=0.07812475)
note_on channel=0 note=76 velocity=77 time=0
note_on channel=0 note=52 velocity=63 time=0
note_off channel=0 note=76 velocity=0 time=0.4279105625
note_off channel=0 note=52 velocity=0 time=0
MetaMessage('set_tempo', tempo=447760, time=0.024857875)
MetaMessage('set_tempo', tempo=447760, time=0.0017490625)
MetaMessage('set_tempo', tempo=454544, time=0)
MetaMessage('time_signature', numerator=2, denominator=4, clocks_per_click=24, notated_32nd_notes_per_beat=8, time=0)
MetaMessage('time_signature', numerator=1, denominator=4, clocks_per_click=24, notated_32nd_notes_per_beat=8, time=0)
note_on channel=0 note=71 velocity=53 time=0
note_on channel=0 note=69 velocity=48 time=0.113636
note_off channel=0 note=71 velocity=0 time=0.0017755625
note_on channel=0 note=68 velocity=59 time=0.1118604375
note_off channel=0 note=69 velocity=0 time=0.0017755625
note_on channel=0 note=69 velocity=63 time=0.1118604375
note_off channel=0 note=68 velocity=0 time=0.0017755625
MetaMessage('time_signature', numerator=2, denominator=4, clocks_per_click=24, notated_32nd_notes_per_beat=8, time=0.1118604375)
note_on channel=0 note=72 velocity=71 time=0
note_on channel=0 note=57 velocity=46 time=0
note_off channel=0 note=69 velocity=0 time=0.0017755625
note_off channel=0 note=72 velocity=0 time=0.14737168750000001
note_on channel=0 note=60 velocity=53 time=0.07812475
note_on channel=0 note=64 velocity=53 time=0
note_off channel=0 note=57 velocity=0 time=0.003551125
note_off channel=0 note=60 velocity=0 time=0.2112919375
note_off channel=0 note=64 velocity=0 time=0
note_on channel=0 note=74 velocity=58 time=0.0124289375
note_on channel=0 note=60 velocity=52 time=0
note_on channel=0 note=64 velocity=52 time=0
note_on channel=0 note=72 velocity=51 time=0.113636
note_off channel=0 note=74 velocity=0 time=0.0017755625
note_off channel=0 note=60 velocity=0 time=0.0337356875
note_off channel=0 note=64 velocity=0 time=0
note_on channel=0 note=71 velocity=62 time=0.07812475
note_on channel=0 note=60 velocity=49 time=0
note_on channel=0 note=64 velocity=49 time=0
note_off channel=0 note=72 velocity=0 time=0.0017755625
note_on channel=0 note=72 velocity=65 time=0.1118604375
note_off channel=0 note=71 velocity=0 time=0.0017755625
note_off channel=0 note=60 velocity=0 time=0.0337356875
note_off channel=0 note=64 velocity=0 time=0
note_on channel=0 note=76 velocity=73 time=0.07812475
note_on channel=0 note=57 velocity=43 time=0
note_off channel=0 note=72 velocity=0 time=0.0017755625
note_off channel=0 note=76 velocity=0 time=0.14737168750000001
note_on channel=0 note=60 velocity=50 time=0.07812475
note_on channel=0 note=64 velocity=50 time=0
note_off channel=0 note=57 velocity=0 time=0.003551125
note_off channel=0 note=60 velocity=0 time=0.2112919375
note_off channel=0 note=64 velocity=0 time=0
note_on channel=0 note=77 velocity=55 time=0.0124289375
note_on channel=0 note=60 velocity=48 time=0
note_on channel=0 note=64 velocity=48 time=0
note_on channel=0 note=76 velocity=54 time=0.113636
note_off channel=0 note=77 velocity=0 time=0.0017755625
note_off channel=0 note=60 velocity=0 time=0.0337356875
note_off channel=0 note=64 velocity=0 time=0
note_on channel=0 note=75 velocity=58 time=0.07812475
note_on channel=0 note=60 velocity=48 time=0
note_on channel=0 note=64 velocity=48 time=0
note_off channel=0 note=76 velocity=0 time=0.0017755625
note_on channel=0 note=76 velocity=59 time=0.1118604375
note_off channel=0 note=75 velocity=0 time=0.0017755625
note_off channel=0 note=60 velocity=0 time=0.0337356875
note_off channel=0 note=64 velocity=0 time=0
note_on channel=0 note=83 velocity=77 time=0.07812475
note_on channel=0 note=57 velocity=49 time=0
note_off channel=0 note=76 velocity=0 time=0.0017755625
note_on channel=0 note=81 velocity=63 time=0.1118604375
note_off channel=0 note=83 velocity=0 time=0.0017755625
note_off channel=0 note=57 velocity=0 time=0.0337356875
note_on channel=0 note=80 velocity=66 time=0.07812475
note_on channel=0 note=60 velocity=62 time=0
note_on channel=0 note=64 velocity=62 time=0
note_off channel=0 note=81 velocity=0 time=0.0017755625
note_on channel=0 note=81 velocity=69 time=0.1118604375
note_off channel=0 note=80 velocity=0 time=0.0017755625
note_off channel=0 note=60 velocity=0 time=0.0337356875
note_off channel=0 note=64 velocity=0 time=0
note_on channel=0 note=83 velocity=76 time=0.07812475
note_on channel=0 note=57 velocity=57 time=0
note_off channel=0 note=81 velocity=0 time=0.0017755625
note_on channel=0 note=81 velocity=69 time=0.1118604375
note_off channel=0 note=83 velocity=0 time=0.0017755625
note_off channel=0 note=57 velocity=0 time=0.0337356875
note_on channel=0 note=80 velocity=63 time=0.07812475
note_on channel=0 note=60 velocity=69 time=0
note_on channel=0 note=64 velocity=69 time=0
note_off channel=0 note=81 velocity=0 time=0.0017755625
note_on channel=0 note=81 velocity=81 time=0.1118604375
note_off channel=0 note=80 velocity=0 time=0.0017755625
note_off channel=0 note=60 velocity=0 time=0.0337356875
note_off channel=0 note=64 velocity=0 time=0
note_on channel=0 note=84 velocity=84 time=0.07812475
note_on channel=0 note=57 velocity=58 time=0
note_off channel=0 note=81 velocity=0 time=0.0017755625
note_on channel=0 note=60 velocity=68 time=0.2254964375
note_on channel=0 note=64 velocity=68 time=0
note_off channel=0 note=57 velocity=0 time=0.003551125
note_off channel=0 note=84 velocity=0 time=0.2006385625
note_off channel=0 note=60 velocity=0 time=0.010653375
note_off channel=0 note=64 velocity=0 time=0
note_on channel=0 note=81 velocity=76 time=0.0124289375
note_on channel=0 note=60 velocity=69 time=0
note_on channel=0 note=64 velocity=69 time=0
note_off channel=0 note=81 velocity=0 time=0.14914725
note_off channel=0 note=60 velocity=0 time=0
note_off channel=0 note=64 velocity=0 time=0
note_on channel=0 note=84 velocity=84 time=0.07812475
note_on channel=0 note=60 velocity=66 time=0
note_on channel=0 note=64 velocity=66 time=0
note_off channel=0 note=84 velocity=0 time=0.145596125
note_on channel=0 note=79 velocity=88 time=0
note_off channel=0 note=60 velocity=0 time=0.003551125
note_off channel=0 note=64 velocity=0 time=0
note_on channel=0 note=81 velocity=88 time=0.0372868125
note_on channel=0 note=83 velocity=88 time=0.0408379375
note_off channel=0 note=79 velocity=0 time=0
note_off channel=0 note=81 velocity=0 time=0
note_on channel=0 note=52 velocity=54 time=0
note_off channel=0 note=83 velocity=0 time=0.14914725
note_off channel=0 note=52 velocity=0 time=0
note_on channel=0 note=78 velocity=74 time=0.07812475
note_on channel=0 note=81 velocity=74 time=0
note_on channel=0 note=59 velocity=83 time=0
note_on channel=0 note=64 velocity=83 time=0
note_off channel=0 note=78 velocity=0 time=0.14914725
note_off channel=0 note=81 velocity=0 time=0
note_off channel=0 note=59 velocity=0 time=0
note_off channel=0 note=64 velocity=0 time=0
note_on channel=0 note=76 velocity=72 time=0.07812475
note_on channel=0 note=79 velocity=72 time=0
note_on channel=0 note=59 velocity=65 time=0
note_on channel=0 note=64 velocity=65 time=0
note_off channel=0 note=76 velocity=0 time=0.14914725
note_off channel=0 note=79 velocity=0 time=0
note_off channel=0 note=59 velocity=0 time=0
note_off channel=0 note=64 velocity=0 time=0
note_on channel=0 note=78 velocity=83 time=0.07812475
note_on channel=0 note=81 velocity=83 time=0
note_on channel=0 note=59 velocity=64 time=0
note_on channel=0 note=64 velocity=64 time=0
note_off channel=0 note=78 velocity=0 time=0.145596125
note_off channel=0 note=81 velocity=0 time=0
note_on channel=0 note=79 velocity=84 time=0
note_off channel=0 note=59 velocity=0 time=0.003551125
note_off channel=0 note=64 velocity=0 time=0
note_on channel=0 note=81 velocity=84 time=0.0372868125
note_on channel=0 note=83 velocity=84 time=0.0408379375
note_off channel=0 note=79 velocity=0 time=0
note_off channel=0 note=81 velocity=0 time=0
note_on channel=0 note=52 velocity=57 time=0
note_off channel=0 note=83 velocity=0 time=0.14914725
note_off channel=0 note=52 velocity=0 time=0
note_on channel=0 note=78 velocity=73 time=0.07812475
note_on channel=0 note=81 velocity=73 time=0
note_on channel=0 note=59 velocity=83 time=0
note_on channel=0 note=64 velocity=83 time=0
note_off channel=0 note=78 velocity=0 time=0.14914725
note_off channel=0 note=81 velocity=0 time=0
note_off channel=0 note=59 velocity=0 time=0
note_off channel=0 note=64 velocity=0 time=0
note_on channel=0 note=76 velocity=71 time=0.07812475
note_on channel=0 note=79 velocity=71 time=0
note_on channel=0 note=59 velocity=71 time=0
note_on channel=0 note=64 velocity=71 time=0
note_off channel=0 note=76 velocity=0 time=0.14914725
note_off channel=0 note=79 velocity=0 time=0
note_off channel=0 note=59 velocity=0 time=0
note_off channel=0 note=64 velocity=0 time=0
note_on channel=0 note=78 velocity=93 time=0.07812475
note_on channel=0 note=81 velocity=93 time=0
note_on channel=0 note=59 velocity=60 time=0
note_on channel=0 note=64 velocity=60 time=0
note_off channel=0 note=78 velocity=0 time=0.145596125
note_off channel=0 note=81 velocity=0 time=0
note_on channel=0 note=79 velocity=106 time=0
note_off channel=0 note=59 velocity=0 time=0.003551125
note_off channel=0 note=64 velocity=0 time=0
note_on channel=0 note=81 velocity=106 time=0.0372868125
note_on channel=0 note=83 velocity=106 time=0.0408379375
note_off channel=0 note=79 velocity=0 time=0
note_off channel=0 note=81 velocity=0 time=0
note_on channel=0 note=52 velocity=58 time=0
note_off channel=0 note=83 velocity=0 time=0.14914725
note_off channel=0 note=52 velocity=0 time=0
note_on channel=0 note=78 velocity=92 time=0.07812475
note_on channel=0 note=81 velocity=92 time=0
note_on channel=0 note=59 velocity=82 time=0
note_on channel=0 note=64 velocity=82 time=0
note_off channel=0 note=78 velocity=0 time=0.14914725
note_off channel=0 note=81 velocity=0 time=0
note_off channel=0 note=59 velocity=0 time=0
note_off channel=0 note=64 velocity=0 time=0
note_on channel=0 note=76 velocity=88 time=0.07812475
note_on channel=0 note=79 velocity=88 time=0
note_on channel=0 note=47 velocity=65 time=0
note_off channel=0 note=76 velocity=0 time=0.14914725
note_off channel=0 note=79 velocity=0 time=0
note_off channel=0 note=47 velocity=0 time=0
note_on channel=0 note=75 velocity=88 time=0.07812475
note_on channel=0 note=78 velocity=88 time=0
note_on channel=0 note=59 velocity=66 time=0
note_off channel=0 note=75 velocity=0 time=0.14914725
note_off channel=0 note=78 velocity=0 time=0
note_off channel=0 note=59 velocity=0 time=0
MetaMessage('time_signature', numerator=1, denominator=4, clocks_per_click=24, notated_32nd_notes_per_beat=8, time=0.07812475)
note_on channel=0 note=76 velocity=73 time=0
note_on channel=0 note=52 velocity=63 time=0
note_off channel=0 note=76 velocity=0 time=0.4279105625
note_off channel=0 note=52 velocity=0 time=0
MetaMessage('set_tempo', tempo=447760, time=0.024857875)
note_on channel=0 note=72 velocity=77 time=0.0017490625
note_on channel=0 note=76 velocity=77 time=0
note_off channel=0 note=72 velocity=0 time=0.14692125
note_off channel=0 note=76 velocity=0 time=0
note_on channel=0 note=74 velocity=85 time=0.07695874999999999
note_on channel=0 note=77 velocity=85 time=0
note_off channel=0 note=74 velocity=0 time=0.14692125
note_off channel=0 note=77 velocity=0 time=0
MetaMessage('time_signature', numerator=2, denominator=4, clocks_per_click=24, notated_32nd_notes_per_beat=8, time=0.07695874999999999)
note_on channel=0 note=76 velocity=85 time=0
note_on channel=0 note=79 velocity=85 time=0
note_on channel=0 note=48 velocity=56 time=0
note_off channel=0 note=76 velocity=0 time=0.14692125
note_off channel=0 note=79 velocity=0 time=0
note_off channel=0 note=48 velocity=0 time=0
note_on channel=0 note=76 velocity=83 time=0.07695874999999999
note_on channel=0 note=79 velocity=83 time=0
note_on channel=0 note=60 velocity=80 time=0
note_off channel=0 note=76 velocity=0 time=0.14692125
note_off channel=0 note=79 velocity=0 time=0
note_off channel=0 note=60 velocity=0 time=0
note_on channel=0 note=81 velocity=86 time=0.07695874999999999
note_on channel=0 note=52 velocity=62 time=0
note_on channel=0 note=79 velocity=81 time=0.11194
note_off channel=0 note=81 velocity=0 time=0.0017490625
note_off channel=0 note=52 velocity=0 time=0.033232187499999996
note_on channel=0 note=77 velocity=75 time=0.07695874999999999
note_on channel=0 note=64 velocity=79 time=0
note_off channel=0 note=79 velocity=0 time=0.0017490625
note_on channel=0 note=76 velocity=65 time=0.1101909375
note_off channel=0 note=77 velocity=0 time=0.0017490625
note_off channel=0 note=64 velocity=0 time=0.033232187499999996
note_on channel=0 note=74 velocity=69 time=0.07695874999999999
note_on channel=0 note=71 velocity=65 time=0
note_on channel=0 note=55 velocity=64 time=0
note_off channel=0 note=76 velocity=0 time=0.0017490625
note_on channel=0 note=67 velocity=55 time=0.2221309375
note_off channel=0 note=71 velocity=0 time=0.003498125
note_off channel=0 note=55 velocity=0 time=0.1941459375
note_off channel=0 note=74 velocity=0 time=0.00699625
note_off channel=0 note=67 velocity=0 time=0.00699625
note_on channel=0 note=72 velocity=82 time=0.012243437499999999
note_on channel=0 note=76 velocity=82 time=0
note_off channel=0 note=72 velocity=0 time=0.14692125
note_off channel=0 note=76 velocity=0 time=0
note_on channel=0 note=74 velocity=80 time=0.07695874999999999
note_on channel=0 note=77 velocity=80 time=0
note_off channel=0 note=74 velocity=0 time=0.14692125
note_off channel=0 note=77 velocity=0 time=0
note_on channel=0 note=76 velocity=84 time=0.07695874999999999
note_on channel=0 note=79 velocity=84 time=0
note_on channel=0 note=48 velocity=61 time=0
note_off channel=0 note=76 velocity=0 time=0.14692125
note_off channel=0 note=79 velocity=0 time=0
note_off channel=0 note=48 velocity=0 time=0
note_on channel=0 note=76 velocity=80 time=0.07695874999999999
note_on channel=0 note=79 velocity=80 time=0
note_on channel=0 note=60 velocity=85 time=0
note_off channel=0 note=76 velocity=0 time=0.14692125
note_off channel=0 note=79 velocity=0 time=0
note_off channel=0 note=60 velocity=0 time=0
note_on channel=0 note=81 velocity=86 time=0.07695874999999999
note_on channel=0 note=52 velocity=63 time=0
note_on channel=0 note=79 velocity=84 time=0.11194
note_off channel=0 note=81 velocity=0 time=0.0017490625
note_off channel=0 note=52 velocity=0 time=0.033232187499999996
note_on channel=0 note=77 velocity=76 time=0.07695874999999999
note_on channel=0 note=64 velocity=77 time=0
note_off channel=0 note=79 velocity=0 time=0.0017490625
note_on channel=0 note=76 velocity=76 time=0.1101909375
note_off channel=0 note=77 velocity=0 time=0.0017490625
note_off channel=0 note=64 velocity=0 time=0.033232187499999996
note_on channel=0 note=71 velocity=74 time=0.07695874999999999
note_on channel=0 note=74 velocity=74 time=0
note_on channel=0 note=55 velocity=60 time=0
note_off channel=0 note=76 velocity=0 time=0.0017490625
note_off channel=0 note=55 velocity=0 time=0.419775
note_off channel=0 note=71 velocity=0 time=0.003498125
note_off channel=0 note=74 velocity=0 time=0
note_on channel=0 note=69 velocity=59 time=0.0227378125
note_on channel=0 note=72 velocity=59 time=0
note_off channel=0 note=69 velocity=0 time=0.14692125
note_off channel=0 note=72 velocity=0 time=0
note_on channel=0 note=71 velocity=68 time=0.07695874999999999
note_on channel=0 note=74 velocity=68 time=0
note_off channel=0 note=71 velocity=0 time=0.14692125
note_off channel=0 note=74 velocity=0 time=0
MetaMessage('set_tempo', tempo=451126, time=0.07695874999999999)
note_on channel=0 note=72 velocity=67 time=0
note_on channel=0 note=76 velocity=67 time=0
note_on channel=0 note=45 velocity=45 time=0
note_off channel=0 note=72 velocity=0 time=0.14802571874999998
note_off channel=0 note=76 velocity=0 time=0
note_off channel=0 note=45 velocity=0 time=0
note_on channel=0 note=72 velocity=68 time=0.07753728124999999
note_on channel=0 note=76 velocity=68 time=0
note_on channel=0 note=57 velocity=53 time=0
note_off channel=0 note=72 velocity=0 time=0.14802571874999998
note_off channel=0 note=76 velocity=0 time=0
note_off channel=0 note=57 velocity=0 time=0
note_on channel=0 note=77 velocity=65 time=0.07753728124999999
note_on channel=0 note=48 velocity=49 time=0
note_off channel=0 note=77 velocity=0 time=0.1074948671875
note_on channel=0 note=76 velocity=65 time=0.0052866328125
note_off channel=0 note=48 velocity=0 time=0.03524421875
note_off channel=0 note=76 velocity=0 time=0.0722506484375
note_on channel=0 note=74 velocity=61 time=0.0052866328125
note_on channel=0 note=60 velocity=62 time=0
note_off channel=0 note=74 velocity=0 time=0.1074948671875
note_on channel=0 note=72 velocity=65 time=0.0052866328125
note_off channel=0 note=60 velocity=0 time=0.03524421875
note_off channel=0 note=72 velocity=0 time=0.0722506484375
note_on channel=0 note=71 velocity=61 time=0.0052866328125
note_on channel=0 note=68 velocity=83 time=0
note_on channel=0 note=52 velocity=44 time=0
note_off channel=0 note=68 velocity=0 time=0.21322752343749998
note_on channel=0 note=64 velocity=76 time=0.0123354765625
note_off channel=0 note=71 velocity=0 time=0.1991298359375
note_off channel=0 note=52 velocity=0 time=0
note_off channel=0 note=64 velocity=0 time=0.014097687499999999
note_on channel=0 note=69 velocity=68 time=0.0123354765625
note_on channel=0 note=72 velocity=68 time=0
note_off channel=0 note=69 velocity=0 time=0.14802571874999998
note_off channel=0 note=72 velocity=0 time=0
note_on channel=0 note=71 velocity=63 time=0.07753728124999999
note_on channel=0 note=74 velocity=63 time=0
note_off channel=0 note=71 velocity=0 time=0.14802571874999998
note_off channel=0 note=74 velocity=0 time=0
note_on channel=0 note=72 velocity=68 time=0.07753728124999999
note_on channel=0 note=76 velocity=68 time=0
note_on channel=0 note=45 velocity=40 time=0
note_off channel=0 note=72 velocity=0 time=0.14802571874999998
note_off channel=0 note=76 velocity=0 time=0
note_off channel=0 note=45 velocity=0 time=0
note_on channel=0 note=72 velocity=63 time=0.07753728124999999
note_on channel=0 note=76 velocity=63 time=0
note_on channel=0 note=57 velocity=49 time=0
note_off channel=0 note=72 velocity=0 time=0.14802571874999998
note_off channel=0 note=76 velocity=0 time=0
note_off channel=0 note=57 velocity=0 time=0
note_on channel=0 note=77 velocity=68 time=0.07753728124999999
note_on channel=0 note=48 velocity=43 time=0
note_off channel=0 note=77 velocity=0 time=0.1074948671875
note_on channel=0 note=76 velocity=65 time=0.0052866328125
note_off channel=0 note=48 velocity=0 time=0.03524421875
note_off channel=0 note=76 velocity=0 time=0.0722506484375
note_on channel=0 note=74 velocity=57 time=0.0052866328125
note_on channel=0 note=60 velocity=60 time=0
note_off channel=0 note=74 velocity=0 time=0.1074948671875
note_on channel=0 note=72 velocity=59 time=0.0052866328125
note_off channel=0 note=60 velocity=0 time=0.03524421875
note_off channel=0 note=72 velocity=0 time=0.0722506484375
note_on channel=0 note=68 velocity=65 time=0.0052866328125
note_on channel=0 note=71 velocity=65 time=0
note_on channel=0 note=52 velocity=48 time=0
note_off channel=0 note=68 velocity=0 time=0.42469283593749996
note_off channel=0 note=71 velocity=0 time=0
note_off channel=0 note=52 velocity=0 time=0
note_on channel=0 note=71 velocity=63 time=0.026433164062499997
note_on channel=0 note=69 velocity=60 time=0.11278149999999999
note_off channel=0 note=71 velocity=0 time=0.0017622109374999999
note_on channel=0 note=68 velocity=64 time=0.1110192890625
note_off channel=0 note=69 velocity=0 time=0.0017622109374999999
note_on channel=0 note=69 velocity=70 time=0.1110192890625
note_off channel=0 note=68 velocity=0 time=0.0017622109374999999
note_on channel=0 note=72 velocity=73 time=0.1110192890625
note_on channel=0 note=57 velocity=46 time=0
note_off channel=0 note=69 velocity=0 time=0.0017622109374999999
note_off channel=0 note=72 velocity=0 time=0.1462635078125
note_off channel=0 note=57 velocity=0 time=0
note_on channel=0 note=60 velocity=55 time=0.07753728124999999
note_on channel=0 note=64 velocity=55 time=0
note_off channel=0 note=60 velocity=0 time=0.14802571874999998
note_off channel=0 note=64 velocity=0 time=0
note_on channel=0 note=74 velocity=55 time=0.07753728124999999
note_on channel=0 note=60 velocity=50 time=0
note_on channel=0 note=64 velocity=50 time=0
note_on channel=0 note=72 velocity=49 time=0.11278149999999999
note_off channel=0 note=74 velocity=0 time=0.0017622109374999999
note_off channel=0 note=60 velocity=0 time=0.0334820078125
note_off channel=0 note=64 velocity=0 time=0
note_on channel=0 note=71 velocity=64 time=0.07753728124999999
note_on channel=0 note=60 velocity=53 time=0
note_on channel=0 note=64 velocity=53 time=0
note_off channel=0 note=72 velocity=0 time=0.0017622109374999999
note_on channel=0 note=72 velocity=66 time=0.1110192890625
note_off channel=0 note=71 velocity=0 time=0.0017622109374999999
note_off channel=0 note=60 velocity=0 time=0.0334820078125
note_off channel=0 note=64 velocity=0 time=0
note_on channel=0 note=76 velocity=66 time=0.07753728124999999
note_on channel=0 note=57 velocity=40 time=0
note_off channel=0 note=72 velocity=0 time=0.0017622109374999999
note_off channel=0 note=76 velocity=0 time=0.1462635078125
note_off channel=0 note=57 velocity=0 time=0
note_on channel=0 note=60 velocity=50 time=0.07753728124999999
note_on channel=0 note=64 velocity=50 time=0
note_off channel=0 note=60 velocity=0 time=0.14802571874999998
note_off channel=0 note=64 velocity=0 time=0
note_on channel=0 note=77 velocity=67 time=0.07753728124999999
note_on channel=0 note=60 velocity=48 time=0
note_on channel=0 note=64 velocity=48 time=0
note_on channel=0 note=76 velocity=65 time=0.11278149999999999
note_off channel=0 note=77 velocity=0 time=0.0017622109374999999
note_off channel=0 note=60 velocity=0 time=0.0334820078125
note_off channel=0 note=64 velocity=0 time=0
note_on channel=0 note=75 velocity=64 time=0.07753728124999999
note_on channel=0 note=60 velocity=48 time=0
note_on channel=0 note=64 velocity=48 time=0
note_off channel=0 note=76 velocity=0 time=0.0017622109374999999
note_on channel=0 note=76 velocity=66 time=0.1110192890625
note_off channel=0 note=75 velocity=0 time=0.0017622109374999999
note_off channel=0 note=60 velocity=0 time=0.0334820078125
note_off channel=0 note=64 velocity=0 time=0
MetaMessage('set_tempo', tempo=454544, time=0.0757750703125)
note_on channel=0 note=83 velocity=79 time=0.0017755625
note_on channel=0 note=57 velocity=47 time=0
note_off channel=0 note=76 velocity=0 time=0.0017755625
note_on channel=0 note=81 velocity=74 time=0.1118604375
note_off channel=0 note=83 velocity=0 time=0.0017755625
note_off channel=0 note=57 velocity=0 time=0.0994315
note_on channel=0 note=80 velocity=66 time=0.0124289375
note_on channel=0 note=60 velocity=55 time=0
note_on channel=0 note=64 velocity=55 time=0
note_off channel=0 note=81 velocity=0 time=0.0017755625
note_on channel=0 note=81 velocity=69 time=0.1118604375
note_off channel=0 note=80 velocity=0 time=0.0017755625
note_off channel=0 note=60 velocity=0 time=0.0994315
note_off channel=0 note=64 velocity=0 time=0
note_on channel=0 note=83 velocity=66 time=0.0124289375
note_on channel=0 note=57 velocity=44 time=0
note_off channel=0 note=81 velocity=0 time=0.0017755625
note_on channel=0 note=81 velocity=64 time=0.1118604375
note_off channel=0 note=83 velocity=0 time=0.0017755625
note_off channel=0 note=57 velocity=0 time=0.0994315
note_on channel=0 note=80 velocity=63 time=0.0124289375
note_on channel=0 note=60 velocity=52 time=0
note_on channel=0 note=64 velocity=52 time=0
note_off channel=0 note=81 velocity=0 time=0.0017755625
note_on channel=0 note=81 velocity=63 time=0.1118604375
note_off channel=0 note=80 velocity=0 time=0.0017755625
note_off channel=0 note=60 velocity=0 time=0.0994315
note_off channel=0 note=64 velocity=0 time=0
note_on channel=0 note=84 velocity=76 time=0.0124289375
note_on channel=0 note=53 velocity=57 time=0
note_off channel=0 note=81 velocity=0 time=0.0017755625
note_on channel=0 note=57 velocity=69 time=0.2254964375
note_on channel=0 note=63 velocity=69 time=0
note_off channel=0 note=53 velocity=0 time=0.003551125
note_off channel=0 note=84 velocity=0 time=0.2006385625
note_off channel=0 note=57 velocity=0 time=0.010653375
note_off channel=0 note=63 velocity=0 time=0
MetaMessage('set_tempo', tempo=447760, time=0.0124289375)
note_on channel=0 note=81 velocity=77 time=0
note_on channel=0 note=57 velocity=63 time=0
note_on channel=0 note=63 velocity=63 time=0
note_off channel=0 note=81 velocity=0 time=0.14692125
note_off channel=0 note=57 velocity=0 time=0
note_off channel=0 note=63 velocity=0 time=0
note_on channel=0 note=83 velocity=86 time=0.07695874999999999
note_on channel=0 note=57 velocity=61 time=0
note_on channel=0 note=63 velocity=61 time=0
note_off channel=0 note=83 velocity=0 time=0.14692125
note_off channel=0 note=57 velocity=0 time=0
note_off channel=0 note=63 velocity=0 time=0
note_on channel=0 note=84 velocity=84 time=0.07695874999999999
note_on channel=0 note=52 velocity=54 time=0
note_off channel=0 note=84 velocity=0 time=0.14692125
note_off channel=0 note=52 velocity=0 time=0
note_on channel=0 note=83 velocity=74 time=0.07695874999999999
note_on channel=0 note=57 velocity=80 time=0
note_on channel=0 note=64 velocity=80 time=0
note_off channel=0 note=83 velocity=0 time=0.14692125
note_off channel=0 note=57 velocity=0 time=0
note_off channel=0 note=64 velocity=0 time=0
note_on channel=0 note=81 velocity=74 time=0.07695874999999999
note_on channel=0 note=50 velocity=57 time=0
note_off channel=0 note=81 velocity=0 time=0.14692125
note_off channel=0 note=50 velocity=0 time=0
note_on channel=0 note=80 velocity=75 time=0.07695874999999999
note_on channel=0 note=53 velocity=68 time=0
note_on channel=0 note=59 velocity=68 time=0
note_off channel=0 note=80 velocity=0 time=0.14692125
note_off channel=0 note=53 velocity=0 time=0
note_off channel=0 note=59 velocity=0 time=0
note_on channel=0 note=81 velocity=86 time=0.07695874999999999
note_on channel=0 note=48 velocity=51 time=0
note_off channel=0 note=81 velocity=0 time=0.14692125
note_off channel=0 note=48 velocity=0 time=0
note_on channel=0 note=76 velocity=72 time=0.07695874999999999
note_on channel=0 note=52 velocity=66 time=0
note_on channel=0 note=57 velocity=66 time=0
note_off channel=0 note=76 velocity=0 time=0.14692125
note_off channel=0 note=52 velocity=0 time=0
note_off channel=0 note=57 velocity=0 time=0
note_on channel=0 note=77 velocity=82 time=0.07695874999999999
note_on channel=0 note=50 velocity=57 time=0
note_off channel=0 note=77 velocity=0 time=0.14692125
note_off channel=0 note=50 velocity=0 time=0
note_on channel=0 note=74 velocity=80 time=0.07695874999999999
note_on channel=0 note=53 velocity=66 time=0
note_on channel=0 note=59 velocity=66 time=0
note_off channel=0 note=74 velocity=0 time=0.14692125
note_off channel=0 note=53 velocity=0 time=0
note_off channel=0 note=59 velocity=0 time=0
MetaMessage('set_tempo', tempo=461537, time=0.07695874999999999)
note_on channel=0 note=72 velocity=75 time=0
note_on channel=0 note=52 velocity=66 time=0
note_on channel=0 note=57 velocity=66 time=0
note_off channel=0 note=52 velocity=0 time=0.15144182812499998
note_off channel=0 note=57 velocity=0 time=0
note_on channel=0 note=52 velocity=65 time=0.07932667187499999
note_on channel=0 note=57 velocity=65 time=0
note_off channel=0 note=52 velocity=0 time=0.15144182812499998
note_off channel=0 note=57 velocity=0 time=0
note_off channel=0 note=72 velocity=0 time=0.05228348828125
note_on channel=0 note=72 velocity=80 time=0.02704318359375
note_on channel=0 note=52 velocity=65 time=0
note_on channel=0 note=56 velocity=65 time=0
note_off channel=0 note=72 velocity=0 time=0.07211515624999999
note_on channel=0 note=71 velocity=80 time=0.009014394531249999
note_off channel=0 note=71 velocity=0 time=0.064903640625
note_off channel=0 note=52 velocity=0 time=0.00540863671875
note_off channel=0 note=56 velocity=0 time=0
note_on channel=0 note=72 velocity=80 time=0.0108172734375
note_off channel=0 note=72 velocity=0 time=0.064903640625
note_on channel=0 note=52 velocity=63 time=0.0036057578125
note_on channel=0 note=56 velocity=63 time=0
note_on channel=0 note=71 velocity=80 time=0.01262015234375
note_off channel=0 note=71 velocity=0 time=0.064903640625
note_on channel=0 note=69 velocity=82 time=0.037860457031249996
note_off channel=0 note=52 velocity=0 time=0.036057578124999996
note_off channel=0 note=56 velocity=0 time=0
note_off channel=0 note=69 velocity=0 time=0.019831667968749998
note_on channel=0 note=71 velocity=82 time=0.00180287890625
note_off channel=0 note=71 velocity=0 time=0.05588924609375
MetaMessage('time_signature', numerator=1, denominator=4, clocks_per_click=24, notated_32nd_notes_per_beat=8, time=0.00180287890625)
note_on channel=0 note=69 velocity=78 time=0
note_on channel=0 note=45 velocity=66 time=0
note_on channel=0 note=57 velocity=66 time=0
note_off channel=0 note=69 velocity=0 time=0.43449381640624996
note_off channel=0 note=45 velocity=0 time=0
note_off channel=0 note=57 velocity=0 time=0
MetaMessage('time_signature', numerator=2, denominator=4, clocks_per_click=24, notated_32nd_notes_per_beat=8, time=0.02704318359375)
MetaMessage('time_signature', numerator=1, denominator=4, clocks_per_click=24, notated_32nd_notes_per_beat=8, time=0)
note_on channel=0 note=72 velocity=96 time=0
note_on channel=0 note=76 velocity=96 time=0
note_off channel=0 note=72 velocity=0 time=0.15144182812499998
note_off channel=0 note=76 velocity=0 time=0
note_on channel=0 note=74 velocity=86 time=0.07932667187499999
note_on channel=0 note=77 velocity=86 time=0
note_off channel=0 note=74 velocity=0 time=0.15144182812499998
note_off channel=0 note=77 velocity=0 time=0
MetaMessage('time_signature', numerator=2, denominator=4, clocks_per_click=24, notated_32nd_notes_per_beat=8, time=0.07932667187499999)
note_on channel=0 note=76 velocity=83 time=0
note_on channel=0 note=79 velocity=83 time=0
note_on channel=0 note=48 velocity=49 time=0
note_off channel=0 note=76 velocity=0 time=0.15144182812499998
note_off channel=0 note=79 velocity=0 time=0
note_off channel=0 note=48 velocity=0 time=0
note_on channel=0 note=76 velocity=79 time=0.07932667187499999
note_on channel=0 note=79 velocity=79 time=0
note_on channel=0 note=60 velocity=77 time=0
note_off channel=0 note=76 velocity=0 time=0.15144182812499998
note_off channel=0 note=79 velocity=0 time=0
note_off channel=0 note=60 velocity=0 time=0
note_on channel=0 note=81 velocity=83 time=0.07932667187499999
note_on channel=0 note=52 velocity=63 time=0
note_on channel=0 note=79 velocity=77 time=0.11538425
note_off channel=0 note=81 velocity=0 time=0.00180287890625
note_off channel=0 note=52 velocity=0 time=0.03425469921875
note_on channel=0 note=77 velocity=71 time=0.07932667187499999
note_on channel=0 note=64 velocity=83 time=0
note_off channel=0 note=79 velocity=0 time=0.00180287890625
note_on channel=0 note=76 velocity=68 time=0.11358137109375
note_off channel=0 note=77 velocity=0 time=0.00180287890625
note_off channel=0 note=64 velocity=0 time=0.03425469921875
note_on channel=0 note=74 velocity=77 time=0.07932667187499999
note_on channel=0 note=71 velocity=94 time=0
note_on channel=0 note=55 velocity=63 time=0
note_off channel=0 note=76 velocity=0 time=0.00180287890625
note_on channel=0 note=67 velocity=83 time=0.22896562109375
note_off channel=0 note=71 velocity=0 time=0.0036057578125
note_off channel=0 note=55 velocity=0 time=0.20011955859375
note_off channel=0 note=74 velocity=0 time=0.007211515625
note_off channel=0 note=67 velocity=0 time=0.007211515625
note_on channel=0 note=72 velocity=81 time=0.01262015234375
note_on channel=0 note=76 velocity=81 time=0
note_off channel=0 note=72 velocity=0 time=0.15144182812499998
note_off channel=0 note=76 velocity=0 time=0
note_on channel=0 note=74 velocity=85 time=0.07932667187499999
note_on channel=0 note=77 velocity=85 time=0
note_off channel=0 note=74 velocity=0 time=0.15144182812499998
note_off channel=0 note=77 velocity=0 time=0
note_on channel=0 note=76 velocity=80 time=0.07932667187499999
note_on channel=0 note=79 velocity=80 time=0
note_on channel=0 note=48 velocity=55 time=0
note_off channel=0 note=76 velocity=0 time=0.15144182812499998
note_off channel=0 note=79 velocity=0 time=0
note_off channel=0 note=48 velocity=0 time=0
note_on channel=0 note=76 velocity=81 time=0.07932667187499999
note_on channel=0 note=79 velocity=81 time=0
note_on channel=0 note=60 velocity=83 time=0
note_off channel=0 note=76 velocity=0 time=0.15144182812499998
note_off channel=0 note=79 velocity=0 time=0
note_off channel=0 note=60 velocity=0 time=0
note_on channel=0 note=81 velocity=80 time=0.07932667187499999
note_on channel=0 note=52 velocity=57 time=0
note_on channel=0 note=79 velocity=79 time=0.11538425
note_off channel=0 note=81 velocity=0 time=0.00180287890625
note_off channel=0 note=52 velocity=0 time=0.03425469921875
note_on channel=0 note=77 velocity=75 time=0.07932667187499999
note_on channel=0 note=64 velocity=80 time=0
note_off channel=0 note=79 velocity=0 time=0.00180287890625
note_on channel=0 note=76 velocity=73 time=0.11358137109375
note_off channel=0 note=77 velocity=0 time=0.00180287890625
note_off channel=0 note=64 velocity=0 time=0.03425469921875
note_on channel=0 note=71 velocity=79 time=0.07932667187499999
note_on channel=0 note=74 velocity=79 time=0
note_on channel=0 note=55 velocity=60 time=0
note_off channel=0 note=76 velocity=0 time=0.00180287890625
note_off channel=0 note=55 velocity=0 time=0.4326909375
note_off channel=0 note=71 velocity=0 time=0.0036057578125
note_off channel=0 note=74 velocity=0 time=0
note_on channel=0 note=69 velocity=57 time=0.02343742578125
note_on channel=0 note=72 velocity=57 time=0
note_off channel=0 note=69 velocity=0 time=0.15144182812499998
note_off channel=0 note=72 velocity=0 time=0
note_on channel=0 note=71 velocity=67 time=0.07932667187499999
note_on channel=0 note=74 velocity=67 time=0
note_off channel=0 note=71 velocity=0 time=0.15144182812499998
note_off channel=0 note=74 velocity=0 time=0
MetaMessage('set_tempo', tempo=451126, time=0.07932667187499999)
note_on channel=0 note=72 velocity=65 time=0
note_on channel=0 note=76 velocity=65 time=0
note_on channel=0 note=45 velocity=43 time=0
note_off channel=0 note=72 velocity=0 time=0.14802571874999998
note_off channel=0 note=76 velocity=0 time=0
note_off channel=0 note=45 velocity=0 time=0
note_on channel=0 note=72 velocity=65 time=0.07753728124999999
note_on channel=0 note=76 velocity=65 time=0
note_on channel=0 note=57 velocity=49 time=0
note_off channel=0 note=72 velocity=0 time=0.14802571874999998
note_off channel=0 note=76 velocity=0 time=0
note_off channel=0 note=57 velocity=0 time=0
note_on channel=0 note=77 velocity=66 time=0.07753728124999999
note_on channel=0 note=48 velocity=44 time=0
note_off channel=0 note=77 velocity=0 time=0.1074948671875
note_on channel=0 note=76 velocity=62 time=0.0052866328125
note_off channel=0 note=48 velocity=0 time=0.03524421875
note_off channel=0 note=76 velocity=0 time=0.0722506484375
note_on channel=0 note=74 velocity=58 time=0.0052866328125
note_on channel=0 note=60 velocity=61 time=0
note_off channel=0 note=74 velocity=0 time=0.1074948671875
note_on channel=0 note=72 velocity=60 time=0.0052866328125
note_off channel=0 note=60 velocity=0 time=0.03524421875
note_off channel=0 note=72 velocity=0 time=0.0722506484375
note_on channel=0 note=71 velocity=59 time=0.0052866328125
note_on channel=0 note=68 velocity=84 time=0
note_on channel=0 note=52 velocity=43 time=0
note_off channel=0 note=68 velocity=0 time=0.21322752343749998
note_on channel=0 note=64 velocity=68 time=0.0123354765625
note_off channel=0 note=71 velocity=0 time=0.1991298359375
note_off channel=0 note=52 velocity=0 time=0
note_off channel=0 note=64 velocity=0 time=0.014097687499999999
note_on channel=0 note=69 velocity=62 time=0.0123354765625
note_on channel=0 note=72 velocity=62 time=0
note_off channel=0 note=69 velocity=0 time=0.14802571874999998
note_off channel=0 note=72 velocity=0 time=0
note_on channel=0 note=71 velocity=70 time=0.07753728124999999
note_on channel=0 note=74 velocity=70 time=0
note_off channel=0 note=71 velocity=0 time=0.14802571874999998
note_off channel=0 note=74 velocity=0 time=0
note_on channel=0 note=72 velocity=69 time=0.07753728124999999
note_on channel=0 note=76 velocity=69 time=0
note_on channel=0 note=45 velocity=42 time=0
note_off channel=0 note=72 velocity=0 time=0.14802571874999998
note_off channel=0 note=76 velocity=0 time=0
note_off channel=0 note=45 velocity=0 time=0
note_on channel=0 note=72 velocity=62 time=0.07753728124999999
note_on channel=0 note=76 velocity=62 time=0
note_on channel=0 note=57 velocity=55 time=0
note_off channel=0 note=72 velocity=0 time=0.14802571874999998
note_off channel=0 note=76 velocity=0 time=0
note_off channel=0 note=57 velocity=0 time=0
note_on channel=0 note=77 velocity=74 time=0.07753728124999999
note_on channel=0 note=48 velocity=44 time=0
note_off channel=0 note=77 velocity=0 time=0.1074948671875
note_on channel=0 note=76 velocity=64 time=0.0052866328125
note_off channel=0 note=48 velocity=0 time=0.03524421875
note_off channel=0 note=76 velocity=0 time=0.0722506484375
note_on channel=0 note=74 velocity=56 time=0.0052866328125
note_on channel=0 note=60 velocity=63 time=0
note_off channel=0 note=74 velocity=0 time=0.1074948671875
note_on channel=0 note=72 velocity=61 time=0.0052866328125
note_off channel=0 note=60 velocity=0 time=0.03524421875
note_off channel=0 note=72 velocity=0 time=0.0722506484375
note_on channel=0 note=68 velocity=58 time=0.0052866328125
note_on channel=0 note=71 velocity=58 time=0
note_on channel=0 note=52 velocity=44 time=0
note_off channel=0 note=68 velocity=0 time=0.42469283593749996
note_off channel=0 note=71 velocity=0 time=0
note_off channel=0 note=52 velocity=0 time=0
note_on channel=0 note=71 velocity=63 time=0.026433164062499997
note_on channel=0 note=69 velocity=62 time=0.11278149999999999
note_off channel=0 note=71 velocity=0 time=0.0017622109374999999
note_on channel=0 note=68 velocity=60 time=0.1110192890625
note_off channel=0 note=69 velocity=0 time=0.0017622109374999999
note_on channel=0 note=69 velocity=65 time=0.1110192890625
note_off channel=0 note=68 velocity=0 time=0.0017622109374999999
note_on channel=0 note=72 velocity=69 time=0.1110192890625
note_on channel=0 note=57 velocity=40 time=0
note_off channel=0 note=69 velocity=0 time=0.0017622109374999999
note_off channel=0 note=72 velocity=0 time=0.1462635078125
note_off channel=0 note=57 velocity=0 time=0
note_on channel=0 note=60 velocity=54 time=0.07753728124999999
note_on channel=0 note=64 velocity=54 time=0
note_off channel=0 note=60 velocity=0 time=0.14802571874999998
note_off channel=0 note=64 velocity=0 time=0
note_on channel=0 note=74 velocity=56 time=0.07753728124999999
note_on channel=0 note=60 velocity=51 time=0
note_on channel=0 note=64 velocity=51 time=0
note_on channel=0 note=72 velocity=51 time=0.11278149999999999
note_off channel=0 note=74 velocity=0 time=0.0017622109374999999
note_off channel=0 note=60 velocity=0 time=0.0334820078125
note_off channel=0 note=64 velocity=0 time=0
note_on channel=0 note=71 velocity=61 time=0.07753728124999999
note_on channel=0 note=60 velocity=48 time=0
note_on channel=0 note=64 velocity=48 time=0
note_off channel=0 note=72 velocity=0 time=0.0017622109374999999
note_on channel=0 note=72 velocity=65 time=0.1110192890625
note_off channel=0 note=71 velocity=0 time=0.0017622109374999999
note_off channel=0 note=60 velocity=0 time=0.0334820078125
note_off channel=0 note=64 velocity=0 time=0
note_on channel=0 note=76 velocity=70 time=0.07753728124999999
note_on channel=0 note=57 velocity=38 time=0
note_off channel=0 note=72 velocity=0 time=0.0017622109374999999
note_off channel=0 note=76 velocity=0 time=0.1462635078125
note_off channel=0 note=57 velocity=0 time=0
note_on channel=0 note=60 velocity=53 time=0.07753728124999999
note_on channel=0 note=64 velocity=53 time=0
note_off channel=0 note=60 velocity=0 time=0.14802571874999998
note_off channel=0 note=64 velocity=0 time=0
note_on channel=0 note=77 velocity=63 time=0.07753728124999999
note_on channel=0 note=60 velocity=52 time=0
note_on channel=0 note=64 velocity=52 time=0
note_on channel=0 note=76 velocity=59 time=0.11278149999999999
note_off channel=0 note=77 velocity=0 time=0.0017622109374999999
note_off channel=0 note=60 velocity=0 time=0.0334820078125
note_off channel=0 note=64 velocity=0 time=0
note_on channel=0 note=75 velocity=69 time=0.07753728124999999
note_on channel=0 note=60 velocity=52 time=0
note_on channel=0 note=64 velocity=52 time=0
note_off channel=0 note=76 velocity=0 time=0.0017622109374999999
note_on channel=0 note=76 velocity=70 time=0.1110192890625
note_off channel=0 note=75 velocity=0 time=0.0017622109374999999
note_off channel=0 note=60 velocity=0 time=0.0334820078125
note_off channel=0 note=64 velocity=0 time=0
MetaMessage('set_tempo', tempo=454544, time=0.0757750703125)
note_on channel=0 note=83 velocity=86 time=0.0017755625
note_on channel=0 note=57 velocity=42 time=0
note_off channel=0 note=76 velocity=0 time=0.0017755625
note_on channel=0 note=81 velocity=85 time=0.1118604375
note_off channel=0 note=83 velocity=0 time=0.0017755625
note_off channel=0 note=57 velocity=0 time=0.0994315
note_on channel=0 note=80 velocity=66 time=0.0124289375
note_on channel=0 note=60 velocity=59 time=0
note_on channel=0 note=64 velocity=59 time=0
note_off channel=0 note=81 velocity=0 time=0.0017755625
note_on channel=0 note=81 velocity=70 time=0.1118604375
note_off channel=0 note=80 velocity=0 time=0.0017755625
note_off channel=0 note=60 velocity=0 time=0.0994315
note_off channel=0 note=64 velocity=0 time=0
note_on channel=0 note=83 velocity=71 time=0.0124289375
note_on channel=0 note=57 velocity=43 time=0
note_off channel=0 note=81 velocity=0 time=0.0017755625
note_on channel=0 note=81 velocity=70 time=0.1118604375
note_off channel=0 note=83 velocity=0 time=0.0017755625
note_off channel=0 note=57 velocity=0 time=0.0994315
note_on channel=0 note=80 velocity=66 time=0.0124289375
note_on channel=0 note=60 velocity=54 time=0
note_on channel=0 note=64 velocity=54 time=0
note_off channel=0 note=81 velocity=0 time=0.0017755625
note_on channel=0 note=81 velocity=70 time=0.1118604375
note_off channel=0 note=80 velocity=0 time=0.0017755625
note_off channel=0 note=60 velocity=0 time=0.0994315
note_off channel=0 note=64 velocity=0 time=0
note_on channel=0 note=84 velocity=77 time=0.0124289375
note_on channel=0 note=53 velocity=64 time=0
note_off channel=0 note=81 velocity=0 time=0.0017755625
note_on channel=0 note=57 velocity=77 time=0.2254964375
note_on channel=0 note=63 velocity=77 time=0
note_off channel=0 note=53 velocity=0 time=0.003551125
note_off channel=0 note=84 velocity=0 time=0.2006385625
note_off channel=0 note=57 velocity=0 time=0.010653375
note_off channel=0 note=63 velocity=0 time=0
MetaMessage('set_tempo', tempo=447760, time=0.0124289375)
note_on channel=0 note=81 velocity=76 time=0
note_on channel=0 note=57 velocity=67 time=0
note_on channel=0 note=63 velocity=67 time=0
note_off channel=0 note=81 velocity=0 time=0.14692125
note_off channel=0 note=57 velocity=0 time=0
note_off channel=0 note=63 velocity=0 time=0
note_on channel=0 note=83 velocity=83 time=0.07695874999999999
note_on channel=0 note=57 velocity=66 time=0
note_on channel=0 note=63 velocity=66 time=0
note_off channel=0 note=83 velocity=0 time=0.14692125
note_off channel=0 note=57 velocity=0 time=0
note_off channel=0 note=63 velocity=0 time=0
note_on channel=0 note=84 velocity=83 time=0.07695874999999999
note_on channel=0 note=52 velocity=53 time=0
note_off channel=0 note=84 velocity=0 time=0.14692125
note_off channel=0 note=52 velocity=0 time=0
note_on channel=0 note=83 velocity=73 time=0.07695874999999999
note_on channel=0 note=57 velocity=79 time=0
note_on channel=0 note=64 velocity=79 time=0
note_off channel=0 note=83 velocity=0 time=0.14692125
note_off channel=0 note=57 velocity=0 time=0
note_off channel=0 note=64 velocity=0 time=0
note_on channel=0 note=81 velocity=78 time=0.07695874999999999
note_on channel=0 note=50 velocity=55 time=0
note_off channel=0 note=81 velocity=0 time=0.14692125
note_off channel=0 note=50 velocity=0 time=0
note_on channel=0 note=80 velocity=74 time=0.07695874999999999
note_on channel=0 note=53 velocity=67 time=0
note_on channel=0 note=59 velocity=67 time=0
note_off channel=0 note=80 velocity=0 time=0.14692125
note_off channel=0 note=53 velocity=0 time=0
note_off channel=0 note=59 velocity=0 time=0
note_on channel=0 note=81 velocity=82 time=0.07695874999999999
note_on channel=0 note=48 velocity=57 time=0
note_off channel=0 note=81 velocity=0 time=0.14692125
note_off channel=0 note=48 velocity=0 time=0
note_on channel=0 note=76 velocity=68 time=0.07695874999999999
note_on channel=0 note=52 velocity=72 time=0
note_on channel=0 note=57 velocity=72 time=0
note_off channel=0 note=76 velocity=0 time=0.14692125
note_off channel=0 note=52 velocity=0 time=0
note_off channel=0 note=57 velocity=0 time=0
note_on channel=0 note=77 velocity=83 time=0.07695874999999999
note_on channel=0 note=50 velocity=59 time=0
note_off channel=0 note=77 velocity=0 time=0.14692125
note_off channel=0 note=50 velocity=0 time=0
note_on channel=0 note=74 velocity=75 time=0.07695874999999999
note_on channel=0 note=53 velocity=66 time=0
note_on channel=0 note=59 velocity=66 time=0
note_off channel=0 note=74 velocity=0 time=0.14692125
note_off channel=0 note=53 velocity=0 time=0
note_off channel=0 note=59 velocity=0 time=0
MetaMessage('set_tempo', tempo=461537, time=0.07695874999999999)
note_on channel=0 note=72 velocity=72 time=0
note_on channel=0 note=52 velocity=61 time=0
note_on channel=0 note=57 velocity=61 time=0
note_off channel=0 note=52 velocity=0 time=0.15144182812499998
note_off channel=0 note=57 velocity=0 time=0
note_on channel=0 note=52 velocity=68 time=0.07932667187499999
note_on channel=0 note=57 velocity=68 time=0
note_off channel=0 note=52 velocity=0 time=0.15144182812499998
note_off channel=0 note=57 velocity=0 time=0
note_off channel=0 note=72 velocity=0 time=0.05228348828125
note_on channel=0 note=72 velocity=80 time=0.02704318359375
note_on channel=0 note=52 velocity=64 time=0
note_on channel=0 note=56 velocity=64 time=0
note_off channel=0 note=72 velocity=0 time=0.07211515624999999
note_on channel=0 note=71 velocity=80 time=0.009014394531249999
note_off channel=0 note=71 velocity=0 time=0.064903640625
note_off channel=0 note=52 velocity=0 time=0.00540863671875
note_off channel=0 note=56 velocity=0 time=0
note_on channel=0 note=72 velocity=80 time=0.0108172734375
note_off channel=0 note=72 velocity=0 time=0.064903640625
note_on channel=0 note=52 velocity=61 time=0.0036057578125
note_on channel=0 note=56 velocity=61 time=0
note_on channel=0 note=71 velocity=80 time=0.01262015234375
note_off channel=0 note=71 velocity=0 time=0.064903640625
note_on channel=0 note=69 velocity=74 time=0.037860457031249996
note_off channel=0 note=52 velocity=0 time=0.036057578124999996
note_off channel=0 note=56 velocity=0 time=0
note_off channel=0 note=69 velocity=0 time=0.019831667968749998
note_on channel=0 note=71 velocity=84 time=0.00180287890625
note_off channel=0 note=71 velocity=0 time=0.05588924609375
MetaMessage('time_signature', numerator=1, denominator=4, clocks_per_click=24, notated_32nd_notes_per_beat=8, time=0.00180287890625)
note_on channel=0 note=69 velocity=78 time=0
note_on channel=0 note=45 velocity=65 time=0
note_on channel=0 note=57 velocity=65 time=0
note_off channel=0 note=69 velocity=0 time=0.43449381640624996
note_off channel=0 note=45 velocity=0 time=0
note_off channel=0 note=57 velocity=0 time=0
MetaMessage('set_tempo', tempo=465116, time=0.02704318359375)
note_on channel=0 note=69 velocity=120 time=0
note_on channel=0 note=81 velocity=120 time=0
note_off channel=0 note=69 velocity=0 time=0.1526161875
note_off channel=0 note=81 velocity=0 time=0
note_on channel=0 note=71 velocity=104 time=0.0799418125
note_on channel=0 note=83 velocity=104 time=0
note_on channel=0 note=45 velocity=84 time=0.09811040624999999
note_on channel=0 note=49 velocity=84 time=0.043604624999999994
note_off channel=0 note=71 velocity=0 time=0.010901156249999999
note_off channel=0 note=83 velocity=0 time=0
note_on channel=0 note=52 velocity=84 time=0.034520328125
MetaMessage('time_signature', numerator=2, denominator=4, clocks_per_click=24, notated_32nd_notes_per_beat=8, time=0.045421484374999994)
note_on channel=0 note=73 velocity=124 time=0
note_on channel=0 note=85 velocity=124 time=0
control_change channel=0 control=64 value=127 time=0
note_on channel=0 note=57 velocity=84 time=0
note_off channel=0 note=45 velocity=0 time=0
note_off channel=0 note=49 velocity=0 time=0
note_off channel=0 note=52 velocity=0 time=0
note_off channel=0 note=57 velocity=0 time=0.219839984375
control_change channel=0 control=64 value=0 time=0.012718015624999999
note_on channel=0 note=57 velocity=83 time=0
note_off channel=0 note=73 velocity=0 time=0.205305109375
note_off channel=0 note=85 velocity=0 time=0
note_off channel=0 note=57 velocity=0 time=0.014534875
note_on channel=0 note=69 velocity=84 time=0.012718015624999999
note_on channel=0 note=81 velocity=84 time=0
note_on channel=0 note=57 velocity=78 time=0
note_off channel=0 note=69 velocity=0 time=0.1526161875
note_off channel=0 note=81 velocity=0 time=0
note_off channel=0 note=57 velocity=0 time=0.06722379687499999
note_on channel=0 note=71 velocity=100 time=0.012718015624999999
note_on channel=0 note=83 velocity=100 time=0
note_on channel=0 note=57 velocity=79 time=0
note_off channel=0 note=57 velocity=0 time=0.09811040624999999
note_on channel=0 note=45 velocity=81 time=0
note_on channel=0 note=49 velocity=81 time=0.043604624999999994
note_off channel=0 note=71 velocity=0 time=0.010901156249999999
note_off channel=0 note=83 velocity=0 time=0
note_on channel=0 note=52 velocity=81 time=0.034520328125
note_on channel=0 note=73 velocity=108 time=0.045421484374999994
note_on channel=0 note=85 velocity=108 time=0
control_change channel=0 control=64 value=127 time=0
note_on channel=0 note=57 velocity=81 time=0
note_off channel=0 note=45 velocity=0 time=0
note_off channel=0 note=49 velocity=0 time=0
note_off channel=0 note=52 velocity=0 time=0
note_off channel=0 note=73 velocity=0 time=0.1526161875
note_off channel=0 note=85 velocity=0 time=0
note_off channel=0 note=57 velocity=0 time=0.06722379687499999
note_on channel=0 note=71 velocity=92 time=0.012718015624999999
note_on channel=0 note=83 velocity=92 time=0
control_change channel=0 control=64 value=0 time=0
note_on channel=0 note=57 velocity=83 time=0
note_off channel=0 note=71 velocity=0 time=0.1526161875
note_off channel=0 note=83 velocity=0 time=0
note_off channel=0 note=57 velocity=0 time=0.06722379687499999
note_on channel=0 note=69 velocity=84 time=0.012718015624999999
note_on channel=0 note=81 velocity=84 time=0
note_on channel=0 note=57 velocity=84 time=0
note_off channel=0 note=69 velocity=0 time=0.1526161875
note_off channel=0 note=81 velocity=0 time=0
note_off channel=0 note=57 velocity=0 time=0.06722379687499999
note_on channel=0 note=68 velocity=90 time=0.012718015624999999
note_on channel=0 note=80 velocity=90 time=0
note_on channel=0 note=57 velocity=76 time=0
note_off channel=0 note=57 velocity=0 time=0.09084296874999999
note_on channel=0 note=38 velocity=82 time=0
note_on channel=0 note=42 velocity=82 time=0.050872062499999995
note_off channel=0 note=68 velocity=0 time=0.010901156249999999
note_off channel=0 note=80 velocity=0 time=0
note_on channel=0 note=45 velocity=82 time=0.034520328125
note_on channel=0 note=66 velocity=90 time=0.045421484374999994
note_on channel=0 note=78 velocity=90 time=0
control_change channel=0 control=64 value=127 time=0
note_on channel=0 note=50 velocity=82 time=0
note_off channel=0 note=38 velocity=0 time=0
note_off channel=0 note=42 velocity=0 time=0
note_off channel=0 note=45 velocity=0 time=0
control_change channel=0 control=64 value=0 time=0.01816859375
note_off channel=0 note=66 velocity=0 time=0.13444759374999998
note_off channel=0 note=78 velocity=0 time=0
note_off channel=0 note=50 velocity=0 time=0.06722379687499999
note_on channel=0 note=68 velocity=97 time=0.012718015624999999
note_on channel=0 note=80 velocity=97 time=0
note_on channel=0 note=50 velocity=83 time=0
note_off channel=0 note=50 velocity=0 time=0.050872062499999995
note_on channel=0 note=39 velocity=83 time=0
control_change channel=0 control=64 value=127 time=0.025436031249999998
control_change channel=0 control=64 value=0 time=0.01816859375
note_on channel=0 note=42 velocity=83 time=0.009084296875
note_on channel=0 note=45 velocity=83 time=0.045421484374999994
note_off channel=0 note=68 velocity=0 time=0.00363371875
note_off channel=0 note=80 velocity=0 time=0
note_on channel=0 note=69 velocity=98 time=0.0799418125
note_on channel=0 note=81 velocity=98 time=0
note_on channel=0 note=51 velocity=83 time=0
note_off channel=0 note=39 velocity=0 time=0
note_off channel=0 note=42 velocity=0 time=0
note_off channel=0 note=45 velocity=0 time=0
note_off channel=0 note=69 velocity=0 time=0.1526161875
note_off channel=0 note=81 velocity=0 time=0
note_off channel=0 note=51 velocity=0 time=0.06722379687499999
note_on channel=0 note=71 velocity=101 time=0.012718015624999999
note_on channel=0 note=83 velocity=101 time=0
note_on channel=0 note=51 velocity=85 time=0
note_off channel=0 note=51 velocity=0 time=0.09084296874999999
note_on channel=0 note=40 velocity=83 time=0
note_on channel=0 note=44 velocity=83 time=0.050872062499999995
note_off channel=0 note=71 velocity=0 time=0.010901156249999999
note_off channel=0 note=83 velocity=0 time=0
note_on channel=0 note=47 velocity=83 time=0.034520328125
note_on channel=0 note=68 velocity=85 time=0.045421484374999994
note_on channel=0 note=80 velocity=85 time=0
control_change channel=0 control=64 value=127 time=0
note_on channel=0 note=52 velocity=83 time=0
note_off channel=0 note=40 velocity=0 time=0
note_off channel=0 note=44 velocity=0 time=0
note_off channel=0 note=47 velocity=0 time=0
note_off channel=0 note=68 velocity=0 time=0.1526161875
note_off channel=0 note=80 velocity=0 time=0
note_off channel=0 note=52 velocity=0 time=0.06722379687499999
note_on channel=0 note=64 velocity=85 time=0.012718015624999999
note_on channel=0 note=76 velocity=85 time=0
control_change channel=0 control=64 value=0 time=0
note_on channel=0 note=52 velocity=80 time=0
note_off channel=0 note=64 velocity=0 time=0.1526161875
note_off channel=0 note=76 velocity=0 time=0
note_off channel=0 note=52 velocity=0 time=0.06722379687499999
note_on channel=0 note=69 velocity=104 time=0.012718015624999999
note_on channel=0 note=81 velocity=104 time=0
note_on channel=0 note=52 velocity=78 time=0
note_off channel=0 note=69 velocity=0 time=0.1526161875
note_off channel=0 note=81 velocity=0 time=0
note_off channel=0 note=52 velocity=0 time=0.06722379687499999
note_on channel=0 note=71 velocity=104 time=0.012718015624999999
note_on channel=0 note=83 velocity=104 time=0
note_on channel=0 note=52 velocity=80 time=0
note_off channel=0 note=52 velocity=0 time=0.09811040624999999
note_on channel=0 note=45 velocity=90 time=0
note_on channel=0 note=49 velocity=90 time=0.043604624999999994
note_off channel=0 note=71 velocity=0 time=0.010901156249999999
note_off channel=0 note=83 velocity=0 time=0
note_on channel=0 note=52 velocity=90 time=0.034520328125
note_on channel=0 note=73 velocity=124 time=0.045421484374999994
note_on channel=0 note=85 velocity=124 time=0
control_change channel=0 control=64 value=127 time=0
note_on channel=0 note=57 velocity=90 time=0
note_off channel=0 note=45 velocity=0 time=0
note_off channel=0 note=49 velocity=0 time=0
note_off channel=0 note=52 velocity=0 time=0
note_off channel=0 note=57 velocity=0 time=0.219839984375
control_change channel=0 control=64 value=0 time=0.012718015624999999
note_on channel=0 note=57 velocity=79 time=0
note_off channel=0 note=73 velocity=0 time=0.205305109375
note_off channel=0 note=85 velocity=0 time=0
note_off channel=0 note=57 velocity=0 time=0.014534875
note_on channel=0 note=69 velocity=82 time=0.012718015624999999
note_on channel=0 note=81 velocity=82 time=0
note_on channel=0 note=57 velocity=85 time=0
note_off channel=0 note=69 velocity=0 time=0.1526161875
note_off channel=0 note=81 velocity=0 time=0
note_off channel=0 note=57 velocity=0 time=0.06722379687499999
note_on channel=0 note=71 velocity=103 time=0.012718015624999999
note_on channel=0 note=83 velocity=103 time=0
note_on channel=0 note=57 velocity=82 time=0
note_off channel=0 note=57 velocity=0 time=0.09811040624999999
note_on channel=0 note=45 velocity=84 time=0
note_on channel=0 note=49 velocity=84 time=0.043604624999999994
note_off channel=0 note=71 velocity=0 time=0.010901156249999999
note_off channel=0 note=83 velocity=0 time=0
note_on channel=0 note=52 velocity=84 time=0.034520328125
note_on channel=0 note=73 velocity=106 time=0.045421484374999994
note_on channel=0 note=85 velocity=106 time=0
control_change channel=0 control=64 value=127 time=0
note_on channel=0 note=57 velocity=84 time=0
note_off channel=0 note=45 velocity=0 time=0
note_off channel=0 note=49 velocity=0 time=0
note_off channel=0 note=52 velocity=0 time=0
note_off channel=0 note=73 velocity=0 time=0.1526161875
note_off channel=0 note=85 velocity=0 time=0
note_off channel=0 note=57 velocity=0 time=0.06722379687499999
note_on channel=0 note=71 velocity=90 time=0.012718015624999999
note_on channel=0 note=83 velocity=90 time=0
control_change channel=0 control=64 value=0 time=0
note_on channel=0 note=57 velocity=81 time=0
note_off channel=0 note=71 velocity=0 time=0.1526161875
note_off channel=0 note=83 velocity=0 time=0
note_off channel=0 note=57 velocity=0 time=0.06722379687499999
note_on channel=0 note=69 velocity=90 time=0.012718015624999999
note_on channel=0 note=81 velocity=90 time=0
note_on channel=0 note=57 velocity=80 time=0
note_off channel=0 note=69 velocity=0 time=0.1526161875
note_off channel=0 note=81 velocity=0 time=0
note_off channel=0 note=57 velocity=0 time=0.06722379687499999
note_on channel=0 note=68 velocity=91 time=0.012718015624999999
note_on channel=0 note=80 velocity=91 time=0
note_on channel=0 note=57 velocity=80 time=0
note_off channel=0 note=57 velocity=0 time=0.09084296874999999
note_on channel=0 note=38 velocity=87 time=0
note_on channel=0 note=42 velocity=87 time=0.050872062499999995
note_off channel=0 note=68 velocity=0 time=0.010901156249999999
note_off channel=0 note=80 velocity=0 time=0
note_on channel=0 note=45 velocity=87 time=0.034520328125
note_on channel=0 note=66 velocity=90 time=0.045421484374999994
note_on channel=0 note=78 velocity=90 time=0
control_change channel=0 control=64 value=127 time=0
note_on channel=0 note=50 velocity=87 time=0
note_off channel=0 note=38 velocity=0 time=0
note_off channel=0 note=42 velocity=0 time=0
note_off channel=0 note=45 velocity=0 time=0
control_change channel=0 control=64 value=0 time=0.01816859375
note_off channel=0 note=66 velocity=0 time=0.13444759374999998
note_off channel=0 note=78 velocity=0 time=0
note_off channel=0 note=50 velocity=0 time=0.06722379687499999
note_on channel=0 note=71 velocity=110 time=0.012718015624999999
note_on channel=0 note=83 velocity=110 time=0
note_on channel=0 note=50 velocity=79 time=0
note_off channel=0 note=50 velocity=0 time=0.09084296874999999
note_on channel=0 note=40 velocity=86 time=0
control_change channel=0 control=64 value=127 time=0.009084296875
control_change channel=0 control=64 value=0 time=0.01816859375
note_on channel=0 note=44 velocity=86 time=0.023619171874999997
note_off channel=0 note=71 velocity=0 time=0.010901156249999999
note_off channel=0 note=83 velocity=0 time=0
note_on channel=0 note=47 velocity=86 time=0.034520328125
note_on channel=0 note=68 velocity=91 time=0.045421484374999994
note_on channel=0 note=80 velocity=91 time=0
note_on channel=0 note=52 velocity=86 time=0
note_off channel=0 note=40 velocity=0 time=0
note_off channel=0 note=44 velocity=0 time=0
note_off channel=0 note=47 velocity=0 time=0
note_off channel=0 note=68 velocity=0 time=0.1526161875
note_off channel=0 note=80 velocity=0 time=0
note_off channel=0 note=52 velocity=0 time=0.06722379687499999
note_on channel=0 note=64 velocity=82 time=0.012718015624999999
note_on channel=0 note=76 velocity=82 time=0
note_on channel=0 note=52 velocity=78 time=0
note_off channel=0 note=64 velocity=0 time=0.1526161875
note_off channel=0 note=76 velocity=0 time=0
note_off channel=0 note=52 velocity=0 time=0.06722379687499999
MetaMessage('time_signature', numerator=1, denominator=4, clocks_per_click=24, notated_32nd_notes_per_beat=8, time=0.012718015624999999)
note_on channel=0 note=69 velocity=122 time=0
note_on channel=0 note=81 velocity=122 time=0
note_on channel=0 note=45 velocity=74 time=0
note_off channel=0 note=69 velocity=0 time=0.43786310937499995
note_off channel=0 note=81 velocity=0 time=0
note_off channel=0 note=45 velocity=0 time=0
MetaMessage('set_tempo', tempo=480000, time=0.025436031249999998)
MetaMessage('set_tempo', tempo=465116, time=0.001875)
MetaMessage('time_signature', numerator=2, denominator=4, clocks_per_click=24, notated_32nd_notes_per_beat=8, time=0)
MetaMessage('time_signature', numerator=1, denominator=4, clocks_per_click=24, notated_32nd_notes_per_beat=8, time=0)
note_on channel=0 note=69 velocity=96 time=0
note_on channel=0 note=81 velocity=96 time=0
note_off channel=0 note=69 velocity=0 time=0.1526161875
note_off channel=0 note=81 velocity=0 time=0
note_on channel=0 note=71 velocity=99 time=0.0799418125
note_on channel=0 note=83 velocity=99 time=0
note_on channel=0 note=45 velocity=83 time=0.09811040624999999
note_on channel=0 note=49 velocity=83 time=0.043604624999999994
note_off channel=0 note=71 velocity=0 time=0.010901156249999999
note_off channel=0 note=83 velocity=0 time=0
note_on channel=0 note=52 velocity=83 time=0.034520328125
MetaMessage('time_signature', numerator=2, denominator=4, clocks_per_click=24, notated_32nd_notes_per_beat=8, time=0.045421484374999994)
note_on channel=0 note=73 velocity=124 time=0
note_on channel=0 note=85 velocity=124 time=0
control_change channel=0 control=64 value=127 time=0
note_on channel=0 note=57 velocity=83 time=0
note_off channel=0 note=45 velocity=0 time=0
note_off channel=0 note=49 velocity=0 time=0
note_off channel=0 note=52 velocity=0 time=0
note_off channel=0 note=57 velocity=0 time=0.219839984375
control_change channel=0 control=64 value=0 time=0.012718015624999999
note_on channel=0 note=57 velocity=81 time=0
note_off channel=0 note=73 velocity=0 time=0.205305109375
note_off channel=0 note=85 velocity=0 time=0
note_off channel=0 note=57 velocity=0 time=0.014534875
note_on channel=0 note=69 velocity=84 time=0.012718015624999999
note_on channel=0 note=81 velocity=84 time=0
note_on channel=0 note=57 velocity=78 time=0
note_off channel=0 note=69 velocity=0 time=0.1526161875
note_off channel=0 note=81 velocity=0 time=0
note_off channel=0 note=57 velocity=0 time=0.06722379687499999
note_on channel=0 note=71 velocity=98 time=0.012718015624999999
note_on channel=0 note=83 velocity=98 time=0
note_on channel=0 note=57 velocity=77 time=0
note_off channel=0 note=57 velocity=0 time=0.09811040624999999
note_on channel=0 note=45 velocity=83 time=0
note_on channel=0 note=49 velocity=83 time=0.043604624999999994
note_off channel=0 note=71 velocity=0 time=0.010901156249999999
note_off channel=0 note=83 velocity=0 time=0
note_on channel=0 note=52 velocity=83 time=0.034520328125
note_on channel=0 note=73 velocity=106 time=0.045421484374999994
note_on channel=0 note=85 velocity=106 time=0
control_change channel=0 control=64 value=127 time=0
note_on channel=0 note=57 velocity=83 time=0
note_off channel=0 note=45 velocity=0 time=0
note_off channel=0 note=49 velocity=0 time=0
note_off channel=0 note=52 velocity=0 time=0
note_off channel=0 note=73 velocity=0 time=0.1526161875
note_off channel=0 note=85 velocity=0 time=0
note_off channel=0 note=57 velocity=0 time=0.06722379687499999
note_on channel=0 note=71 velocity=91 time=0.012718015624999999
note_on channel=0 note=83 velocity=91 time=0
control_change channel=0 control=64 value=0 time=0
note_on channel=0 note=57 velocity=77 time=0
note_off channel=0 note=71 velocity=0 time=0.1526161875
note_off channel=0 note=83 velocity=0 time=0
note_off channel=0 note=57 velocity=0 time=0.06722379687499999
note_on channel=0 note=69 velocity=91 time=0.012718015624999999
note_on channel=0 note=81 velocity=91 time=0
note_on channel=0 note=57 velocity=79 time=0
note_off channel=0 note=69 velocity=0 time=0.1526161875
note_off channel=0 note=81 velocity=0 time=0
note_off channel=0 note=57 velocity=0 time=0.06722379687499999
note_on channel=0 note=68 velocity=91 time=0.012718015624999999
note_on channel=0 note=80 velocity=91 time=0
note_on channel=0 note=57 velocity=79 time=0
note_off channel=0 note=57 velocity=0 time=0.09084296874999999
note_on channel=0 note=38 velocity=81 time=0
note_on channel=0 note=42 velocity=81 time=0.050872062499999995
note_off channel=0 note=68 velocity=0 time=0.010901156249999999
note_off channel=0 note=80 velocity=0 time=0
note_on channel=0 note=45 velocity=81 time=0.034520328125
note_on channel=0 note=66 velocity=90 time=0.045421484374999994
note_on channel=0 note=78 velocity=90 time=0
control_change channel=0 control=64 value=127 time=0
note_on channel=0 note=50 velocity=81 time=0
note_off channel=0 note=38 velocity=0 time=0
note_off channel=0 note=42 velocity=0 time=0
note_off channel=0 note=45 velocity=0 time=0
control_change channel=0 control=64 value=0 time=0.01816859375
note_off channel=0 note=66 velocity=0 time=0.13444759374999998
note_off channel=0 note=78 velocity=0 time=0
note_off channel=0 note=50 velocity=0 time=0.06722379687499999
note_on channel=0 note=68 velocity=105 time=0.012718015624999999
note_on channel=0 note=80 velocity=105 time=0
note_on channel=0 note=50 velocity=83 time=0
note_off channel=0 note=50 velocity=0 time=0.050872062499999995
note_on channel=0 note=39 velocity=82 time=0
control_change channel=0 control=64 value=127 time=0.025436031249999998
control_change channel=0 control=64 value=0 time=0.01816859375
note_on channel=0 note=42 velocity=82 time=0.009084296875
note_on channel=0 note=45 velocity=82 time=0.045421484374999994
note_off channel=0 note=68 velocity=0 time=0.00363371875
note_off channel=0 note=80 velocity=0 time=0
note_on channel=0 note=69 velocity=104 time=0.0799418125
note_on channel=0 note=81 velocity=104 time=0
note_on channel=0 note=51 velocity=82 time=0
note_off channel=0 note=39 velocity=0 time=0
note_off channel=0 note=42 velocity=0 time=0
note_off channel=0 note=45 velocity=0 time=0
note_off channel=0 note=69 velocity=0 time=0.1526161875
note_off channel=0 note=81 velocity=0 time=0
note_off channel=0 note=51 velocity=0 time=0.06722379687499999
note_on channel=0 note=71 velocity=106 time=0.012718015624999999
note_on channel=0 note=83 velocity=106 time=0
note_on channel=0 note=51 velocity=78 time=0
note_off channel=0 note=51 velocity=0 time=0.09084296874999999
note_on channel=0 note=40 velocity=87 time=0
note_on channel=0 note=44 velocity=87 time=0.050872062499999995
note_off channel=0 note=71 velocity=0 time=0.010901156249999999
note_off channel=0 note=83 velocity=0 time=0
note_on channel=0 note=47 velocity=87 time=0.034520328125
note_on channel=0 note=68 velocity=90 time=0.045421484374999994
note_on channel=0 note=80 velocity=90 time=0
control_change channel=0 control=64 value=127 time=0
note_on channel=0 note=52 velocity=87 time=0
note_off channel=0 note=40 velocity=0 time=0
note_off channel=0 note=44 velocity=0 time=0
note_off channel=0 note=47 velocity=0 time=0
note_off channel=0 note=68 velocity=0 time=0.1526161875
note_off channel=0 note=80 velocity=0 time=0
note_off channel=0 note=52 velocity=0 time=0.06722379687499999
note_on channel=0 note=64 velocity=85 time=0.012718015624999999
note_on channel=0 note=76 velocity=85 time=0
control_change channel=0 control=64 value=0 time=0
note_on channel=0 note=52 velocity=80 time=0
note_off channel=0 note=64 velocity=0 time=0.1526161875
note_off channel=0 note=76 velocity=0 time=0
note_off channel=0 note=52 velocity=0 time=0.06722379687499999
note_on channel=0 note=69 velocity=106 time=0.012718015624999999
note_on channel=0 note=81 velocity=106 time=0
note_on channel=0 note=52 velocity=82 time=0
note_off channel=0 note=69 velocity=0 time=0.1526161875
note_off channel=0 note=81 velocity=0 time=0
note_off channel=0 note=52 velocity=0 time=0.06722379687499999
note_on channel=0 note=71 velocity=105 time=0.012718015624999999
note_on channel=0 note=83 velocity=105 time=0
note_on channel=0 note=52 velocity=83 time=0
note_off channel=0 note=52 velocity=0 time=0.09811040624999999
note_on channel=0 note=45 velocity=84 time=0
note_on channel=0 note=49 velocity=84 time=0.043604624999999994
note_off channel=0 note=71 velocity=0 time=0.010901156249999999
note_off channel=0 note=83 velocity=0 time=0
note_on channel=0 note=52 velocity=84 time=0.034520328125
note_on channel=0 note=73 velocity=125 time=0.045421484374999994
note_on channel=0 note=85 velocity=125 time=0
control_change channel=0 control=64 value=127 time=0
note_on channel=0 note=57 velocity=84 time=0
note_off channel=0 note=45 velocity=0 time=0
note_off channel=0 note=49 velocity=0 time=0
note_off channel=0 note=52 velocity=0 time=0
note_off channel=0 note=57 velocity=0 time=0.219839984375
control_change channel=0 control=64 value=0 time=0.012718015624999999
note_on channel=0 note=57 velocity=82 time=0
note_off channel=0 note=73 velocity=0 time=0.205305109375
note_off channel=0 note=85 velocity=0 time=0
note_off channel=0 note=57 velocity=0 time=0.014534875
note_on channel=0 note=69 velocity=88 time=0.012718015624999999
note_on channel=0 note=81 velocity=88 time=0
note_on channel=0 note=57 velocity=79 time=0
note_off channel=0 note=69 velocity=0 time=0.1526161875
note_off channel=0 note=81 velocity=0 time=0
note_off channel=0 note=57 velocity=0 time=0.06722379687499999
note_on channel=0 note=71 velocity=98 time=0.012718015624999999
note_on channel=0 note=83 velocity=98 time=0
note_on channel=0 note=57 velocity=83 time=0
note_off channel=0 note=57 velocity=0 time=0.09811040624999999
note_on channel=0 note=45 velocity=82 time=0
note_on channel=0 note=49 velocity=82 time=0.043604624999999994
note_off channel=0 note=71 velocity=0 time=0.010901156249999999
note_off channel=0 note=83 velocity=0 time=0
note_on channel=0 note=52 velocity=82 time=0.034520328125
note_on channel=0 note=73 velocity=102 time=0.045421484374999994
note_on channel=0 note=85 velocity=102 time=0
control_change channel=0 control=64 value=127 time=0
note_on channel=0 note=57 velocity=82 time=0
note_off channel=0 note=45 velocity=0 time=0
note_off channel=0 note=49 velocity=0 time=0
note_off channel=0 note=52 velocity=0 time=0
note_off channel=0 note=73 velocity=0 time=0.1526161875
note_off channel=0 note=85 velocity=0 time=0
note_off channel=0 note=57 velocity=0 time=0.06722379687499999
note_on channel=0 note=71 velocity=93 time=0.012718015624999999
note_on channel=0 note=83 velocity=93 time=0
control_change channel=0 control=64 value=0 time=0
note_on channel=0 note=57 velocity=79 time=0
note_off channel=0 note=71 velocity=0 time=0.1526161875
note_off channel=0 note=83 velocity=0 time=0
note_off channel=0 note=57 velocity=0 time=0.06722379687499999
note_on channel=0 note=69 velocity=87 time=0.012718015624999999
note_on channel=0 note=81 velocity=87 time=0
note_on channel=0 note=57 velocity=82 time=0
note_off channel=0 note=69 velocity=0 time=0.1526161875
note_off channel=0 note=81 velocity=0 time=0
note_off channel=0 note=57 velocity=0 time=0.06722379687499999
note_on channel=0 note=68 velocity=92 time=0.012718015624999999
note_on channel=0 note=80 velocity=92 time=0
note_on channel=0 note=57 velocity=78 time=0
note_off channel=0 note=57 velocity=0 time=0.09084296874999999
note_on channel=0 note=38 velocity=83 time=0
note_on channel=0 note=42 velocity=83 time=0.050872062499999995
note_off channel=0 note=68 velocity=0 time=0.010901156249999999
note_off channel=0 note=80 velocity=0 time=0
note_on channel=0 note=45 velocity=83 time=0.034520328125
note_on channel=0 note=66 velocity=92 time=0.045421484374999994
note_on channel=0 note=78 velocity=92 time=0
control_change channel=0 control=64 value=127 time=0
note_on channel=0 note=50 velocity=83 time=0
note_off channel=0 note=38 velocity=0 time=0
note_off channel=0 note=42 velocity=0 time=0
note_off channel=0 note=45 velocity=0 time=0
control_change channel=0 control=64 value=0 time=0.01816859375
note_off channel=0 note=66 velocity=0 time=0.13444759374999998
note_off channel=0 note=78 velocity=0 time=0
note_off channel=0 note=50 velocity=0 time=0.06722379687499999
note_on channel=0 note=71 velocity=111 time=0.012718015624999999
note_on channel=0 note=83 velocity=111 time=0
note_on channel=0 note=50 velocity=83 time=0
note_off channel=0 note=50 velocity=0 time=0.09084296874999999
note_on channel=0 note=40 velocity=87 time=0
control_change channel=0 control=64 value=127 time=0.009084296875
control_change channel=0 control=64 value=0 time=0.01816859375
note_on channel=0 note=44 velocity=87 time=0.023619171874999997
note_off channel=0 note=71 velocity=0 time=0.010901156249999999
note_off channel=0 note=83 velocity=0 time=0
note_on channel=0 note=47 velocity=87 time=0.034520328125
note_on channel=0 note=68 velocity=89 time=0.045421484374999994
note_on channel=0 note=80 velocity=89 time=0
note_on channel=0 note=52 velocity=87 time=0
note_off channel=0 note=40 velocity=0 time=0
note_off channel=0 note=44 velocity=0 time=0
note_off channel=0 note=47 velocity=0 time=0
note_off channel=0 note=68 velocity=0 time=0.1526161875
note_off channel=0 note=80 velocity=0 time=0
note_off channel=0 note=52 velocity=0 time=0.06722379687499999
note_on channel=0 note=64 velocity=83 time=0.012718015624999999
note_on channel=0 note=76 velocity=83 time=0
note_on channel=0 note=52 velocity=83 time=0
note_off channel=0 note=64 velocity=0 time=0.1526161875
note_off channel=0 note=76 velocity=0 time=0
note_off channel=0 note=52 velocity=0 time=0.06722379687499999
MetaMessage('time_signature', numerator=1, denominator=4, clocks_per_click=24, notated_32nd_notes_per_beat=8, time=0.012718015624999999)
note_on channel=0 note=69 velocity=118 time=0
note_on channel=0 note=81 velocity=118 time=0
note_on channel=0 note=45 velocity=70 time=0
note_off channel=0 note=69 velocity=0 time=0.43786310937499995
note_off channel=0 note=81 velocity=0 time=0
note_off channel=0 note=45 velocity=0 time=0
MetaMessage('set_tempo', tempo=480000, time=0.025436031249999998)
note_on channel=0 note=85 velocity=68 time=0.001875
note_on channel=0 note=86 velocity=77 time=0.12
note_off channel=0 note=85 velocity=0 time=0.001875
note_on channel=0 note=85 velocity=62 time=0.118125
note_off channel=0 note=86 velocity=0 time=0.001875
note_on channel=0 note=83 velocity=61 time=0.118125
note_off channel=0 note=85 velocity=0 time=0.001875
MetaMessage('time_signature', numerator=2, denominator=4, clocks_per_click=24, notated_32nd_notes_per_beat=8, time=0.118125)
note_on channel=0 note=81 velocity=58 time=0
note_on channel=0 note=54 velocity=43 time=0
note_off channel=0 note=83 velocity=0 time=0.001875
MetaMessage('set_tempo', tempo=465116, time=0.118125)
note_on channel=0 note=83 velocity=66 time=0
note_off channel=0 note=81 velocity=0 time=0.001816859375
note_off channel=0 note=54 velocity=0 time=0.10174412499999999
note_on channel=0 note=81 velocity=64 time=0.012718015624999999
note_on channel=0 note=57 velocity=59 time=0
note_on channel=0 note=61 velocity=59 time=0
note_off channel=0 note=83 velocity=0 time=0.001816859375
note_on channel=0 note=80 velocity=63 time=0.114462140625
note_off channel=0 note=81 velocity=0 time=0.001816859375
note_off channel=0 note=57 velocity=0 time=0.10174412499999999
note_off channel=0 note=61 velocity=0 time=0
note_on channel=0 note=78 velocity=55 time=0.012718015624999999
note_on channel=0 note=57 velocity=53 time=0
note_on channel=0 note=61 velocity=53 time=0
note_off channel=0 note=80 velocity=0 time=0.001816859375
note_on channel=0 note=81 velocity=63 time=0.114462140625
note_off channel=0 note=78 velocity=0 time=0.001816859375
note_off channel=0 note=57 velocity=0 time=0.10174412499999999
note_off channel=0 note=61 velocity=0 time=0
note_on channel=0 note=80 velocity=59 time=0.012718015624999999
note_on channel=0 note=57 velocity=50 time=0
note_on channel=0 note=61 velocity=50 time=0
note_off channel=0 note=81 velocity=0 time=0.001816859375
note_on channel=0 note=78 velocity=53 time=0.114462140625
note_off channel=0 note=80 velocity=0 time=0.001816859375
note_off channel=0 note=57 velocity=0 time=0.10174412499999999
note_off channel=0 note=61 velocity=0 time=0
note_on channel=0 note=77 velocity=64 time=0.012718015624999999
note_on channel=0 note=56 velocity=47 time=0
note_off channel=0 note=78 velocity=0 time=0.001816859375
note_on channel=0 note=78 velocity=69 time=0.114462140625
note_off channel=0 note=77 velocity=0 time=0.001816859375
note_off channel=0 note=56 velocity=0 time=0.10174412499999999
note_on channel=0 note=80 velocity=64 time=0.012718015624999999
note_on channel=0 note=59 velocity=58 time=0
note_on channel=0 note=61 velocity=58 time=0
note_off channel=0 note=78 velocity=0 time=0.001816859375
note_on channel=0 note=77 velocity=65 time=0.114462140625
note_off channel=0 note=80 velocity=0 time=0.001816859375
note_off channel=0 note=59 velocity=0 time=0.10174412499999999
note_off channel=0 note=61 velocity=0 time=0
note_on channel=0 note=73 velocity=58 time=0.012718015624999999
note_on channel=0 note=59 velocity=51 time=0
note_on channel=0 note=61 velocity=51 time=0
note_off channel=0 note=77 velocity=0 time=0.001816859375
note_off channel=0 note=73 velocity=0 time=0.114462140625
note_on channel=0 note=75 velocity=66 time=0
note_off channel=0 note=59 velocity=0 time=0.103560984375
note_off channel=0 note=61 velocity=0 time=0
note_on channel=0 note=77 velocity=73 time=0.012718015624999999
note_on channel=0 note=59 velocity=53 time=0
note_on channel=0 note=61 velocity=53 time=0
note_off channel=0 note=75 velocity=0 time=0.001816859375
note_on channel=0 note=73 velocity=54 time=0.114462140625
note_off channel=0 note=77 velocity=0 time=0.001816859375
note_off channel=0 note=59 velocity=0 time=0.10174412499999999
note_off channel=0 note=61 velocity=0 time=0
note_on channel=0 note=78 velocity=55 time=0.012718015624999999
note_on channel=0 note=54 velocity=43 time=0
note_off channel=0 note=73 velocity=0 time=0.001816859375
note_on channel=0 note=77 velocity=62 time=0.114462140625
note_off channel=0 note=78 velocity=0 time=0.001816859375
note_off channel=0 note=54 velocity=0 time=0.10174412499999999
note_on channel=0 note=78 velocity=65 time=0.012718015624999999
note_on channel=0 note=57 velocity=52 time=0
note_on channel=0 note=61 velocity=52 time=0
note_off channel=0 note=77 velocity=0 time=0.001816859375
note_on channel=0 note=80 velocity=64 time=0.114462140625
note_off channel=0 note=78 velocity=0 time=0.001816859375
note_off channel=0 note=57 velocity=0 time=0.10174412499999999
note_off channel=0 note=61 velocity=0 time=0
note_on channel=0 note=81 velocity=69 time=0.012718015624999999
note_on channel=0 note=57 velocity=48 time=0
note_on channel=0 note=61 velocity=48 time=0
note_off channel=0 note=80 velocity=0 time=0.001816859375
note_on channel=0 note=80 velocity=60 time=0.114462140625
note_off channel=0 note=81 velocity=0 time=0.001816859375
note_off channel=0 note=57 velocity=0 time=0.10174412499999999
note_off channel=0 note=61 velocity=0 time=0
MetaMessage('set_tempo', tempo=472440, time=0.012718015624999999)
note_on channel=0 note=81 velocity=71 time=0
note_on channel=0 note=57 velocity=49 time=0
note_on channel=0 note=61 velocity=49 time=0
note_off channel=0 note=80 velocity=0 time=0.0018454687499999999
note_on channel=0 note=83 velocity=76 time=0.11626453125
note_off channel=0 note=81 velocity=0 time=0.0018454687499999999
note_off channel=0 note=57 velocity=0 time=0.10334625
note_off channel=0 note=61 velocity=0 time=0
note_on channel=0 note=85 velocity=77 time=0.01291828125
note_on channel=0 note=53 velocity=42 time=0
note_off channel=0 note=83 velocity=0 time=0.0018454687499999999
note_on channel=0 note=84 velocity=70 time=0.11626453125
note_off channel=0 note=85 velocity=0 time=0.0018454687499999999
note_off channel=0 note=53 velocity=0 time=0.10334625
note_on channel=0 note=85 velocity=78 time=0.01291828125
note_on channel=0 note=56 velocity=54 time=0
note_on channel=0 note=61 velocity=54 time=0
note_off channel=0 note=84 velocity=0 time=0.0018454687499999999
note_on channel=0 note=84 velocity=70 time=0.11626453125
note_off channel=0 note=85 velocity=0 time=0.0018454687499999999
note_off channel=0 note=56 velocity=0 time=0.10334625
note_off channel=0 note=61 velocity=0 time=0
note_on channel=0 note=85 velocity=75 time=0.01291828125
note_on channel=0 note=56 velocity=47 time=0
note_on channel=0 note=61 velocity=47 time=0
note_off channel=0 note=84 velocity=0 time=0.0018454687499999999
note_off channel=0 note=85 velocity=0 time=0.11626453125
note_on channel=0 note=86 velocity=82 time=0
note_off channel=0 note=56 velocity=0 time=0.10519171875
note_off channel=0 note=61 velocity=0 time=0
note_on channel=0 note=85 velocity=78 time=0.01291828125
note_on channel=0 note=56 velocity=48 time=0
note_on channel=0 note=61 velocity=48 time=0
note_off channel=0 note=86 velocity=0 time=0.0018454687499999999
note_on channel=0 note=83 velocity=75 time=0.11626453125
note_off channel=0 note=85 velocity=0 time=0.0018454687499999999
note_off channel=0 note=56 velocity=0 time=0.10334625
note_off channel=0 note=61 velocity=0 time=0
note_on channel=0 note=81 velocity=69 time=0.01291828125
note_on channel=0 note=54 velocity=45 time=0
note_off channel=0 note=83 velocity=0 time=0.0018454687499999999
note_on channel=0 note=83 velocity=82 time=0.11626453125
note_off channel=0 note=81 velocity=0 time=0.0018454687499999999
note_off channel=0 note=54 velocity=0 time=0.10334625
note_on channel=0 note=81 velocity=70 time=0.01291828125
note_on channel=0 note=57 velocity=57 time=0
note_on channel=0 note=61 velocity=57 time=0
note_off channel=0 note=83 velocity=0 time=0.0018454687499999999
note_on channel=0 note=80 velocity=69 time=0.11626453125
note_off channel=0 note=81 velocity=0 time=0.0018454687499999999
note_off channel=0 note=57 velocity=0 time=0.10334625
note_off channel=0 note=61 velocity=0 time=0
note_on channel=0 note=78 velocity=67 time=0.01291828125
note_on channel=0 note=57 velocity=49 time=0
note_on channel=0 note=61 velocity=49 time=0
note_off channel=0 note=80 velocity=0 time=0.0018454687499999999
note_on channel=0 note=81 velocity=69 time=0.11626453125
note_off channel=0 note=78 velocity=0 time=0.0018454687499999999
note_off channel=0 note=57 velocity=0 time=0.10334625
note_off channel=0 note=61 velocity=0 time=0
note_on channel=0 note=80 velocity=60 time=0.01291828125
note_on channel=0 note=57 velocity=47 time=0
note_on channel=0 note=61 velocity=47 time=0
note_off channel=0 note=81 velocity=0 time=0.0018454687499999999
note_on channel=0 note=78 velocity=57 time=0.11626453125
note_off channel=0 note=80 velocity=0 time=0.0018454687499999999
note_off channel=0 note=57 velocity=0 time=0.10334625
note_off channel=0 note=61 velocity=0 time=0
note_on channel=0 note=76 velocity=56 time=0.01291828125
note_on channel=0 note=56 velocity=44 time=0
note_off channel=0 note=78 velocity=0 time=0.0018454687499999999
note_on channel=0 note=78 velocity=58 time=0.11626453125
note_off channel=0 note=76 velocity=0 time=0.0018454687499999999
note_off channel=0 note=56 velocity=0 time=0.10334625
note_on channel=0 note=80 velocity=65 time=0.01291828125
note_on channel=0 note=61 velocity=55 time=0
note_on channel=0 note=64 velocity=55 time=0
note_off channel=0 note=78 velocity=0 time=0.0018454687499999999
note_on channel=0 note=76 velocity=56 time=0.11626453125
note_off channel=0 note=80 velocity=0 time=0.0018454687499999999
note_off channel=0 note=61 velocity=0 time=0.10334625
note_off channel=0 note=64 velocity=0 time=0
note_on channel=0 note=73 velocity=56 time=0.01291828125
note_on channel=0 note=61 velocity=50 time=0
note_on channel=0 note=64 velocity=50 time=0
note_off channel=0 note=76 velocity=0 time=0.0018454687499999999
note_off channel=0 note=73 velocity=0 time=0.11626453125
note_on channel=0 note=75 velocity=65 time=0
note_off channel=0 note=61 velocity=0 time=0.10519171875
note_off channel=0 note=64 velocity=0 time=0
note_on channel=0 note=76 velocity=73 time=0.01291828125
note_on channel=0 note=61 velocity=47 time=0
note_on channel=0 note=64 velocity=47 time=0
note_off channel=0 note=75 velocity=0 time=0.0018454687499999999
note_on channel=0 note=73 velocity=61 time=0.11626453125
note_off channel=0 note=76 velocity=0 time=0.0018454687499999999
note_off channel=0 note=61 velocity=0 time=0.10334625
note_off channel=0 note=64 velocity=0 time=0
note_on channel=0 note=75 velocity=65 time=0.01291828125
note_on channel=0 note=56 velocity=42 time=0
note_off channel=0 note=73 velocity=0 time=0.0018454687499999999
note_on channel=0 note=76 velocity=70 time=0.11626453125
note_off channel=0 note=75 velocity=0 time=0.0018454687499999999
note_off channel=0 note=56 velocity=0 time=0.10334625
note_on channel=0 note=78 velocity=73 time=0.01291828125
note_on channel=0 note=63 velocity=60 time=0
note_on channel=0 note=66 velocity=60 time=0
note_off channel=0 note=76 velocity=0 time=0.0018454687499999999
MetaMessage('set_tempo', tempo=476189, time=0.11626453125)
note_on channel=0 note=75 velocity=60 time=0
note_off channel=0 note=78 velocity=0 time=0.00186011328125
note_off channel=0 note=63 velocity=0 time=0.10416634375
note_off channel=0 note=66 velocity=0 time=0
note_on channel=0 note=72 velocity=56 time=0.01302079296875
note_on channel=0 note=63 velocity=51 time=0
note_on channel=0 note=66 velocity=51 time=0
note_off channel=0 note=75 velocity=0 time=0.00186011328125
note_on channel=0 note=73 velocity=69 time=0.11718713671874999
note_off channel=0 note=72 velocity=0 time=0.00186011328125
note_off channel=0 note=63 velocity=0 time=0.10416634375
note_off channel=0 note=66 velocity=0 time=0
note_on channel=0 note=75 velocity=74 time=0.01302079296875
note_on channel=0 note=63 velocity=51 time=0
note_on channel=0 note=66 velocity=51 time=0
note_off channel=0 note=73 velocity=0 time=0.00186011328125
note_on channel=0 note=72 velocity=57 time=0.11718713671874999
note_off channel=0 note=75 velocity=0 time=0.00186011328125
note_off channel=0 note=63 velocity=0 time=0.10416634375
note_off channel=0 note=66 velocity=0 time=0
MetaMessage('time_signature', numerator=1, denominator=4, clocks_per_click=24, notated_32nd_notes_per_beat=8, time=0.01302079296875)
note_on channel=0 note=73 velocity=62 time=0
note_on channel=0 note=61 velocity=45 time=0
note_on channel=0 note=64 velocity=45 time=0
note_off channel=0 note=72 velocity=0 time=0.00186011328125
note_off channel=0 note=61 velocity=0 time=0.4464271875
note_off channel=0 note=64 velocity=0 time=0
note_off channel=0 note=73 velocity=0 time=0.0037202265625
MetaMessage('time_signature', numerator=2, denominator=4, clocks_per_click=24, notated_32nd_notes_per_beat=8, time=0.024181472656249998)
MetaMessage('time_signature', numerator=1, denominator=4, clocks_per_click=24, notated_32nd_notes_per_beat=8, time=0)
note_on channel=0 note=85 velocity=79 time=0
note_on channel=0 note=86 velocity=87 time=0.11904725
note_off channel=0 note=85 velocity=0 time=0.00186011328125
note_on channel=0 note=85 velocity=60 time=0.11718713671874999
note_off channel=0 note=86 velocity=0 time=0.00186011328125
note_on channel=0 note=83 velocity=59 time=0.11718713671874999
note_off channel=0 note=85 velocity=0 time=0.00186011328125
MetaMessage('time_signature', numerator=2, denominator=4, clocks_per_click=24, notated_32nd_notes_per_beat=8, time=0.11718713671874999)
note_on channel=0 note=81 velocity=60 time=0
note_on channel=0 note=54 velocity=43 time=0
note_off channel=0 note=83 velocity=0 time=0.00186011328125
MetaMessage('set_tempo', tempo=465116, time=0.11718713671874999)
note_on channel=0 note=83 velocity=64 time=0
note_off channel=0 note=81 velocity=0 time=0.001816859375
note_off channel=0 note=54 velocity=0 time=0.10174412499999999
note_on channel=0 note=81 velocity=57 time=0.012718015624999999
note_on channel=0 note=57 velocity=55 time=0
note_on channel=0 note=61 velocity=55 time=0
note_off channel=0 note=83 velocity=0 time=0.001816859375
note_on channel=0 note=80 velocity=51 time=0.114462140625
note_off channel=0 note=81 velocity=0 time=0.001816859375
note_off channel=0 note=57 velocity=0 time=0.10174412499999999
note_off channel=0 note=61 velocity=0 time=0
note_on channel=0 note=78 velocity=60 time=0.012718015624999999
note_on channel=0 note=57 velocity=51 time=0
note_on channel=0 note=61 velocity=51 time=0
note_off channel=0 note=80 velocity=0 time=0.001816859375
note_on channel=0 note=81 velocity=67 time=0.114462140625
note_off channel=0 note=78 velocity=0 time=0.001816859375
note_off channel=0 note=57 velocity=0 time=0.10174412499999999
note_off channel=0 note=61 velocity=0 time=0
note_on channel=0 note=80 velocity=63 time=0.012718015624999999
note_on channel=0 note=57 velocity=49 time=0
note_on channel=0 note=61 velocity=49 time=0
note_off channel=0 note=81 velocity=0 time=0.001816859375
note_on channel=0 note=78 velocity=55 time=0.114462140625
note_off channel=0 note=80 velocity=0 time=0.001816859375
note_off channel=0 note=57 velocity=0 time=0.10174412499999999
note_off channel=0 note=61 velocity=0 time=0
note_on channel=0 note=77 velocity=57 time=0.012718015624999999
note_on channel=0 note=56 velocity=48 time=0
note_off channel=0 note=78 velocity=0 time=0.001816859375
note_on channel=0 note=78 velocity=58 time=0.114462140625
note_off channel=0 note=77 velocity=0 time=0.001816859375
note_off channel=0 note=56 velocity=0 time=0.10174412499999999
note_on channel=0 note=80 velocity=69 time=0.012718015624999999
note_on channel=0 note=59 velocity=51 time=0
note_on channel=0 note=61 velocity=51 time=0
note_off channel=0 note=78 velocity=0 time=0.001816859375
note_on channel=0 note=77 velocity=66 time=0.114462140625
note_off channel=0 note=80 velocity=0 time=0.001816859375
note_off channel=0 note=59 velocity=0 time=0.10174412499999999
note_off channel=0 note=61 velocity=0 time=0
note_on channel=0 note=73 velocity=56 time=0.012718015624999999
note_on channel=0 note=59 velocity=47 time=0
note_on channel=0 note=61 velocity=47 time=0
note_off channel=0 note=77 velocity=0 time=0.001816859375
note_off channel=0 note=73 velocity=0 time=0.114462140625
note_on channel=0 note=75 velocity=68 time=0
note_off channel=0 note=59 velocity=0 time=0.103560984375
note_off channel=0 note=61 velocity=0 time=0
note_on channel=0 note=77 velocity=72 time=0.012718015624999999
note_on channel=0 note=59 velocity=52 time=0
note_on channel=0 note=61 velocity=52 time=0
note_off channel=0 note=75 velocity=0 time=0.001816859375
note_on channel=0 note=73 velocity=57 time=0.114462140625
note_off channel=0 note=77 velocity=0 time=0.001816859375
note_off channel=0 note=59 velocity=0 time=0.10174412499999999
note_off channel=0 note=61 velocity=0 time=0
note_on channel=0 note=78 velocity=66 time=0.012718015624999999
note_on channel=0 note=54 velocity=41 time=0
note_off channel=0 note=73 velocity=0 time=0.001816859375
note_on channel=0 note=77 velocity=62 time=0.114462140625
note_off channel=0 note=78 velocity=0 time=0.001816859375
note_off channel=0 note=54 velocity=0 time=0.10174412499999999
note_on channel=0 note=78 velocity=68 time=0.012718015624999999
note_on channel=0 note=57 velocity=59 time=0
note_on channel=0 note=61 velocity=59 time=0
note_off channel=0 note=77 velocity=0 time=0.001816859375
note_on channel=0 note=80 velocity=69 time=0.114462140625
note_off channel=0 note=78 velocity=0 time=0.001816859375
note_off channel=0 note=57 velocity=0 time=0.10174412499999999
note_off channel=0 note=61 velocity=0 time=0
note_on channel=0 note=81 velocity=65 time=0.012718015624999999
note_on channel=0 note=57 velocity=47 time=0
note_on channel=0 note=61 velocity=47 time=0
note_off channel=0 note=80 velocity=0 time=0.001816859375
note_on channel=0 note=80 velocity=61 time=0.114462140625
note_off channel=0 note=81 velocity=0 time=0.001816859375
note_off channel=0 note=57 velocity=0 time=0.10174412499999999
note_off channel=0 note=61 velocity=0 time=0
MetaMessage('set_tempo', tempo=472440, time=0.012718015624999999)
note_on channel=0 note=81 velocity=68 time=0
note_on channel=0 note=57 velocity=48 time=0
note_on channel=0 note=61 velocity=48 time=0
note_off channel=0 note=80 velocity=0 time=0.0018454687499999999
note_on channel=0 note=83 velocity=77 time=0.11626453125
note_off channel=0 note=81 velocity=0 time=0.0018454687499999999
note_off channel=0 note=57 velocity=0 time=0.10334625
note_off channel=0 note=61 velocity=0 time=0
note_on channel=0 note=85 velocity=81 time=0.01291828125
note_on channel=0 note=53 velocity=47 time=0
note_off channel=0 note=83 velocity=0 time=0.0018454687499999999
note_on channel=0 note=84 velocity=78 time=0.11626453125
note_off channel=0 note=85 velocity=0 time=0.0018454687499999999
note_off channel=0 note=53 velocity=0 time=0.10334625
note_on channel=0 note=85 velocity=84 time=0.01291828125
note_on channel=0 note=56 velocity=60 time=0
note_on channel=0 note=61 velocity=60 time=0
note_off channel=0 note=84 velocity=0 time=0.0018454687499999999
note_on channel=0 note=84 velocity=81 time=0.11626453125
note_off channel=0 note=85 velocity=0 time=0.0018454687499999999
note_off channel=0 note=56 velocity=0 time=0.10334625
note_off channel=0 note=61 velocity=0 time=0
note_on channel=0 note=85 velocity=84 time=0.01291828125
note_on channel=0 note=56 velocity=49 time=0
note_on channel=0 note=61 velocity=49 time=0
note_off channel=0 note=84 velocity=0 time=0.0018454687499999999
note_off channel=0 note=85 velocity=0 time=0.11626453125
note_on channel=0 note=86 velocity=82 time=0
note_off channel=0 note=56 velocity=0 time=0.10519171875
note_off channel=0 note=61 velocity=0 time=0
note_on channel=0 note=85 velocity=79 time=0.01291828125
note_on channel=0 note=56 velocity=46 time=0
note_on channel=0 note=61 velocity=46 time=0
note_off channel=0 note=86 velocity=0 time=0.0018454687499999999
note_on channel=0 note=83 velocity=77 time=0.11626453125
note_off channel=0 note=85 velocity=0 time=0.0018454687499999999
note_off channel=0 note=56 velocity=0 time=0.10334625
note_off channel=0 note=61 velocity=0 time=0
note_on channel=0 note=81 velocity=72 time=0.01291828125
note_on channel=0 note=54 velocity=44 time=0
note_off channel=0 note=83 velocity=0 time=0.0018454687499999999
note_on channel=0 note=83 velocity=86 time=0.11626453125
note_off channel=0 note=81 velocity=0 time=0.0018454687499999999
note_off channel=0 note=54 velocity=0 time=0.10334625
note_on channel=0 note=81 velocity=69 time=0.01291828125
note_on channel=0 note=57 velocity=56 time=0
note_on channel=0 note=61 velocity=56 time=0
note_off channel=0 note=83 velocity=0 time=0.0018454687499999999
note_on channel=0 note=80 velocity=63 time=0.11626453125
note_off channel=0 note=81 velocity=0 time=0.0018454687499999999
note_off channel=0 note=57 velocity=0 time=0.10334625
note_off channel=0 note=61 velocity=0 time=0
note_on channel=0 note=78 velocity=65 time=0.01291828125
note_on channel=0 note=57 velocity=48 time=0
note_on channel=0 note=61 velocity=48 time=0
note_off channel=0 note=80 velocity=0 time=0.0018454687499999999
note_on channel=0 note=81 velocity=69 time=0.11626453125
note_off channel=0 note=78 velocity=0 time=0.0018454687499999999
note_off channel=0 note=57 velocity=0 time=0.10334625
note_off channel=0 note=61 velocity=0 time=0
note_on channel=0 note=80 velocity=61 time=0.01291828125
note_on channel=0 note=57 velocity=48 time=0
note_on channel=0 note=61 velocity=48 time=0
note_off channel=0 note=81 velocity=0 time=0.0018454687499999999
note_on channel=0 note=78 velocity=63 time=0.11626453125
note_off channel=0 note=80 velocity=0 time=0.0018454687499999999
note_off channel=0 note=57 velocity=0 time=0.10334625
note_off channel=0 note=61 velocity=0 time=0
note_on channel=0 note=76 velocity=65 time=0.01291828125
note_on channel=0 note=56 velocity=44 time=0
note_off channel=0 note=78 velocity=0 time=0.0018454687499999999
note_on channel=0 note=78 velocity=71 time=0.11626453125
note_off channel=0 note=76 velocity=0 time=0.0018454687499999999
note_off channel=0 note=56 velocity=0 time=0.10334625
note_on channel=0 note=80 velocity=64 time=0.01291828125
note_on channel=0 note=61 velocity=57 time=0
note_on channel=0 note=64 velocity=57 time=0
note_off channel=0 note=78 velocity=0 time=0.0018454687499999999
note_on channel=0 note=76 velocity=58 time=0.11626453125
note_off channel=0 note=80 velocity=0 time=0.0018454687499999999
note_off channel=0 note=61 velocity=0 time=0.10334625
note_off channel=0 note=64 velocity=0 time=0
note_on channel=0 note=73 velocity=58 time=0.01291828125
note_on channel=0 note=61 velocity=51 time=0
note_on channel=0 note=64 velocity=51 time=0
note_off channel=0 note=76 velocity=0 time=0.0018454687499999999
note_off channel=0 note=73 velocity=0 time=0.11626453125
note_on channel=0 note=75 velocity=67 time=0
note_off channel=0 note=61 velocity=0 time=0.10519171875
note_off channel=0 note=64 velocity=0 time=0
note_on channel=0 note=76 velocity=69 time=0.01291828125
note_on channel=0 note=61 velocity=52 time=0
note_on channel=0 note=64 velocity=52 time=0
note_off channel=0 note=75 velocity=0 time=0.0018454687499999999
note_on channel=0 note=73 velocity=61 time=0.11626453125
note_off channel=0 note=76 velocity=0 time=0.0018454687499999999
note_off channel=0 note=61 velocity=0 time=0.10334625
note_off channel=0 note=64 velocity=0 time=0
note_on channel=0 note=75 velocity=62 time=0.01291828125
note_on channel=0 note=56 velocity=43 time=0
note_off channel=0 note=73 velocity=0 time=0.0018454687499999999
note_on channel=0 note=76 velocity=65 time=0.11626453125
note_off channel=0 note=75 velocity=0 time=0.0018454687499999999
note_off channel=0 note=56 velocity=0 time=0.10334625
note_on channel=0 note=78 velocity=68 time=0.01291828125
note_on channel=0 note=63 velocity=62 time=0
note_on channel=0 note=66 velocity=62 time=0
note_off channel=0 note=76 velocity=0 time=0.0018454687499999999
MetaMessage('set_tempo', tempo=476189, time=0.11626453125)
note_on channel=0 note=75 velocity=59 time=0
note_off channel=0 note=78 velocity=0 time=0.00186011328125
note_off channel=0 note=63 velocity=0 time=0.10416634375
note_off channel=0 note=66 velocity=0 time=0
note_on channel=0 note=72 velocity=50 time=0.01302079296875
note_on channel=0 note=63 velocity=51 time=0
note_on channel=0 note=66 velocity=51 time=0
note_off channel=0 note=75 velocity=0 time=0.00186011328125
note_on channel=0 note=73 velocity=63 time=0.11718713671874999
note_off channel=0 note=72 velocity=0 time=0.00186011328125
note_off channel=0 note=63 velocity=0 time=0.10416634375
note_off channel=0 note=66 velocity=0 time=0
note_on channel=0 note=75 velocity=67 time=0.01302079296875
note_on channel=0 note=63 velocity=52 time=0
note_on channel=0 note=66 velocity=52 time=0
note_off channel=0 note=73 velocity=0 time=0.00186011328125
note_on channel=0 note=72 velocity=54 time=0.11718713671874999
note_off channel=0 note=75 velocity=0 time=0.00186011328125
note_off channel=0 note=63 velocity=0 time=0.10416634375
note_off channel=0 note=66 velocity=0 time=0
MetaMessage('time_signature', numerator=1, denominator=4, clocks_per_click=24, notated_32nd_notes_per_beat=8, time=0.01302079296875)
note_on channel=0 note=73 velocity=55 time=0
note_on channel=0 note=61 velocity=43 time=0
note_on channel=0 note=64 velocity=43 time=0
note_off channel=0 note=72 velocity=0 time=0.00186011328125
note_off channel=0 note=61 velocity=0 time=0.4464271875
note_off channel=0 note=64 velocity=0 time=0
note_off channel=0 note=73 velocity=0 time=0.0037202265625
note_on channel=0 note=76 velocity=104 time=0.024181472656249998
note_on channel=0 note=74 velocity=98 time=0.11904725
note_off channel=0 note=76 velocity=0 time=0.00186011328125
note_on channel=0 note=73 velocity=92 time=0.11718713671874999
note_off channel=0 note=74 velocity=0 time=0.00186011328125
note_on channel=0 note=71 velocity=82 time=0.11718713671874999
note_off channel=0 note=73 velocity=0 time=0.00186011328125
MetaMessage('time_signature', numerator=2, denominator=4, clocks_per_click=24, notated_32nd_notes_per_beat=8, time=0.11718713671874999)
note_on channel=0 note=69 velocity=92 time=0
note_on channel=0 note=57 velocity=72 time=0
note_off channel=0 note=71 velocity=0 time=0.00186011328125
note_on channel=0 note=71 velocity=100 time=0.11718713671874999
note_off channel=0 note=69 velocity=0 time=0.00186011328125
note_off channel=0 note=57 velocity=0 time=0.10416634375
note_on channel=0 note=73 velocity=105 time=0.01302079296875
note_on channel=0 note=61 velocity=94 time=0
note_on channel=0 note=64 velocity=94 time=0
note_off channel=0 note=71 velocity=0 time=0.00186011328125
note_on channel=0 note=74 velocity=111 time=0.11718713671874999
note_off channel=0 note=73 velocity=0 time=0.00186011328125
note_off channel=0 note=61 velocity=0 time=0.10416634375
note_off channel=0 note=64 velocity=0 time=0
note_on channel=0 note=76 velocity=100 time=0.01302079296875
note_on channel=0 note=61 velocity=81 time=0
note_on channel=0 note=64 velocity=81 time=0
note_off channel=0 note=74 velocity=0 time=0.00186011328125
note_on channel=0 note=78 velocity=105 time=0.11718713671874999
note_off channel=0 note=76 velocity=0 time=0.00186011328125
note_off channel=0 note=61 velocity=0 time=0.10416634375
note_off channel=0 note=64 velocity=0 time=0
note_on channel=0 note=80 velocity=106 time=0.01302079296875
note_on channel=0 note=61 velocity=79 time=0
note_on channel=0 note=64 velocity=79 time=0
note_off channel=0 note=78 velocity=0 time=0.00186011328125
note_on channel=0 note=81 velocity=112 time=0.11718713671874999
note_off channel=0 note=80 velocity=0 time=0.00186011328125
note_off channel=0 note=61 velocity=0 time=0.10416634375
note_off channel=0 note=64 velocity=0 time=0
note_off channel=0 note=81 velocity=0 time=0.01302079296875
note_on channel=0 note=81 velocity=92 time=0
note_on channel=0 note=59 velocity=81 time=0
note_on channel=0 note=80 velocity=86 time=0.11904725
note_off channel=0 note=81 velocity=0 time=0.00186011328125
note_off channel=0 note=59 velocity=0 time=0.10416634375
note_on channel=0 note=78 velocity=92 time=0.01302079296875
note_on channel=0 note=62 velocity=86 time=0
note_on channel=0 note=64 velocity=86 time=0
note_off channel=0 note=80 velocity=0 time=0.00186011328125
note_on channel=0 note=76 velocity=85 time=0.11718713671874999
note_off channel=0 note=78 velocity=0 time=0.00186011328125
note_off channel=0 note=62 velocity=0 time=0.10416634375
note_off channel=0 note=64 velocity=0 time=0
note_off channel=0 note=76 velocity=0 time=0.00558033984375
note_on channel=0 note=76 velocity=96 time=0.007440453125
note_on channel=0 note=56 velocity=77 time=0
note_on channel=0 note=74 velocity=96 time=0.11904725
note_off channel=0 note=76 velocity=0 time=0.00186011328125
note_off channel=0 note=56 velocity=0 time=0.10416634375
note_on channel=0 note=73 velocity=92 time=0.01302079296875
note_on channel=0 note=62 velocity=89 time=0
note_on channel=0 note=64 velocity=89 time=0
note_off channel=0 note=74 velocity=0 time=0.00186011328125
note_on channel=0 note=71 velocity=85 time=0.11718713671874999
note_off channel=0 note=73 velocity=0 time=0.00186011328125
note_off channel=0 note=62 velocity=0 time=0.10416634375
note_off channel=0 note=64 velocity=0 time=0
note_on channel=0 note=69 velocity=89 time=0.01302079296875
note_on channel=0 note=57 velocity=76 time=0
note_off channel=0 note=71 velocity=0 time=0.00186011328125
note_on channel=0 note=71 velocity=92 time=0.11718713671874999
note_off channel=0 note=69 velocity=0 time=0.00186011328125
note_off channel=0 note=57 velocity=0 time=0.10416634375
note_on channel=0 note=73 velocity=106 time=0.01302079296875
note_on channel=0 note=61 velocity=90 time=0
note_on channel=0 note=64 velocity=90 time=0
note_off channel=0 note=71 velocity=0 time=0.00186011328125
note_on channel=0 note=74 velocity=101 time=0.11718713671874999
note_off channel=0 note=73 velocity=0 time=0.00186011328125
note_off channel=0 note=61 velocity=0 time=0.10416634375
note_off channel=0 note=64 velocity=0 time=0
note_on channel=0 note=76 velocity=105 time=0.01302079296875
note_on channel=0 note=61 velocity=82 time=0
note_on channel=0 note=64 velocity=82 time=0
note_off channel=0 note=74 velocity=0 time=0.00186011328125
note_on channel=0 note=78 velocity=107 time=0.11718713671874999
note_off channel=0 note=76 velocity=0 time=0.00186011328125
note_off channel=0 note=61 velocity=0 time=0.10416634375
note_off channel=0 note=64 velocity=0 time=0
note_on channel=0 note=80 velocity=104 time=0.01302079296875
note_on channel=0 note=61 velocity=82 time=0
note_on channel=0 note=64 velocity=82 time=0
note_off channel=0 note=78 velocity=0 time=0.00186011328125
note_on channel=0 note=81 velocity=110 time=0.11718713671874999
note_off channel=0 note=80 velocity=0 time=0.00186011328125
note_off channel=0 note=61 velocity=0 time=0.10416634375
note_off channel=0 note=64 velocity=0 time=0
note_on channel=0 note=82 velocity=103 time=0.01302079296875
note_on channel=0 note=52 velocity=69 time=0
note_off channel=0 note=81 velocity=0 time=0.00186011328125
note_off channel=0 note=52 velocity=0 time=0.22321359375
note_on channel=0 note=83 velocity=105 time=0.01302079296875
note_on channel=0 note=56 velocity=99 time=0
note_on channel=0 note=62 velocity=99 time=0
note_off channel=0 note=82 velocity=0 time=0.0037202265625
note_off channel=0 note=83 velocity=0 time=0.22135348046874997
note_off channel=0 note=56 velocity=0 time=0
note_off channel=0 note=62 velocity=0 time=0
note_on channel=0 note=76 velocity=87 time=0.01302079296875
note_on channel=0 note=56 velocity=82 time=0
note_on channel=0 note=62 velocity=82 time=0
note_on channel=0 note=74 velocity=80 time=0.11904725
note_off channel=0 note=76 velocity=0 time=0.00186011328125
note_off channel=0 note=56 velocity=0 time=0.10416634375
note_off channel=0 note=62 velocity=0 time=0
note_on channel=0 note=73 velocity=98 time=0.01302079296875
note_on channel=0 note=56 velocity=82 time=0
note_on channel=0 note=62 velocity=82 time=0
note_off channel=0 note=74 velocity=0 time=0.00186011328125
note_on channel=0 note=71 velocity=92 time=0.11718713671874999
note_off channel=0 note=73 velocity=0 time=0.00186011328125
note_off channel=0 note=56 velocity=0 time=0.10416634375
note_off channel=0 note=62 velocity=0 time=0
note_on channel=0 note=69 velocity=96 time=0.01302079296875
note_on channel=0 note=57 velocity=76 time=0
note_off channel=0 note=71 velocity=0 time=0.00186011328125
note_on channel=0 note=71 velocity=102 time=0.11718713671874999
note_off channel=0 note=69 velocity=0 time=0.00186011328125
note_off channel=0 note=57 velocity=0 time=0.10416634375
note_on channel=0 note=73 velocity=115 time=0.01302079296875
note_on channel=0 note=61 velocity=96 time=0
note_on channel=0 note=64 velocity=96 time=0
note_off channel=0 note=71 velocity=0 time=0.00186011328125
note_on channel=0 note=74 velocity=123 time=0.11718713671874999
note_off channel=0 note=73 velocity=0 time=0.00186011328125
note_off channel=0 note=61 velocity=0 time=0.10416634375
note_off channel=0 note=64 velocity=0 time=0
note_on channel=0 note=76 velocity=110 time=0.01302079296875
note_on channel=0 note=61 velocity=82 time=0
note_on channel=0 note=64 velocity=82 time=0
note_off channel=0 note=74 velocity=0 time=0.00186011328125
note_on channel=0 note=78 velocity=119 time=0.11718713671874999
note_off channel=0 note=76 velocity=0 time=0.00186011328125
note_off channel=0 note=61 velocity=0 time=0.10416634375
note_off channel=0 note=64 velocity=0 time=0
note_on channel=0 note=80 velocity=111 time=0.01302079296875
note_on channel=0 note=61 velocity=81 time=0
note_on channel=0 note=64 velocity=81 time=0
note_off channel=0 note=78 velocity=0 time=0.00186011328125
note_on channel=0 note=81 velocity=116 time=0.11718713671874999
note_off channel=0 note=80 velocity=0 time=0.00186011328125
note_off channel=0 note=61 velocity=0 time=0.10416634375
note_off channel=0 note=64 velocity=0 time=0
note_off channel=0 note=81 velocity=0 time=0.01302079296875
note_on channel=0 note=81 velocity=102 time=0
note_on channel=0 note=59 velocity=76 time=0
note_on channel=0 note=80 velocity=97 time=0.11904725
note_off channel=0 note=81 velocity=0 time=0.00186011328125
note_off channel=0 note=59 velocity=0 time=0.10416634375
note_on channel=0 note=78 velocity=93 time=0.01302079296875
note_on channel=0 note=62 velocity=90 time=0
note_on channel=0 note=64 velocity=90 time=0
note_off channel=0 note=80 velocity=0 time=0.00186011328125
note_on channel=0 note=76 velocity=84 time=0.11718713671874999
note_off channel=0 note=78 velocity=0 time=0.00186011328125
note_off channel=0 note=62 velocity=0 time=0.10416634375
note_off channel=0 note=64 velocity=0 time=0
note_off channel=0 note=76 velocity=0 time=0.00558033984375
note_on channel=0 note=76 velocity=100 time=0.007440453125
note_on channel=0 note=56 velocity=75 time=0
note_on channel=0 note=74 velocity=92 time=0.11904725
note_off channel=0 note=76 velocity=0 time=0.00186011328125
note_off channel=0 note=56 velocity=0 time=0.10416634375
note_on channel=0 note=73 velocity=95 time=0.01302079296875
note_on channel=0 note=62 velocity=98 time=0
note_on channel=0 note=64 velocity=98 time=0
note_off channel=0 note=74 velocity=0 time=0.00186011328125
note_on channel=0 note=71 velocity=88 time=0.11718713671874999
note_off channel=0 note=73 velocity=0 time=0.00186011328125
note_off channel=0 note=62 velocity=0 time=0.10416634375
note_off channel=0 note=64 velocity=0 time=0
note_on channel=0 note=73 velocity=106 time=0.01302079296875
note_on channel=0 note=57 velocity=78 time=0
note_off channel=0 note=71 velocity=0 time=0.00186011328125
note_on channel=0 note=76 velocity=118 time=0.11718713671874999
note_off channel=0 note=73 velocity=0 time=0.00186011328125
note_off channel=0 note=57 velocity=0 time=0.10416634375
note_on channel=0 note=69 velocity=89 time=0.01302079296875
note_on channel=0 note=54 velocity=76 time=0
note_off channel=0 note=76 velocity=0 time=0.00186011328125
note_on channel=0 note=73 velocity=103 time=0.11718713671874999
note_off channel=0 note=69 velocity=0 time=0.00186011328125
note_off channel=0 note=54 velocity=0 time=0.10416634375
note_on channel=0 note=71 velocity=101 time=0.01302079296875
note_on channel=0 note=50 velocity=76 time=0
note_off channel=0 note=73 velocity=0 time=0.00186011328125
note_on channel=0 note=74 velocity=110 time=0.11718713671874999
note_off channel=0 note=71 velocity=0 time=0.00186011328125
note_off channel=0 note=50 velocity=0 time=0.10416634375
note_on channel=0 note=68 velocity=83 time=0.01302079296875
note_on channel=0 note=52 velocity=82 time=0
note_off channel=0 note=74 velocity=0 time=0.00186011328125
note_on channel=0 note=71 velocity=91 time=0.11718713671874999
note_off channel=0 note=68 velocity=0 time=0.00186011328125
note_off channel=0 note=52 velocity=0 time=0.10416634375
note_on channel=0 note=69 velocity=96 time=0.01302079296875
note_on channel=0 note=45 velocity=72 time=0
note_off channel=0 note=71 velocity=0 time=0.00186011328125
note_off channel=0 note=45 velocity=0 time=0.22321359375
note_on channel=0 note=57 velocity=92 time=0.01302079296875
note_off channel=0 note=69 velocity=0 time=0.21391302734374998
note_off channel=0 note=57 velocity=0 time=0.0111606796875
note_on channel=0 note=85 velocity=83 time=0.01302079296875
note_on channel=0 note=57 velocity=82 time=0
note_on channel=0 note=86 velocity=93 time=0.11904725
note_off channel=0 note=85 velocity=0 time=0.00186011328125
note_off channel=0 note=57 velocity=0 time=0.10416634375
note_on channel=0 note=85 velocity=65 time=0.01302079296875
note_on channel=0 note=57 velocity=79 time=0
note_off channel=0 note=86 velocity=0 time=0.00186011328125
note_on channel=0 note=83 velocity=57 time=0.11718713671874999
note_off channel=0 note=85 velocity=0 time=0.00186011328125
note_off channel=0 note=57 velocity=0 time=0.10416634375
note_on channel=0 note=81 velocity=59 time=0.01302079296875
note_on channel=0 note=54 velocity=78 time=0
note_off channel=0 note=83 velocity=0 time=0.00186011328125
note_on channel=0 note=83 velocity=62 time=0.11718713671874999
note_off channel=0 note=81 velocity=0 time=0.00186011328125
note_off channel=0 note=54 velocity=0 time=0.10416634375
note_on channel=0 note=81 velocity=61 time=0.01302079296875
note_on channel=0 note=57 velocity=93 time=0
note_on channel=0 note=61 velocity=93 time=0
note_off channel=0 note=83 velocity=0 time=0.00186011328125
note_on channel=0 note=80 velocity=56 time=0.11718713671874999
note_off channel=0 note=81 velocity=0 time=0.00186011328125
note_off channel=0 note=57 velocity=0 time=0.10416634375
note_off channel=0 note=61 velocity=0 time=0
note_on channel=0 note=78 velocity=58 time=0.01302079296875
note_on channel=0 note=57 velocity=80 time=0
note_on channel=0 note=61 velocity=80 time=0
note_off channel=0 note=80 velocity=0 time=0.00186011328125
note_on channel=0 note=81 velocity=65 time=0.11718713671874999
note_off channel=0 note=78 velocity=0 time=0.00186011328125
note_off channel=0 note=57 velocity=0 time=0.10416634375
note_off channel=0 note=61 velocity=0 time=0
note_on channel=0 note=80 velocity=58 time=0.01302079296875
note_on channel=0 note=57 velocity=74 time=0
note_on channel=0 note=61 velocity=74 time=0
note_off channel=0 note=81 velocity=0 time=0.00186011328125
note_on channel=0 note=78 velocity=57 time=0.11718713671874999
note_off channel=0 note=80 velocity=0 time=0.00186011328125
note_off channel=0 note=57 velocity=0 time=0.10416634375
note_off channel=0 note=61 velocity=0 time=0
note_on channel=0 note=77 velocity=58 time=0.01302079296875
note_on channel=0 note=56 velocity=79 time=0
note_off channel=0 note=78 velocity=0 time=0.00186011328125
note_on channel=0 note=78 velocity=58 time=0.11718713671874999
note_off channel=0 note=77 velocity=0 time=0.00186011328125
note_off channel=0 note=56 velocity=0 time=0.10416634375
note_on channel=0 note=80 velocity=66 time=0.01302079296875
note_on channel=0 note=59 velocity=88 time=0
note_on channel=0 note=61 velocity=88 time=0
note_off channel=0 note=78 velocity=0 time=0.00186011328125
MetaMessage('set_tempo', tempo=480000, time=0.11718713671874999)
note_on channel=0 note=77 velocity=62 time=0
note_off channel=0 note=80 velocity=0 time=0.001875
note_off channel=0 note=59 velocity=0 time=0.105
note_off channel=0 note=61 velocity=0 time=0
note_on channel=0 note=73 velocity=53 time=0.013125
note_on channel=0 note=59 velocity=84 time=0
note_on channel=0 note=61 velocity=84 time=0
note_off channel=0 note=77 velocity=0 time=0.001875
note_off channel=0 note=73 velocity=0 time=0.118125
note_on channel=0 note=75 velocity=72 time=0
note_off channel=0 note=59 velocity=0 time=0.106875
note_off channel=0 note=61 velocity=0 time=0
note_on channel=0 note=77 velocity=76 time=0.013125
note_on channel=0 note=59 velocity=80 time=0
note_on channel=0 note=61 velocity=80 time=0
note_off channel=0 note=75 velocity=0 time=0.001875
note_on channel=0 note=73 velocity=54 time=0.118125
note_off channel=0 note=77 velocity=0 time=0.001875
note_off channel=0 note=59 velocity=0 time=0.105
note_off channel=0 note=61 velocity=0 time=0
note_on channel=0 note=78 velocity=69 time=0.013125
note_on channel=0 note=54 velocity=79 time=0
note_off channel=0 note=73 velocity=0 time=0.001875
note_on channel=0 note=77 velocity=61 time=0.118125
note_off channel=0 note=78 velocity=0 time=0.001875
note_off channel=0 note=54 velocity=0 time=0.105
note_on channel=0 note=78 velocity=68 time=0.013125
note_on channel=0 note=57 velocity=102 time=0
note_on channel=0 note=61 velocity=102 time=0
note_off channel=0 note=77 velocity=0 time=0.001875
note_on channel=0 note=80 velocity=73 time=0.118125
note_off channel=0 note=78 velocity=0 time=0.001875
note_off channel=0 note=57 velocity=0 time=0.105
note_off channel=0 note=61 velocity=0 time=0
MetaMessage('set_tempo', tempo=483869, time=0.013125)
note_on channel=0 note=81 velocity=74 time=0
note_on channel=0 note=57 velocity=99 time=0
note_on channel=0 note=61 velocity=99 time=0
note_off channel=0 note=80 velocity=0 time=0.00189011328125
note_on channel=0 note=80 velocity=73 time=0.11907713671875
note_off channel=0 note=81 velocity=0 time=0.00189011328125
note_off channel=0 note=57 velocity=0 time=0.10584634375
note_off channel=0 note=61 velocity=0 time=0
note_on channel=0 note=81 velocity=76 time=0.01323079296875
note_on channel=0 note=57 velocity=96 time=0
note_on channel=0 note=61 velocity=96 time=0
note_off channel=0 note=80 velocity=0 time=0.00189011328125
note_on channel=0 note=83 velocity=77 time=0.11907713671875
note_off channel=0 note=81 velocity=0 time=0.00189011328125
note_off channel=0 note=57 velocity=0 time=0.10584634375
note_off channel=0 note=61 velocity=0 time=0
note_on channel=0 note=85 velocity=83 time=0.01323079296875
note_on channel=0 note=49 velocity=87 time=0
note_off channel=0 note=83 velocity=0 time=0.00189011328125
note_on channel=0 note=84 velocity=75 time=0.11907713671875
note_off channel=0 note=85 velocity=0 time=0.00189011328125
note_off channel=0 note=49 velocity=0 time=0.10584634375
note_on channel=0 note=85 velocity=80 time=0.01323079296875
note_on channel=0 note=56 velocity=80 time=0
note_on channel=0 note=61 velocity=80 time=0
note_off channel=0 note=84 velocity=0 time=0.00189011328125
note_on channel=0 note=84 velocity=77 time=0.11907713671875
note_off channel=0 note=85 velocity=0 time=0.00189011328125
note_off channel=0 note=56 velocity=0 time=0.10584634375
note_off channel=0 note=61 velocity=0 time=0
note_on channel=0 note=85 velocity=99 time=0.01323079296875
note_on channel=0 note=55 velocity=87 time=0
note_on channel=0 note=61 velocity=87 time=0
note_off channel=0 note=84 velocity=0 time=0.00189011328125
note_off channel=0 note=85 velocity=0 time=0.11907713671875
note_on channel=0 note=84 velocity=95 time=0
note_off channel=0 note=55 velocity=0 time=0.10773645703125
note_off channel=0 note=61 velocity=0 time=0
note_on channel=0 note=85 velocity=100 time=0.01323079296875
note_on channel=0 note=54 velocity=86 time=0
note_on channel=0 note=61 velocity=86 time=0
note_off channel=0 note=84 velocity=0 time=0.00189011328125
note_on channel=0 note=82 velocity=91 time=0.11907713671875
note_off channel=0 note=85 velocity=0 time=0.00189011328125
note_off channel=0 note=54 velocity=0 time=0.10584634375
note_off channel=0 note=61 velocity=0 time=0
note_on channel=0 note=86 velocity=98 time=0.01323079296875
note_on channel=0 note=47 velocity=65 time=0
note_off channel=0 note=82 velocity=0 time=0.00189011328125
note_on channel=0 note=85 velocity=95 time=0.11907713671875
note_off channel=0 note=86 velocity=0 time=0.00189011328125
note_off channel=0 note=47 velocity=0 time=0.10584634375
note_on channel=0 note=86 velocity=99 time=0.01323079296875
note_on channel=0 note=54 velocity=86 time=0
note_on channel=0 note=59 velocity=86 time=0
note_off channel=0 note=85 velocity=0 time=0.00189011328125
note_on channel=0 note=85 velocity=90 time=0.11907713671875
note_off channel=0 note=86 velocity=0 time=0.00189011328125
note_off channel=0 note=54 velocity=0 time=0.10584634375
note_off channel=0 note=59 velocity=0 time=0
note_on channel=0 note=86 velocity=96 time=0.01323079296875
note_on channel=0 note=54 velocity=78 time=0
note_on channel=0 note=59 velocity=78 time=0
note_off channel=0 note=85 velocity=0 time=0.00189011328125
note_on channel=0 note=85 velocity=92 time=0.11907713671875
note_off channel=0 note=86 velocity=0 time=0.00189011328125
note_off channel=0 note=54 velocity=0 time=0.10584634375
note_off channel=0 note=59 velocity=0 time=0
note_on channel=0 note=86 velocity=97 time=0.01323079296875
note_on channel=0 note=54 velocity=77 time=0
note_on channel=0 note=59 velocity=77 time=0
note_off channel=0 note=85 velocity=0 time=0.00189011328125
note_on channel=0 note=85 velocity=92 time=0.11907713671875
note_off channel=0 note=86 velocity=0 time=0.00189011328125
note_off channel=0 note=54 velocity=0 time=0.10584634375
note_off channel=0 note=59 velocity=0 time=0
note_on channel=0 note=86 velocity=100 time=0.01323079296875
note_on channel=0 note=47 velocity=72 time=0
note_off channel=0 note=85 velocity=0 time=0.00189011328125
note_on channel=0 note=85 velocity=92 time=0.11907713671875
note_off channel=0 note=86 velocity=0 time=0.00189011328125
note_off channel=0 note=47 velocity=0 time=0.10584634375
note_on channel=0 note=83 velocity=83 time=0.01323079296875
note_on channel=0 note=56 velocity=87 time=0
note_on channel=0 note=59 velocity=87 time=0
note_off channel=0 note=85 velocity=0 time=0.00189011328125
note_on channel=0 note=81 velocity=89 time=0.11907713671875
note_off channel=0 note=83 velocity=0 time=0.00189011328125
note_off channel=0 note=56 velocity=0 time=0.10584634375
note_off channel=0 note=59 velocity=0 time=0
note_on channel=0 note=80 velocity=85 time=0.01323079296875
note_on channel=0 note=56 velocity=77 time=0
note_on channel=0 note=59 velocity=77 time=0
note_off channel=0 note=81 velocity=0 time=0.00189011328125
note_on channel=0 note=81 velocity=101 time=0.11907713671875
note_off channel=0 note=80 velocity=0 time=0.00189011328125
note_off channel=0 note=56 velocity=0 time=0.10584634375
note_off channel=0 note=59 velocity=0 time=0
note_on channel=0 note=83 velocity=105 time=0.01323079296875
note_on channel=0 note=56 velocity=81 time=0
note_on channel=0 note=59 velocity=81 time=0
note_off channel=0 note=81 velocity=0 time=0.00189011328125
note_on channel=0 note=80 velocity=86 time=0.11907713671875
note_off channel=0 note=83 velocity=0 time=0.00189011328125
note_off channel=0 note=56 velocity=0 time=0.10584634375
note_off channel=0 note=59 velocity=0 time=0
note_on channel=0 note=81 velocity=90 time=0.01323079296875
note_on channel=0 note=49 velocity=70 time=0
note_off channel=0 note=80 velocity=0 time=0.00189011328125
note_on channel=0 note=83 velocity=102 time=0.11907713671875
note_off channel=0 note=81 velocity=0 time=0.00189011328125
note_off channel=0 note=49 velocity=0 time=0.10584634375
note_on channel=0 note=85 velocity=106 time=0.01323079296875
note_on channel=0 note=54 velocity=88 time=0
note_on channel=0 note=57 velocity=88 time=0
note_off channel=0 note=83 velocity=0 time=0.00189011328125
note_on channel=0 note=78 velocity=83 time=0.11907713671875
note_off channel=0 note=85 velocity=0 time=0.00189011328125
note_off channel=0 note=54 velocity=0 time=0.10584634375
note_off channel=0 note=57 velocity=0 time=0
note_on channel=0 note=77 velocity=77 time=0.01323079296875
note_on channel=0 note=49 velocity=77 time=0
note_off channel=0 note=78 velocity=0 time=0.00189011328125
note_on channel=0 note=78 velocity=101 time=0.11907713671875
note_off channel=0 note=77 velocity=0 time=0.00189011328125
note_off channel=0 note=49 velocity=0 time=0.10584634375
note_on channel=0 note=80 velocity=109 time=0.01323079296875
note_on channel=0 note=56 velocity=88 time=0
note_on channel=0 note=59 velocity=88 time=0
note_off channel=0 note=78 velocity=0 time=0.00189011328125
note_on channel=0 note=77 velocity=91 time=0.11907713671875
note_off channel=0 note=80 velocity=0 time=0.00189011328125
note_off channel=0 note=56 velocity=0 time=0.10584634375
note_off channel=0 note=59 velocity=0 time=0
MetaMessage('time_signature', numerator=1, denominator=4, clocks_per_click=24, notated_32nd_notes_per_beat=8, time=0.01323079296875)
note_on channel=0 note=78 velocity=96 time=0
note_on channel=0 note=54 velocity=78 time=0
note_on channel=0 note=57 velocity=78 time=0
note_off channel=0 note=77 velocity=0 time=0.00189011328125
note_off channel=0 note=54 velocity=0 time=0.4536271875
note_off channel=0 note=57 velocity=0 time=0
note_off channel=0 note=78 velocity=0 time=0.0037802265625
MetaMessage('time_signature', numerator=2, denominator=4, clocks_per_click=24, notated_32nd_notes_per_beat=8, time=0.02457147265625)
MetaMessage('time_signature', numerator=1, denominator=4, clocks_per_click=24, notated_32nd_notes_per_beat=8, time=0)
note_on channel=0 note=76 velocity=91 time=0
note_on channel=0 note=74 velocity=83 time=0.12096725
note_off channel=0 note=76 velocity=0 time=0.00189011328125
note_on channel=0 note=73 velocity=92 time=0.11907713671875
note_off channel=0 note=74 velocity=0 time=0.00189011328125
note_on channel=0 note=71 velocity=88 time=0.11907713671875
note_off channel=0 note=73 velocity=0 time=0.00189011328125
MetaMessage('time_signature', numerator=2, denominator=4, clocks_per_click=24, notated_32nd_notes_per_beat=8, time=0.11907713671875)
note_on channel=0 note=69 velocity=88 time=0
note_on channel=0 note=57 velocity=71 time=0
note_off channel=0 note=71 velocity=0 time=0.00189011328125
note_on channel=0 note=71 velocity=95 time=0.11907713671875
note_off channel=0 note=69 velocity=0 time=0.00189011328125
note_off channel=0 note=57 velocity=0 time=0.10584634375
note_on channel=0 note=73 velocity=100 time=0.01323079296875
note_on channel=0 note=61 velocity=95 time=0
note_on channel=0 note=64 velocity=95 time=0
note_off channel=0 note=71 velocity=0 time=0.00189011328125
note_on channel=0 note=74 velocity=104 time=0.11907713671875
note_off channel=0 note=73 velocity=0 time=0.00189011328125
note_off channel=0 note=61 velocity=0 time=0.10584634375
note_off channel=0 note=64 velocity=0 time=0
note_on channel=0 note=76 velocity=100 time=0.01323079296875
note_on channel=0 note=61 velocity=83 time=0
note_on channel=0 note=64 velocity=83 time=0
note_off channel=0 note=74 velocity=0 time=0.00189011328125
note_on channel=0 note=78 velocity=108 time=0.11907713671875
note_off channel=0 note=76 velocity=0 time=0.00189011328125
note_off channel=0 note=61 velocity=0 time=0.10584634375
note_off channel=0 note=64 velocity=0 time=0
note_on channel=0 note=80 velocity=103 time=0.01323079296875
note_on channel=0 note=61 velocity=80 time=0
note_on channel=0 note=64 velocity=80 time=0
note_off channel=0 note=78 velocity=0 time=0.00189011328125
note_on channel=0 note=81 velocity=105 time=0.11907713671875
note_off channel=0 note=80 velocity=0 time=0.00189011328125
note_off channel=0 note=61 velocity=0 time=0.10584634375
note_off channel=0 note=64 velocity=0 time=0
note_off channel=0 note=81 velocity=0 time=0.01323079296875
note_on channel=0 note=81 velocity=95 time=0
note_on channel=0 note=59 velocity=78 time=0
note_on channel=0 note=80 velocity=94 time=0.12096725
note_off channel=0 note=81 velocity=0 time=0.00189011328125
note_off channel=0 note=59 velocity=0 time=0.10584634375
note_on channel=0 note=78 velocity=89 time=0.01323079296875
note_on channel=0 note=62 velocity=89 time=0
note_on channel=0 note=64 velocity=89 time=0
note_off channel=0 note=80 velocity=0 time=0.00189011328125
note_on channel=0 note=76 velocity=83 time=0.11907713671875
note_off channel=0 note=78 velocity=0 time=0.00189011328125
note_off channel=0 note=62 velocity=0 time=0.10584634375
note_off channel=0 note=64 velocity=0 time=0
note_off channel=0 note=76 velocity=0 time=0.00567033984375
note_on channel=0 note=76 velocity=97 time=0.007560453125
note_on channel=0 note=56 velocity=76 time=0
note_on channel=0 note=74 velocity=90 time=0.12096725
note_off channel=0 note=76 velocity=0 time=0.00189011328125
note_off channel=0 note=56 velocity=0 time=0.10584634375
note_on channel=0 note=73 velocity=95 time=0.01323079296875
note_on channel=0 note=62 velocity=97 time=0
note_on channel=0 note=64 velocity=97 time=0
note_off channel=0 note=74 velocity=0 time=0.00189011328125
note_on channel=0 note=71 velocity=90 time=0.11907713671875
note_off channel=0 note=73 velocity=0 time=0.00189011328125
note_off channel=0 note=62 velocity=0 time=0.10584634375
note_off channel=0 note=64 velocity=0 time=0
note_on channel=0 note=69 velocity=89 time=0.01323079296875
note_on channel=0 note=57 velocity=78 time=0
note_off channel=0 note=71 velocity=0 time=0.00189011328125
note_on channel=0 note=71 velocity=96 time=0.11907713671875
note_off channel=0 note=69 velocity=0 time=0.00189011328125
note_off channel=0 note=57 velocity=0 time=0.10584634375
note_on channel=0 note=73 velocity=107 time=0.01323079296875
note_on channel=0 note=61 velocity=93 time=0
note_on channel=0 note=64 velocity=93 time=0
note_off channel=0 note=71 velocity=0 time=0.00189011328125
note_on channel=0 note=74 velocity=103 time=0.11907713671875
note_off channel=0 note=73 velocity=0 time=0.00189011328125
note_off channel=0 note=61 velocity=0 time=0.10584634375
note_off channel=0 note=64 velocity=0 time=0
note_on channel=0 note=76 velocity=111 time=0.01323079296875
note_on channel=0 note=61 velocity=79 time=0
note_on channel=0 note=64 velocity=79 time=0
note_off channel=0 note=74 velocity=0 time=0.00189011328125
note_on channel=0 note=78 velocity=104 time=0.11907713671875
note_off channel=0 note=76 velocity=0 time=0.00189011328125
note_off channel=0 note=61 velocity=0 time=0.10584634375
note_off channel=0 note=64 velocity=0 time=0
note_on channel=0 note=80 velocity=102 time=0.01323079296875
note_on channel=0 note=61 velocity=81 time=0
note_on channel=0 note=64 velocity=81 time=0
note_off channel=0 note=78 velocity=0 time=0.00189011328125
note_on channel=0 note=81 velocity=111 time=0.11907713671875
note_off channel=0 note=80 velocity=0 time=0.00189011328125
note_off channel=0 note=61 velocity=0 time=0.10584634375
note_off channel=0 note=64 velocity=0 time=0
note_on channel=0 note=82 velocity=106 time=0.01323079296875
note_on channel=0 note=52 velocity=64 time=0
note_off channel=0 note=81 velocity=0 time=0.00189011328125
note_off channel=0 note=52 velocity=0 time=0.22681359375
note_on channel=0 note=83 velocity=106 time=0.01323079296875
note_on channel=0 note=56 velocity=98 time=0
note_on channel=0 note=62 velocity=98 time=0
note_off channel=0 note=82 velocity=0 time=0.0037802265625
note_off channel=0 note=83 velocity=0 time=0.22492348046875
note_off channel=0 note=56 velocity=0 time=0
note_off channel=0 note=62 velocity=0 time=0
note_on channel=0 note=76 velocity=89 time=0.01323079296875
note_on channel=0 note=56 velocity=86 time=0
note_on channel=0 note=62 velocity=86 time=0
note_on channel=0 note=74 velocity=76 time=0.12096725
note_off channel=0 note=76 velocity=0 time=0.00189011328125
note_off channel=0 note=56 velocity=0 time=0.10584634375
note_off channel=0 note=62 velocity=0 time=0
note_on channel=0 note=73 velocity=92 time=0.01323079296875
note_on channel=0 note=56 velocity=78 time=0
note_on channel=0 note=62 velocity=78 time=0
note_off channel=0 note=74 velocity=0 time=0.00189011328125
note_on channel=0 note=71 velocity=88 time=0.11907713671875
note_off channel=0 note=73 velocity=0 time=0.00189011328125
note_off channel=0 note=56 velocity=0 time=0.10584634375
note_off channel=0 note=62 velocity=0 time=0
note_on channel=0 note=69 velocity=94 time=0.01323079296875
note_on channel=0 note=57 velocity=76 time=0
note_off channel=0 note=71 velocity=0 time=0.00189011328125
note_on channel=0 note=71 velocity=100 time=0.11907713671875
note_off channel=0 note=69 velocity=0 time=0.00189011328125
note_off channel=0 note=57 velocity=0 time=0.10584634375
note_on channel=0 note=73 velocity=112 time=0.01323079296875
note_on channel=0 note=61 velocity=95 time=0
note_on channel=0 note=64 velocity=95 time=0
note_off channel=0 note=71 velocity=0 time=0.00189011328125
note_on channel=0 note=74 velocity=115 time=0.11907713671875
note_off channel=0 note=73 velocity=0 time=0.00189011328125
note_off channel=0 note=61 velocity=0 time=0.10584634375
note_off channel=0 note=64 velocity=0 time=0
note_on channel=0 note=76 velocity=109 time=0.01323079296875
note_on channel=0 note=61 velocity=82 time=0
note_on channel=0 note=64 velocity=82 time=0
note_off channel=0 note=74 velocity=0 time=0.00189011328125
note_on channel=0 note=78 velocity=116 time=0.11907713671875
note_off channel=0 note=76 velocity=0 time=0.00189011328125
note_off channel=0 note=61 velocity=0 time=0.10584634375
note_off channel=0 note=64 velocity=0 time=0
note_on channel=0 note=80 velocity=108 time=0.01323079296875
note_on channel=0 note=61 velocity=81 time=0
note_on channel=0 note=64 velocity=81 time=0
note_off channel=0 note=78 velocity=0 time=0.00189011328125
note_on channel=0 note=81 velocity=113 time=0.11907713671875
note_off channel=0 note=80 velocity=0 time=0.00189011328125
note_off channel=0 note=61 velocity=0 time=0.10584634375
note_off channel=0 note=64 velocity=0 time=0
note_off channel=0 note=81 velocity=0 time=0.01323079296875
note_on channel=0 note=81 velocity=104 time=0
note_on channel=0 note=59 velocity=75 time=0
note_on channel=0 note=80 velocity=95 time=0.12096725
note_off channel=0 note=81 velocity=0 time=0.00189011328125
note_off channel=0 note=59 velocity=0 time=0.10584634375
note_on channel=0 note=78 velocity=95 time=0.01323079296875
note_on channel=0 note=62 velocity=93 time=0
note_on channel=0 note=64 velocity=93 time=0
note_off channel=0 note=80 velocity=0 time=0.00189011328125
note_on channel=0 note=76 velocity=90 time=0.11907713671875
note_off channel=0 note=78 velocity=0 time=0.00189011328125
note_off channel=0 note=62 velocity=0 time=0.10584634375
note_off channel=0 note=64 velocity=0 time=0
note_off channel=0 note=76 velocity=0 time=0.00567033984375
note_on channel=0 note=76 velocity=97 time=0.007560453125
note_on channel=0 note=56 velocity=72 time=0
note_on channel=0 note=74 velocity=89 time=0.12096725
note_off channel=0 note=76 velocity=0 time=0.00189011328125
note_off channel=0 note=56 velocity=0 time=0.10584634375
note_on channel=0 note=73 velocity=96 time=0.01323079296875
note_on channel=0 note=62 velocity=95 time=0
note_on channel=0 note=64 velocity=95 time=0
note_off channel=0 note=74 velocity=0 time=0.00189011328125
note_on channel=0 note=71 velocity=89 time=0.11907713671875
note_off channel=0 note=73 velocity=0 time=0.00189011328125
note_off channel=0 note=62 velocity=0 time=0.10584634375
note_off channel=0 note=64 velocity=0 time=0
note_on channel=0 note=73 velocity=106 time=0.01323079296875
note_on channel=0 note=57 velocity=75 time=0
note_off channel=0 note=71 velocity=0 time=0.00189011328125
note_on channel=0 note=76 velocity=118 time=0.11907713671875
note_off channel=0 note=73 velocity=0 time=0.00189011328125
note_off channel=0 note=57 velocity=0 time=0.10584634375
note_on channel=0 note=69 velocity=90 time=0.01323079296875
note_on channel=0 note=54 velocity=75 time=0
note_off channel=0 note=76 velocity=0 time=0.00189011328125
note_on channel=0 note=73 velocity=100 time=0.11907713671875
note_off channel=0 note=69 velocity=0 time=0.00189011328125
note_off channel=0 note=54 velocity=0 time=0.10584634375
note_on channel=0 note=71 velocity=98 time=0.01323079296875
note_on channel=0 note=50 velocity=77 time=0
note_off channel=0 note=73 velocity=0 time=0.00189011328125
note_on channel=0 note=74 velocity=104 time=0.11907713671875
note_off channel=0 note=71 velocity=0 time=0.00189011328125
note_off channel=0 note=50 velocity=0 time=0.10584634375
note_on channel=0 note=68 velocity=89 time=0.01323079296875
note_on channel=0 note=52 velocity=80 time=0
note_off channel=0 note=74 velocity=0 time=0.00189011328125
note_on channel=0 note=71 velocity=92 time=0.11907713671875
note_off channel=0 note=68 velocity=0 time=0.00189011328125
note_off channel=0 note=52 velocity=0 time=0.10584634375
note_on channel=0 note=69 velocity=100 time=0.01323079296875
note_on channel=0 note=45 velocity=70 time=0
note_off channel=0 note=71 velocity=0 time=0.00189011328125
note_off channel=0 note=45 velocity=0 time=0.22681359375
note_on channel=0 note=57 velocity=91 time=0.01323079296875
note_off channel=0 note=69 velocity=0 time=0.21736302734375
note_off channel=0 note=57 velocity=0 time=0.0113406796875
note_on channel=0 note=85 velocity=79 time=0.01323079296875
note_on channel=0 note=57 velocity=82 time=0
note_on channel=0 note=86 velocity=88 time=0.12096725
note_off channel=0 note=85 velocity=0 time=0.00189011328125
note_off channel=0 note=57 velocity=0 time=0.10584634375
note_on channel=0 note=85 velocity=60 time=0.01323079296875
note_on channel=0 note=57 velocity=80 time=0
note_off channel=0 note=86 velocity=0 time=0.00189011328125
note_on channel=0 note=83 velocity=56 time=0.11907713671875
note_off channel=0 note=85 velocity=0 time=0.00189011328125
note_off channel=0 note=57 velocity=0 time=0.10584634375
note_on channel=0 note=81 velocity=62 time=0.01323079296875
note_on channel=0 note=54 velocity=77 time=0
note_off channel=0 note=83 velocity=0 time=0.00189011328125
note_on channel=0 note=83 velocity=64 time=0.11907713671875
note_off channel=0 note=81 velocity=0 time=0.00189011328125
note_off channel=0 note=54 velocity=0 time=0.10584634375
note_on channel=0 note=81 velocity=61 time=0.01323079296875
note_on channel=0 note=57 velocity=94 time=0
note_on channel=0 note=61 velocity=94 time=0
note_off channel=0 note=83 velocity=0 time=0.00189011328125
note_on channel=0 note=80 velocity=58 time=0.11907713671875
note_off channel=0 note=81 velocity=0 time=0.00189011328125
note_off channel=0 note=57 velocity=0 time=0.10584634375
note_off channel=0 note=61 velocity=0 time=0
note_on channel=0 note=78 velocity=58 time=0.01323079296875
note_on channel=0 note=57 velocity=82 time=0
note_on channel=0 note=61 velocity=82 time=0
note_off channel=0 note=80 velocity=0 time=0.00189011328125
note_on channel=0 note=81 velocity=65 time=0.11907713671875
note_off channel=0 note=78 velocity=0 time=0.00189011328125
note_off channel=0 note=57 velocity=0 time=0.10584634375
note_off channel=0 note=61 velocity=0 time=0
note_on channel=0 note=80 velocity=61 time=0.01323079296875
note_on channel=0 note=57 velocity=82 time=0
note_on channel=0 note=61 velocity=82 time=0
note_off channel=0 note=81 velocity=0 time=0.00189011328125
note_on channel=0 note=78 velocity=56 time=0.11907713671875
note_off channel=0 note=80 velocity=0 time=0.00189011328125
note_off channel=0 note=57 velocity=0 time=0.10584634375
note_off channel=0 note=61 velocity=0 time=0
note_on channel=0 note=77 velocity=65 time=0.01323079296875
note_on channel=0 note=56 velocity=75 time=0
note_off channel=0 note=78 velocity=0 time=0.00189011328125
note_on channel=0 note=78 velocity=63 time=0.11907713671875
note_off channel=0 note=77 velocity=0 time=0.00189011328125
note_off channel=0 note=56 velocity=0 time=0.10584634375
note_on channel=0 note=80 velocity=70 time=0.01323079296875
note_on channel=0 note=59 velocity=88 time=0
note_on channel=0 note=61 velocity=88 time=0
note_off channel=0 note=78 velocity=0 time=0.00189011328125
MetaMessage('set_tempo', tempo=480000, time=0.11907713671875)
note_on channel=0 note=77 velocity=65 time=0
note_off channel=0 note=80 velocity=0 time=0.001875
note_off channel=0 note=59 velocity=0 time=0.105
note_off channel=0 note=61 velocity=0 time=0
note_on channel=0 note=73 velocity=60 time=0.013125
note_on channel=0 note=59 velocity=81 time=0
note_on channel=0 note=61 velocity=81 time=0
note_off channel=0 note=77 velocity=0 time=0.001875
note_off channel=0 note=73 velocity=0 time=0.118125
note_on channel=0 note=75 velocity=67 time=0
note_off channel=0 note=59 velocity=0 time=0.106875
note_off channel=0 note=61 velocity=0 time=0
note_on channel=0 note=77 velocity=76 time=0.013125
note_on channel=0 note=59 velocity=76 time=0
note_on channel=0 note=61 velocity=76 time=0
note_off channel=0 note=75 velocity=0 time=0.001875
note_on channel=0 note=73 velocity=57 time=0.118125
note_off channel=0 note=77 velocity=0 time=0.001875
note_off channel=0 note=59 velocity=0 time=0.105
note_off channel=0 note=61 velocity=0 time=0
note_on channel=0 note=78 velocity=72 time=0.013125
note_on channel=0 note=54 velocity=79 time=0
note_off channel=0 note=73 velocity=0 time=0.001875
note_on channel=0 note=77 velocity=66 time=0.118125
note_off channel=0 note=78 velocity=0 time=0.001875
note_off channel=0 note=54 velocity=0 time=0.105
note_on channel=0 note=78 velocity=71 time=0.013125
note_on channel=0 note=57 velocity=100 time=0
note_on channel=0 note=61 velocity=100 time=0
note_off channel=0 note=77 velocity=0 time=0.001875
note_on channel=0 note=80 velocity=68 time=0.118125
note_off channel=0 note=78 velocity=0 time=0.001875
note_off channel=0 note=57 velocity=0 time=0.105
note_off channel=0 note=61 velocity=0 time=0
MetaMessage('set_tempo', tempo=483869, time=0.013125)
note_on channel=0 note=81 velocity=77 time=0
note_on channel=0 note=57 velocity=98 time=0
note_on channel=0 note=61 velocity=98 time=0
note_off channel=0 note=80 velocity=0 time=0.00189011328125
note_on channel=0 note=80 velocity=68 time=0.11907713671875
note_off channel=0 note=81 velocity=0 time=0.00189011328125
note_off channel=0 note=57 velocity=0 time=0.10584634375
note_off channel=0 note=61 velocity=0 time=0
note_on channel=0 note=81 velocity=78 time=0.01323079296875
note_on channel=0 note=57 velocity=99 time=0
note_on channel=0 note=61 velocity=99 time=0
note_off channel=0 note=80 velocity=0 time=0.00189011328125
note_on channel=0 note=83 velocity=83 time=0.11907713671875
note_off channel=0 note=81 velocity=0 time=0.00189011328125
note_off channel=0 note=57 velocity=0 time=0.10584634375
note_off channel=0 note=61 velocity=0 time=0
note_on channel=0 note=85 velocity=86 time=0.01323079296875
note_on channel=0 note=49 velocity=83 time=0
note_off channel=0 note=83 velocity=0 time=0.00189011328125
note_on channel=0 note=84 velocity=81 time=0.11907713671875
note_off channel=0 note=85 velocity=0 time=0.00189011328125
note_off channel=0 note=49 velocity=0 time=0.10584634375
note_on channel=0 note=85 velocity=86 time=0.01323079296875
note_on channel=0 note=56 velocity=80 time=0
note_on channel=0 note=61 velocity=80 time=0
note_off channel=0 note=84 velocity=0 time=0.00189011328125
note_on channel=0 note=84 velocity=78 time=0.11907713671875
note_off channel=0 note=85 velocity=0 time=0.00189011328125
note_off channel=0 note=56 velocity=0 time=0.10584634375
note_off channel=0 note=61 velocity=0 time=0
note_on channel=0 note=85 velocity=103 time=0.01323079296875
note_on channel=0 note=55 velocity=88 time=0
note_on channel=0 note=61 velocity=88 time=0
note_off channel=0 note=84 velocity=0 time=0.00189011328125
note_off channel=0 note=85 velocity=0 time=0.11907713671875
note_on channel=0 note=84 velocity=89 time=0
note_off channel=0 note=55 velocity=0 time=0.10773645703125
note_off channel=0 note=61 velocity=0 time=0
note_on channel=0 note=85 velocity=93 time=0.01323079296875
note_on channel=0 note=54 velocity=80 time=0
note_on channel=0 note=61 velocity=80 time=0
note_off channel=0 note=84 velocity=0 time=0.00189011328125
note_on channel=0 note=82 velocity=92 time=0.11907713671875
note_off channel=0 note=85 velocity=0 time=0.00189011328125
note_off channel=0 note=54 velocity=0 time=0.10584634375
note_off channel=0 note=61 velocity=0 time=0
note_on channel=0 note=86 velocity=99 time=0.01323079296875
note_on channel=0 note=47 velocity=69 time=0
note_off channel=0 note=82 velocity=0 time=0.00189011328125
note_on channel=0 note=85 velocity=92 time=0.11907713671875
note_off channel=0 note=86 velocity=0 time=0.00189011328125
note_off channel=0 note=47 velocity=0 time=0.10584634375
note_on channel=0 note=86 velocity=98 time=0.01323079296875
note_on channel=0 note=54 velocity=83 time=0
note_on channel=0 note=59 velocity=83 time=0
note_off channel=0 note=85 velocity=0 time=0.00189011328125
note_on channel=0 note=85 velocity=95 time=0.11907713671875
note_off channel=0 note=86 velocity=0 time=0.00189011328125
note_off channel=0 note=54 velocity=0 time=0.10584634375
note_off channel=0 note=59 velocity=0 time=0
note_on channel=0 note=86 velocity=101 time=0.01323079296875
note_on channel=0 note=54 velocity=82 time=0
note_on channel=0 note=59 velocity=82 time=0
note_off channel=0 note=85 velocity=0 time=0.00189011328125
note_on channel=0 note=85 velocity=94 time=0.11907713671875
note_off channel=0 note=86 velocity=0 time=0.00189011328125
note_off channel=0 note=54 velocity=0 time=0.10584634375
note_off channel=0 note=59 velocity=0 time=0
note_on channel=0 note=86 velocity=102 time=0.01323079296875
note_on channel=0 note=54 velocity=80 time=0
note_on channel=0 note=59 velocity=80 time=0
note_off channel=0 note=85 velocity=0 time=0.00189011328125
note_on channel=0 note=85 velocity=94 time=0.11907713671875
note_off channel=0 note=86 velocity=0 time=0.00189011328125
note_off channel=0 note=54 velocity=0 time=0.10584634375
note_off channel=0 note=59 velocity=0 time=0
note_on channel=0 note=86 velocity=99 time=0.01323079296875
note_on channel=0 note=47 velocity=71 time=0
note_off channel=0 note=85 velocity=0 time=0.00189011328125
note_on channel=0 note=85 velocity=95 time=0.11907713671875
note_off channel=0 note=86 velocity=0 time=0.00189011328125
note_off channel=0 note=47 velocity=0 time=0.10584634375
note_on channel=0 note=83 velocity=93 time=0.01323079296875
note_on channel=0 note=56 velocity=93 time=0
note_on channel=0 note=59 velocity=93 time=0
note_off channel=0 note=85 velocity=0 time=0.00189011328125
note_on channel=0 note=81 velocity=92 time=0.11907713671875
note_off channel=0 note=83 velocity=0 time=0.00189011328125
note_off channel=0 note=56 velocity=0 time=0.10584634375
note_off channel=0 note=59 velocity=0 time=0
note_on channel=0 note=80 velocity=87 time=0.01323079296875
note_on channel=0 note=56 velocity=84 time=0
note_on channel=0 note=59 velocity=84 time=0
note_off channel=0 note=81 velocity=0 time=0.00189011328125
note_on channel=0 note=81 velocity=102 time=0.11907713671875
note_off channel=0 note=80 velocity=0 time=0.00189011328125
note_off channel=0 note=56 velocity=0 time=0.10584634375
note_off channel=0 note=59 velocity=0 time=0
note_on channel=0 note=83 velocity=114 time=0.01323079296875
note_on channel=0 note=56 velocity=81 time=0
note_on channel=0 note=59 velocity=81 time=0
note_off channel=0 note=81 velocity=0 time=0.00189011328125
note_on channel=0 note=80 velocity=87 time=0.11907713671875
note_off channel=0 note=83 velocity=0 time=0.00189011328125
note_off channel=0 note=56 velocity=0 time=0.10584634375
note_off channel=0 note=59 velocity=0 time=0
note_on channel=0 note=81 velocity=88 time=0.01323079296875
note_on channel=0 note=49 velocity=74 time=0
note_off channel=0 note=80 velocity=0 time=0.00189011328125
note_on channel=0 note=83 velocity=99 time=0.11907713671875
note_off channel=0 note=81 velocity=0 time=0.00189011328125
note_off channel=0 note=49 velocity=0 time=0.10584634375
note_on channel=0 note=85 velocity=103 time=0.01323079296875
note_on channel=0 note=54 velocity=89 time=0
note_on channel=0 note=57 velocity=89 time=0
note_off channel=0 note=83 velocity=0 time=0.00189011328125
note_on channel=0 note=78 velocity=76 time=0.11907713671875
note_off channel=0 note=85 velocity=0 time=0.00189011328125
note_off channel=0 note=54 velocity=0 time=0.10584634375
note_off channel=0 note=57 velocity=0 time=0
note_on channel=0 note=77 velocity=67 time=0.01323079296875
note_on channel=0 note=49 velocity=75 time=0
note_off channel=0 note=78 velocity=0 time=0.00189011328125
note_on channel=0 note=78 velocity=104 time=0.11907713671875
note_off channel=0 note=77 velocity=0 time=0.00189011328125
note_off channel=0 note=49 velocity=0 time=0.10584634375
note_on channel=0 note=80 velocity=115 time=0.01323079296875
note_on channel=0 note=56 velocity=87 time=0
note_on channel=0 note=59 velocity=87 time=0
note_off channel=0 note=78 velocity=0 time=0.00189011328125
note_on channel=0 note=77 velocity=86 time=0.11907713671875
note_off channel=0 note=80 velocity=0 time=0.00189011328125
note_off channel=0 note=56 velocity=0 time=0.10584634375
note_off channel=0 note=59 velocity=0 time=0
MetaMessage('time_signature', numerator=1, denominator=4, clocks_per_click=24, notated_32nd_notes_per_beat=8, time=0.01323079296875)
note_on channel=0 note=78 velocity=88 time=0
note_on channel=0 note=54 velocity=79 time=0
note_on channel=0 note=57 velocity=79 time=0
note_off channel=0 note=77 velocity=0 time=0.00189011328125
note_off channel=0 note=54 velocity=0 time=0.4536271875
note_off channel=0 note=57 velocity=0 time=0
note_off channel=0 note=78 velocity=0 time=0.0037802265625
note_on channel=0 note=69 velocity=105 time=0.02457147265625
note_on channel=0 note=81 velocity=105 time=0
note_off channel=0 note=69 velocity=0 time=0.158769515625
note_off channel=0 note=81 velocity=0 time=0
note_on channel=0 note=71 velocity=103 time=0.083164984375
note_on channel=0 note=83 velocity=103 time=0
note_on channel=0 note=45 velocity=86 time=0.11907713671875
note_off channel=0 note=71 velocity=0 time=0.03969237890625
note_off channel=0 note=83 velocity=0 time=0
note_on channel=0 note=49 velocity=86 time=0.00189011328125
note_on channel=0 note=52 velocity=86 time=0.0415824921875
MetaMessage('time_signature', numerator=2, denominator=4, clocks_per_click=24, notated_32nd_notes_per_beat=8, time=0.03969237890625)
note_on channel=0 note=73 velocity=122 time=0
note_on channel=0 note=85 velocity=122 time=0
control_change channel=0 control=64 value=127 time=0
note_on channel=0 note=57 velocity=86 time=0
note_off channel=0 note=45 velocity=0 time=0
note_off channel=0 note=49 velocity=0 time=0
note_off channel=0 note=52 velocity=0 time=0
note_off channel=0 note=57 velocity=0 time=0.22870370703125
MetaMessage('set_tempo', tempo=468750, time=0.01323079296875)
control_change channel=0 control=64 value=0 time=0
note_on channel=0 note=57 velocity=80 time=0
note_off channel=0 note=73 velocity=0 time=0.2069091796875
note_off channel=0 note=85 velocity=0 time=0
note_off channel=0 note=57 velocity=0 time=0.0146484375
note_on channel=0 note=69 velocity=89 time=0.0128173828125
note_on channel=0 note=81 velocity=89 time=0
note_on channel=0 note=57 velocity=82 time=0
note_off channel=0 note=69 velocity=0 time=0.15380859375
note_off channel=0 note=81 velocity=0 time=0
note_off channel=0 note=57 velocity=0 time=0.0677490234375
note_on channel=0 note=71 velocity=107 time=0.0128173828125
note_on channel=0 note=83 velocity=107 time=0
note_on channel=0 note=57 velocity=80 time=0
note_off channel=0 note=57 velocity=0 time=0.1116943359375
note_on channel=0 note=45 velocity=86 time=0
note_on channel=0 note=49 velocity=86 time=0.040283203125
note_off channel=0 note=71 velocity=0 time=0.0018310546875
note_off channel=0 note=83 velocity=0 time=0
note_on channel=0 note=52 velocity=86 time=0.040283203125
note_on channel=0 note=73 velocity=107 time=0.040283203125
note_on channel=0 note=85 velocity=107 time=0
control_change channel=0 control=64 value=127 time=0
note_on channel=0 note=57 velocity=86 time=0
note_off channel=0 note=45 velocity=0 time=0
note_off channel=0 note=49 velocity=0 time=0
note_off channel=0 note=52 velocity=0 time=0
note_off channel=0 note=73 velocity=0 time=0.15380859375
note_off channel=0 note=85 velocity=0 time=0
note_off channel=0 note=57 velocity=0 time=0.0677490234375
note_on channel=0 note=71 velocity=92 time=0.0128173828125
note_on channel=0 note=83 velocity=92 time=0
control_change channel=0 control=64 value=0 time=0
note_on channel=0 note=57 velocity=81 time=0
note_off channel=0 note=71 velocity=0 time=0.15380859375
note_off channel=0 note=83 velocity=0 time=0
note_off channel=0 note=57 velocity=0 time=0.0677490234375
note_on channel=0 note=69 velocity=85 time=0.0128173828125
note_on channel=0 note=81 velocity=85 time=0
note_on channel=0 note=57 velocity=82 time=0
note_off channel=0 note=69 velocity=0 time=0.15380859375
note_off channel=0 note=81 velocity=0 time=0
note_off channel=0 note=57 velocity=0 time=0.0677490234375
note_on channel=0 note=68 velocity=99 time=0.0128173828125
note_on channel=0 note=80 velocity=99 time=0
note_on channel=0 note=57 velocity=86 time=0
note_off channel=0 note=57 velocity=0 time=0.1116943359375
note_on channel=0 note=38 velocity=83 time=0
note_on channel=0 note=42 velocity=83 time=0.040283203125
note_off channel=0 note=68 velocity=0 time=0.0018310546875
note_off channel=0 note=80 velocity=0 time=0
note_on channel=0 note=45 velocity=83 time=0.040283203125
note_on channel=0 note=66 velocity=91 time=0.040283203125
note_on channel=0 note=78 velocity=91 time=0
control_change channel=0 control=64 value=127 time=0
note_on channel=0 note=50 velocity=83 time=0
note_off channel=0 note=38 velocity=0 time=0
note_off channel=0 note=42 velocity=0 time=0
note_off channel=0 note=45 velocity=0 time=0
control_change channel=0 control=64 value=0 time=0.018310546875
note_off channel=0 note=66 velocity=0 time=0.135498046875
note_off channel=0 note=78 velocity=0 time=0
note_off channel=0 note=50 velocity=0 time=0.0677490234375
note_on channel=0 note=68 velocity=105 time=0.0128173828125
note_on channel=0 note=80 velocity=105 time=0
note_on channel=0 note=50 velocity=78 time=0
control_change channel=0 control=64 value=127 time=0.076904296875
note_off channel=0 note=50 velocity=0 time=0.010986328125
note_on channel=0 note=39 velocity=87 time=0
control_change channel=0 control=64 value=0 time=0.00732421875
note_on channel=0 note=42 velocity=87 time=0.029296875
note_off channel=0 note=68 velocity=0 time=0.029296875
note_off channel=0 note=80 velocity=0 time=0
note_on channel=0 note=45 velocity=87 time=0.0054931640625
note_on channel=0 note=69 velocity=104 time=0.0750732421875
note_on channel=0 note=81 velocity=104 time=0
note_on channel=0 note=51 velocity=87 time=0
note_off channel=0 note=39 velocity=0 time=0
note_off channel=0 note=42 velocity=0 time=0
note_off channel=0 note=45 velocity=0 time=0
note_off channel=0 note=69 velocity=0 time=0.15380859375
note_off channel=0 note=81 velocity=0 time=0
note_off channel=0 note=51 velocity=0 time=0.0677490234375
note_on channel=0 note=71 velocity=103 time=0.0128173828125
note_on channel=0 note=83 velocity=103 time=0
note_on channel=0 note=51 velocity=79 time=0
note_off channel=0 note=51 velocity=0 time=0.1116943359375
note_on channel=0 note=40 velocity=82 time=0
note_on channel=0 note=44 velocity=82 time=0.040283203125
note_off channel=0 note=71 velocity=0 time=0.0018310546875
note_off channel=0 note=83 velocity=0 time=0
note_on channel=0 note=47 velocity=82 time=0.040283203125
note_on channel=0 note=68 velocity=87 time=0.040283203125
note_on channel=0 note=80 velocity=87 time=0
control_change channel=0 control=64 value=127 time=0
note_on channel=0 note=52 velocity=82 time=0
note_off channel=0 note=40 velocity=0 time=0
note_off channel=0 note=44 velocity=0 time=0
note_off channel=0 note=47 velocity=0 time=0
note_off channel=0 note=68 velocity=0 time=0.15380859375
note_off channel=0 note=80 velocity=0 time=0
note_off channel=0 note=52 velocity=0 time=0.0677490234375
note_on channel=0 note=64 velocity=85 time=0.0128173828125
note_on channel=0 note=76 velocity=85 time=0
control_change channel=0 control=64 value=0 time=0
note_on channel=0 note=52 velocity=82 time=0
note_off channel=0 note=64 velocity=0 time=0.15380859375
note_off channel=0 note=76 velocity=0 time=0
note_off channel=0 note=52 velocity=0 time=0.0677490234375
note_on channel=0 note=69 velocity=108 time=0.0128173828125
note_on channel=0 note=81 velocity=108 time=0
note_on channel=0 note=52 velocity=76 time=0
note_off channel=0 note=69 velocity=0 time=0.15380859375
note_off channel=0 note=81 velocity=0 time=0
note_off channel=0 note=52 velocity=0 time=0.0677490234375
note_on channel=0 note=71 velocity=104 time=0.0128173828125
note_on channel=0 note=83 velocity=104 time=0
note_on channel=0 note=52 velocity=80 time=0
note_off channel=0 note=52 velocity=0 time=0.1336669921875
note_on channel=0 note=45 velocity=88 time=0
note_off channel=0 note=71 velocity=0 time=0.0201416015625
note_off channel=0 note=83 velocity=0 time=0
note_on channel=0 note=49 velocity=88 time=0.010986328125
note_on channel=0 note=52 velocity=88 time=0.029296875
note_on channel=0 note=73 velocity=125 time=0.040283203125
note_on channel=0 note=85 velocity=125 time=0
control_change channel=0 control=64 value=127 time=0
note_on channel=0 note=57 velocity=88 time=0
note_off channel=0 note=45 velocity=0 time=0
note_off channel=0 note=49 velocity=0 time=0
note_off channel=0 note=52 velocity=0 time=0
note_off channel=0 note=57 velocity=0 time=0.2215576171875
control_change channel=0 control=64 value=0 time=0.0128173828125
note_on channel=0 note=57 velocity=80 time=0
note_off channel=0 note=73 velocity=0 time=0.2069091796875
note_off channel=0 note=85 velocity=0 time=0
note_off channel=0 note=57 velocity=0 time=0.0146484375
note_on channel=0 note=69 velocity=87 time=0.0128173828125
note_on channel=0 note=81 velocity=87 time=0
note_on channel=0 note=57 velocity=80 time=0
note_off channel=0 note=69 velocity=0 time=0.15380859375
note_off channel=0 note=81 velocity=0 time=0
note_off channel=0 note=57 velocity=0 time=0.0677490234375
note_on channel=0 note=71 velocity=101 time=0.0128173828125
note_on channel=0 note=83 velocity=101 time=0
note_on channel=0 note=57 velocity=78 time=0
note_off channel=0 note=57 velocity=0 time=0.1116943359375
note_on channel=0 note=45 velocity=86 time=0
note_on channel=0 note=49 velocity=86 time=0.040283203125
note_off channel=0 note=71 velocity=0 time=0.0018310546875
note_off channel=0 note=83 velocity=0 time=0
note_on channel=0 note=52 velocity=86 time=0.040283203125
note_on channel=0 note=73 velocity=105 time=0.040283203125
note_on channel=0 note=85 velocity=105 time=0
control_change channel=0 control=64 value=127 time=0
note_on channel=0 note=57 velocity=86 time=0
note_off channel=0 note=45 velocity=0 time=0
note_off channel=0 note=49 velocity=0 time=0
note_off channel=0 note=52 velocity=0 time=0
note_off channel=0 note=73 velocity=0 time=0.15380859375
note_off channel=0 note=85 velocity=0 time=0
note_off channel=0 note=57 velocity=0 time=0.0677490234375
note_on channel=0 note=71 velocity=94 time=0.0128173828125
note_on channel=0 note=83 velocity=94 time=0
control_change channel=0 control=64 value=0 time=0
note_on channel=0 note=57 velocity=79 time=0
note_off channel=0 note=71 velocity=0 time=0.15380859375
note_off channel=0 note=83 velocity=0 time=0
note_off channel=0 note=57 velocity=0 time=0.0677490234375
note_on channel=0 note=69 velocity=88 time=0.0128173828125
note_on channel=0 note=81 velocity=88 time=0
note_on channel=0 note=57 velocity=76 time=0
note_off channel=0 note=69 velocity=0 time=0.15380859375
note_off channel=0 note=81 velocity=0 time=0
note_off channel=0 note=57 velocity=0 time=0.0677490234375
note_on channel=0 note=68 velocity=94 time=0.0128173828125
note_on channel=0 note=80 velocity=94 time=0
note_on channel=0 note=57 velocity=76 time=0
note_off channel=0 note=57 velocity=0 time=0.1116943359375
note_on channel=0 note=38 velocity=80 time=0
note_on channel=0 note=42 velocity=80 time=0.040283203125
note_off channel=0 note=68 velocity=0 time=0.0018310546875
note_off channel=0 note=80 velocity=0 time=0
note_on channel=0 note=45 velocity=80 time=0.040283203125
note_on channel=0 note=66 velocity=90 time=0.040283203125
note_on channel=0 note=78 velocity=90 time=0
control_change channel=0 control=64 value=127 time=0
note_on channel=0 note=50 velocity=80 time=0
note_off channel=0 note=38 velocity=0 time=0
note_off channel=0 note=42 velocity=0 time=0
note_off channel=0 note=45 velocity=0 time=0
control_change channel=0 control=64 value=0 time=0.018310546875
note_off channel=0 note=66 velocity=0 time=0.135498046875
note_off channel=0 note=78 velocity=0 time=0
note_off channel=0 note=50 velocity=0 time=0.0677490234375
note_on channel=0 note=71 velocity=111 time=0.0128173828125
note_on channel=0 note=83 velocity=111 time=0
note_on channel=0 note=50 velocity=85 time=0
control_change channel=0 control=64 value=127 time=0.1007080078125
control_change channel=0 control=64 value=0 time=0.018310546875
note_off channel=0 note=50 velocity=0 time=0.003662109375
note_on channel=0 note=40 velocity=85 time=0
note_off channel=0 note=71 velocity=0 time=0.0311279296875
note_off channel=0 note=83 velocity=0 time=0
note_on channel=0 note=44 velocity=85 time=0.00732421875
note_on channel=0 note=47 velocity=85 time=0.032958984375
note_on channel=0 note=68 velocity=93 time=0.040283203125
note_on channel=0 note=80 velocity=93 time=0
note_on channel=0 note=52 velocity=85 time=0
note_off channel=0 note=40 velocity=0 time=0
note_off channel=0 note=44 velocity=0 time=0
note_off channel=0 note=47 velocity=0 time=0
note_off channel=0 note=68 velocity=0 time=0.15380859375
note_off channel=0 note=80 velocity=0 time=0
note_off channel=0 note=52 velocity=0 time=0.0677490234375
note_on channel=0 note=64 velocity=84 time=0.0128173828125
note_on channel=0 note=76 velocity=84 time=0
note_on channel=0 note=52 velocity=79 time=0
note_off channel=0 note=64 velocity=0 time=0.15380859375
note_off channel=0 note=76 velocity=0 time=0
note_off channel=0 note=52 velocity=0 time=0.0677490234375
MetaMessage('time_signature', numerator=1, denominator=4, clocks_per_click=24, notated_32nd_notes_per_beat=8, time=0.0128173828125)
note_on channel=0 note=69 velocity=107 time=0
note_on channel=0 note=81 velocity=107 time=0
note_on channel=0 note=45 velocity=74 time=0
note_off channel=0 note=69 velocity=0 time=0.4412841796875
note_off channel=0 note=81 velocity=0 time=0
note_off channel=0 note=45 velocity=0 time=0
MetaMessage('set_tempo', tempo=451126, time=0.025634765625)
MetaMessage('time_signature', numerator=2, denominator=4, clocks_per_click=24, notated_32nd_notes_per_beat=8, time=0.0017622109374999999)
MetaMessage('time_signature', numerator=1, denominator=4, clocks_per_click=24, notated_32nd_notes_per_beat=8, time=0)
note_on channel=0 note=69 velocity=93 time=0
note_on channel=0 note=81 velocity=93 time=0
note_off channel=0 note=69 velocity=0 time=0.14802571874999998
note_off channel=0 note=81 velocity=0 time=0
note_on channel=0 note=71 velocity=104 time=0.07753728124999999
note_on channel=0 note=83 velocity=104 time=0
note_on channel=0 note=45 velocity=83 time=0.102208234375
note_on channel=0 note=49 velocity=83 time=0.0422930625
note_off channel=0 note=71 velocity=0 time=0.0035244218749999998
note_off channel=0 note=83 velocity=0 time=0
note_on channel=0 note=52 velocity=83 time=0.037006429687499995
MetaMessage('time_signature', numerator=2, denominator=4, clocks_per_click=24, notated_32nd_notes_per_beat=8, time=0.0405308515625)
note_on channel=0 note=73 velocity=126 time=0
note_on channel=0 note=85 velocity=126 time=0
control_change channel=0 control=64 value=127 time=0
note_on channel=0 note=57 velocity=83 time=0
note_off channel=0 note=45 velocity=0 time=0
note_off channel=0 note=49 velocity=0 time=0
note_off channel=0 note=52 velocity=0 time=0
note_off channel=0 note=57 velocity=0 time=0.21322752343749998
MetaMessage('set_tempo', tempo=468750, time=0.0123354765625)
control_change channel=0 control=64 value=0 time=0
note_on channel=0 note=57 velocity=79 time=0
note_off channel=0 note=73 velocity=0 time=0.2069091796875
note_off channel=0 note=85 velocity=0 time=0
note_off channel=0 note=57 velocity=0 time=0.0146484375
note_on channel=0 note=69 velocity=92 time=0.0128173828125
note_on channel=0 note=81 velocity=92 time=0
note_on channel=0 note=57 velocity=79 time=0
note_off channel=0 note=69 velocity=0 time=0.15380859375
note_off channel=0 note=81 velocity=0 time=0
note_off channel=0 note=57 velocity=0 time=0.0677490234375
note_on channel=0 note=71 velocity=102 time=0.0128173828125
note_on channel=0 note=83 velocity=102 time=0
note_on channel=0 note=57 velocity=78 time=0
note_off channel=0 note=57 velocity=0 time=0.1116943359375
note_on channel=0 note=45 velocity=89 time=0
note_on channel=0 note=49 velocity=89 time=0.040283203125
note_off channel=0 note=71 velocity=0 time=0.0018310546875
note_off channel=0 note=83 velocity=0 time=0
note_on channel=0 note=52 velocity=89 time=0.040283203125
note_on channel=0 note=73 velocity=102 time=0.040283203125
note_on channel=0 note=85 velocity=102 time=0
control_change channel=0 control=64 value=127 time=0
note_on channel=0 note=57 velocity=89 time=0
note_off channel=0 note=45 velocity=0 time=0
note_off channel=0 note=49 velocity=0 time=0
note_off channel=0 note=52 velocity=0 time=0
note_off channel=0 note=73 velocity=0 time=0.15380859375
note_off channel=0 note=85 velocity=0 time=0
note_off channel=0 note=57 velocity=0 time=0.0677490234375
note_on channel=0 note=71 velocity=88 time=0.0128173828125
note_on channel=0 note=83 velocity=88 time=0
control_change channel=0 control=64 value=0 time=0
note_on channel=0 note=57 velocity=80 time=0
note_off channel=0 note=71 velocity=0 time=0.15380859375
note_off channel=0 note=83 velocity=0 time=0
note_off channel=0 note=57 velocity=0 time=0.0677490234375
note_on channel=0 note=69 velocity=88 time=0.0128173828125
note_on channel=0 note=81 velocity=88 time=0
note_on channel=0 note=57 velocity=82 time=0
note_off channel=0 note=69 velocity=0 time=0.15380859375
note_off channel=0 note=81 velocity=0 time=0
note_off channel=0 note=57 velocity=0 time=0.0677490234375
note_on channel=0 note=68 velocity=87 time=0.0128173828125
note_on channel=0 note=80 velocity=87 time=0
note_on channel=0 note=57 velocity=77 time=0
note_off channel=0 note=57 velocity=0 time=0.1116943359375
note_on channel=0 note=38 velocity=89 time=0
note_on channel=0 note=42 velocity=89 time=0.040283203125
note_off channel=0 note=68 velocity=0 time=0.0018310546875
note_off channel=0 note=80 velocity=0 time=0
note_on channel=0 note=45 velocity=89 time=0.040283203125
note_on channel=0 note=66 velocity=88 time=0.040283203125
note_on channel=0 note=78 velocity=88 time=0
control_change channel=0 control=64 value=127 time=0
note_on channel=0 note=50 velocity=89 time=0
note_off channel=0 note=38 velocity=0 time=0
note_off channel=0 note=42 velocity=0 time=0
note_off channel=0 note=45 velocity=0 time=0
control_change channel=0 control=64 value=0 time=0.018310546875
note_off channel=0 note=66 velocity=0 time=0.135498046875
note_off channel=0 note=78 velocity=0 time=0
note_off channel=0 note=50 velocity=0 time=0.0677490234375
note_on channel=0 note=68 velocity=102 time=0.0128173828125
note_on channel=0 note=80 velocity=102 time=0
note_on channel=0 note=50 velocity=77 time=0
control_change channel=0 control=64 value=127 time=0.076904296875
note_off channel=0 note=50 velocity=0 time=0.010986328125
note_on channel=0 note=39 velocity=92 time=0
control_change channel=0 control=64 value=0 time=0.00732421875
note_on channel=0 note=42 velocity=92 time=0.029296875
note_off channel=0 note=68 velocity=0 time=0.029296875
note_off channel=0 note=80 velocity=0 time=0
note_on channel=0 note=45 velocity=92 time=0.0054931640625
note_on channel=0 note=69 velocity=97 time=0.0750732421875
note_on channel=0 note=81 velocity=97 time=0
note_on channel=0 note=51 velocity=92 time=0
note_off channel=0 note=39 velocity=0 time=0
note_off channel=0 note=42 velocity=0 time=0
note_off channel=0 note=45 velocity=0 time=0
note_off channel=0 note=69 velocity=0 time=0.15380859375
note_off channel=0 note=81 velocity=0 time=0
note_off channel=0 note=51 velocity=0 time=0.0677490234375
note_on channel=0 note=71 velocity=100 time=0.0128173828125
note_on channel=0 note=83 velocity=100 time=0
note_on channel=0 note=51 velocity=82 time=0
note_off channel=0 note=51 velocity=0 time=0.1116943359375
note_on channel=0 note=40 velocity=88 time=0
note_on channel=0 note=44 velocity=88 time=0.040283203125
note_off channel=0 note=71 velocity=0 time=0.0018310546875
note_off channel=0 note=83 velocity=0 time=0
note_on channel=0 note=47 velocity=88 time=0.040283203125
note_on channel=0 note=68 velocity=91 time=0.040283203125
note_on channel=0 note=80 velocity=91 time=0
control_change channel=0 control=64 value=127 time=0
note_on channel=0 note=52 velocity=88 time=0
note_off channel=0 note=40 velocity=0 time=0
note_off channel=0 note=44 velocity=0 time=0
note_off channel=0 note=47 velocity=0 time=0
note_off channel=0 note=68 velocity=0 time=0.15380859375
note_off channel=0 note=80 velocity=0 time=0
note_off channel=0 note=52 velocity=0 time=0.0677490234375
note_on channel=0 note=64 velocity=83 time=0.0128173828125
note_on channel=0 note=76 velocity=83 time=0
control_change channel=0 control=64 value=0 time=0
note_on channel=0 note=52 velocity=77 time=0
note_off channel=0 note=64 velocity=0 time=0.15380859375
note_off channel=0 note=76 velocity=0 time=0
note_off channel=0 note=52 velocity=0 time=0.0677490234375
note_on channel=0 note=69 velocity=109 time=0.0128173828125
note_on channel=0 note=81 velocity=109 time=0
note_on channel=0 note=52 velocity=82 time=0
note_off channel=0 note=69 velocity=0 time=0.15380859375
note_off channel=0 note=81 velocity=0 time=0
note_off channel=0 note=52 velocity=0 time=0.0677490234375
note_on channel=0 note=71 velocity=107 time=0.0128173828125
note_on channel=0 note=83 velocity=107 time=0
note_on channel=0 note=52 velocity=76 time=0
note_off channel=0 note=52 velocity=0 time=0.1336669921875
note_on channel=0 note=45 velocity=83 time=0
note_off channel=0 note=71 velocity=0 time=0.0201416015625
note_off channel=0 note=83 velocity=0 time=0
note_on channel=0 note=49 velocity=83 time=0.010986328125
note_on channel=0 note=52 velocity=83 time=0.029296875
note_on channel=0 note=73 velocity=122 time=0.040283203125
note_on channel=0 note=85 velocity=122 time=0
control_change channel=0 control=64 value=127 time=0
note_on channel=0 note=57 velocity=83 time=0
note_off channel=0 note=45 velocity=0 time=0
note_off channel=0 note=49 velocity=0 time=0
note_off channel=0 note=52 velocity=0 time=0
note_off channel=0 note=57 velocity=0 time=0.2215576171875
control_change channel=0 control=64 value=0 time=0.0128173828125
note_on channel=0 note=57 velocity=82 time=0
note_off channel=0 note=73 velocity=0 time=0.2069091796875
note_off channel=0 note=85 velocity=0 time=0
note_off channel=0 note=57 velocity=0 time=0.0146484375
note_on channel=0 note=69 velocity=93 time=0.0128173828125
note_on channel=0 note=81 velocity=93 time=0
note_on channel=0 note=57 velocity=81 time=0
note_off channel=0 note=69 velocity=0 time=0.15380859375
note_off channel=0 note=81 velocity=0 time=0
note_off channel=0 note=57 velocity=0 time=0.0677490234375
note_on channel=0 note=71 velocity=101 time=0.0128173828125
note_on channel=0 note=83 velocity=101 time=0
note_on channel=0 note=57 velocity=80 time=0
note_off channel=0 note=57 velocity=0 time=0.1116943359375
note_on channel=0 note=45 velocity=88 time=0
note_on channel=0 note=49 velocity=88 time=0.040283203125
note_off channel=0 note=71 velocity=0 time=0.0018310546875
note_off channel=0 note=83 velocity=0 time=0
note_on channel=0 note=52 velocity=88 time=0.040283203125
note_on channel=0 note=73 velocity=103 time=0.040283203125
note_on channel=0 note=85 velocity=103 time=0
control_change channel=0 control=64 value=127 time=0
note_on channel=0 note=57 velocity=88 time=0
note_off channel=0 note=45 velocity=0 time=0
note_off channel=0 note=49 velocity=0 time=0
note_off channel=0 note=52 velocity=0 time=0
note_off channel=0 note=73 velocity=0 time=0.15380859375
note_off channel=0 note=85 velocity=0 time=0
note_off channel=0 note=57 velocity=0 time=0.0677490234375
note_on channel=0 note=71 velocity=88 time=0.0128173828125
note_on channel=0 note=83 velocity=88 time=0
control_change channel=0 control=64 value=0 time=0
note_on channel=0 note=57 velocity=78 time=0
note_off channel=0 note=71 velocity=0 time=0.15380859375
note_off channel=0 note=83 velocity=0 time=0
note_off channel=0 note=57 velocity=0 time=0.0677490234375
note_on channel=0 note=69 velocity=90 time=0.0128173828125
note_on channel=0 note=81 velocity=90 time=0
note_on channel=0 note=57 velocity=80 time=0
note_off channel=0 note=69 velocity=0 time=0.15380859375
note_off channel=0 note=81 velocity=0 time=0
note_off channel=0 note=57 velocity=0 time=0.0677490234375
note_on channel=0 note=68 velocity=96 time=0.0128173828125
note_on channel=0 note=80 velocity=96 time=0
note_on channel=0 note=57 velocity=80 time=0
note_off channel=0 note=57 velocity=0 time=0.1116943359375
note_on channel=0 note=38 velocity=83 time=0
note_on channel=0 note=42 velocity=83 time=0.040283203125
note_off channel=0 note=68 velocity=0 time=0.0018310546875
note_off channel=0 note=80 velocity=0 time=0
note_on channel=0 note=45 velocity=83 time=0.040283203125
note_on channel=0 note=66 velocity=85 time=0.040283203125
note_on channel=0 note=78 velocity=85 time=0
control_change channel=0 control=64 value=127 time=0
note_on channel=0 note=50 velocity=83 time=0
note_off channel=0 note=38 velocity=0 time=0
note_off channel=0 note=42 velocity=0 time=0
note_off channel=0 note=45 velocity=0 time=0
control_change channel=0 control=64 value=0 time=0.018310546875
note_off channel=0 note=66 velocity=0 time=0.135498046875
note_off channel=0 note=78 velocity=0 time=0
note_off channel=0 note=50 velocity=0 time=0.0677490234375
note_on channel=0 note=71 velocity=107 time=0.0128173828125
note_on channel=0 note=83 velocity=107 time=0
note_on channel=0 note=50 velocity=81 time=0
control_change channel=0 control=64 value=127 time=0.1007080078125
control_change channel=0 control=64 value=0 time=0.018310546875
note_off channel=0 note=50 velocity=0 time=0.003662109375
note_on channel=0 note=40 velocity=81 time=0
note_off channel=0 note=71 velocity=0 time=0.0311279296875
note_off channel=0 note=83 velocity=0 time=0
note_on channel=0 note=44 velocity=81 time=0.00732421875
note_on channel=0 note=47 velocity=81 time=0.032958984375
note_on channel=0 note=68 velocity=93 time=0.040283203125
note_on channel=0 note=80 velocity=93 time=0
note_on channel=0 note=52 velocity=81 time=0
note_off channel=0 note=40 velocity=0 time=0
note_off channel=0 note=44 velocity=0 time=0
note_off channel=0 note=47 velocity=0 time=0
note_off channel=0 note=68 velocity=0 time=0.15380859375
note_off channel=0 note=80 velocity=0 time=0
note_off channel=0 note=52 velocity=0 time=0.0677490234375
note_on channel=0 note=64 velocity=83 time=0.0128173828125
note_on channel=0 note=76 velocity=83 time=0
note_on channel=0 note=52 velocity=77 time=0
note_off channel=0 note=64 velocity=0 time=0.15380859375
note_off channel=0 note=76 velocity=0 time=0
note_off channel=0 note=52 velocity=0 time=0.0677490234375
MetaMessage('time_signature', numerator=1, denominator=4, clocks_per_click=24, notated_32nd_notes_per_beat=8, time=0.0128173828125)
note_on channel=0 note=69 velocity=110 time=0
note_on channel=0 note=81 velocity=110 time=0
note_on channel=0 note=45 velocity=70 time=0
note_off channel=0 note=69 velocity=0 time=0.4412841796875
note_off channel=0 note=81 velocity=0 time=0
note_off channel=0 note=45 velocity=0 time=0
MetaMessage('set_tempo', tempo=451126, time=0.025634765625)
note_on channel=0 note=71 velocity=47 time=0.0017622109374999999
note_off channel=0 note=71 velocity=0 time=0.1074948671875
note_on channel=0 note=69 velocity=60 time=0.0052866328125
note_off channel=0 note=69 velocity=0 time=0.1074948671875
note_on channel=0 note=68 velocity=58 time=0.0052866328125
note_off channel=0 note=68 velocity=0 time=0.1074948671875
note_on channel=0 note=69 velocity=67 time=0.0052866328125
note_off channel=0 note=69 velocity=0 time=0.1074948671875
MetaMessage('time_signature', numerator=2, denominator=4, clocks_per_click=24, notated_32nd_notes_per_beat=8, time=0.0052866328125)
note_on channel=0 note=72 velocity=72 time=0
note_on channel=0 note=57 velocity=42 time=0
note_off channel=0 note=72 velocity=0 time=0.14802571874999998
note_on channel=0 note=60 velocity=49 time=0.07753728124999999
note_on channel=0 note=64 velocity=49 time=0
note_off channel=0 note=57 velocity=0 time=0.0035244218749999998
note_off channel=0 note=60 velocity=0 time=0.2097031015625
note_off channel=0 note=64 velocity=0 time=0
note_on channel=0 note=74 velocity=55 time=0.0123354765625
note_on channel=0 note=60 velocity=48 time=0
note_on channel=0 note=64 velocity=48 time=0
note_on channel=0 note=72 velocity=56 time=0.11278149999999999
note_off channel=0 note=74 velocity=0 time=0.0017622109374999999
note_off channel=0 note=60 velocity=0 time=0.0334820078125
note_off channel=0 note=64 velocity=0 time=0
note_on channel=0 note=71 velocity=59 time=0.07753728124999999
note_on channel=0 note=60 velocity=46 time=0
note_on channel=0 note=64 velocity=46 time=0
note_off channel=0 note=72 velocity=0 time=0.0017622109374999999
note_on channel=0 note=72 velocity=63 time=0.1110192890625
note_off channel=0 note=71 velocity=0 time=0.0017622109374999999
note_off channel=0 note=60 velocity=0 time=0.0334820078125
note_off channel=0 note=64 velocity=0 time=0
MetaMessage('set_tempo', tempo=454544, time=0.07753728124999999)
note_on channel=0 note=76 velocity=69 time=0
note_on channel=0 note=57 velocity=46 time=0
note_off channel=0 note=72 velocity=0 time=0.0017755625
note_off channel=0 note=76 velocity=0 time=0.14737168750000001
note_on channel=0 note=60 velocity=52 time=0.07812475
note_on channel=0 note=64 velocity=52 time=0
note_off channel=0 note=57 velocity=0 time=0.003551125
note_off channel=0 note=60 velocity=0 time=0.2112919375
note_off channel=0 note=64 velocity=0 time=0
note_on channel=0 note=77 velocity=60 time=0.0124289375
note_on channel=0 note=60 velocity=48 time=0
note_on channel=0 note=64 velocity=48 time=0
note_on channel=0 note=76 velocity=55 time=0.113636
note_off channel=0 note=77 velocity=0 time=0.0017755625
note_off channel=0 note=60 velocity=0 time=0.0337356875
note_off channel=0 note=64 velocity=0 time=0
note_on channel=0 note=75 velocity=62 time=0.07812475
note_on channel=0 note=60 velocity=49 time=0
note_on channel=0 note=64 velocity=49 time=0
note_off channel=0 note=76 velocity=0 time=0.0017755625
note_on channel=0 note=76 velocity=63 time=0.1118604375
note_off channel=0 note=75 velocity=0 time=0.0017755625
note_off channel=0 note=60 velocity=0 time=0.0337356875
note_off channel=0 note=64 velocity=0 time=0
note_on channel=0 note=83 velocity=76 time=0.07812475
note_on channel=0 note=57 velocity=48 time=0
note_off channel=0 note=76 velocity=0 time=0.0017755625
note_on channel=0 note=81 velocity=64 time=0.1118604375
note_off channel=0 note=83 velocity=0 time=0.0017755625
note_off channel=0 note=57 velocity=0 time=0.0337356875
note_on channel=0 note=80 velocity=67 time=0.07812475
note_on channel=0 note=60 velocity=61 time=0
note_on channel=0 note=64 velocity=61 time=0
note_off channel=0 note=81 velocity=0 time=0.0017755625
note_on channel=0 note=81 velocity=75 time=0.1118604375
note_off channel=0 note=80 velocity=0 time=0.0017755625
note_off channel=0 note=60 velocity=0 time=0.0337356875
note_off channel=0 note=64 velocity=0 time=0
note_on channel=0 note=83 velocity=68 time=0.07812475
note_on channel=0 note=57 velocity=53 time=0
note_off channel=0 note=81 velocity=0 time=0.0017755625
note_on channel=0 note=81 velocity=69 time=0.1118604375
note_off channel=0 note=83 velocity=0 time=0.0017755625
note_off channel=0 note=57 velocity=0 time=0.0337356875
note_on channel=0 note=80 velocity=68 time=0.07812475
note_on channel=0 note=60 velocity=68 time=0
note_on channel=0 note=64 velocity=68 time=0
note_off channel=0 note=81 velocity=0 time=0.0017755625
note_on channel=0 note=81 velocity=78 time=0.1118604375
note_off channel=0 note=80 velocity=0 time=0.0017755625
note_off channel=0 note=60 velocity=0 time=0.0337356875
note_off channel=0 note=64 velocity=0 time=0
note_on channel=0 note=84 velocity=86 time=0.07812475
note_on channel=0 note=57 velocity=63 time=0
note_off channel=0 note=81 velocity=0 time=0.0017755625
note_on channel=0 note=60 velocity=73 time=0.2254964375
note_on channel=0 note=64 velocity=73 time=0
note_off channel=0 note=57 velocity=0 time=0.003551125
note_off channel=0 note=84 velocity=0 time=0.2006385625
note_off channel=0 note=60 velocity=0 time=0.010653375
note_off channel=0 note=64 velocity=0 time=0
MetaMessage('set_tempo', tempo=458015, time=0.0124289375)
note_on channel=0 note=81 velocity=75 time=0
note_on channel=0 note=60 velocity=68 time=0
note_on channel=0 note=64 velocity=68 time=0
note_off channel=0 note=81 velocity=0 time=0.150286171875
note_off channel=0 note=60 velocity=0 time=0
note_off channel=0 note=64 velocity=0 time=0
note_on channel=0 note=84 velocity=85 time=0.078721328125
note_on channel=0 note=60 velocity=62 time=0
note_on channel=0 note=64 velocity=62 time=0
note_off channel=0 note=84 velocity=0 time=0.1467079296875
note_on channel=0 note=79 velocity=86 time=0
note_off channel=0 note=60 velocity=0 time=0.0035782421875
note_off channel=0 note=64 velocity=0 time=0
note_on channel=0 note=81 velocity=86 time=0.03757154296875
note_on channel=0 note=83 velocity=86 time=0.04114978515625
note_off channel=0 note=79 velocity=0 time=0
note_off channel=0 note=81 velocity=0 time=0
note_on channel=0 note=52 velocity=58 time=0
note_off channel=0 note=83 velocity=0 time=0.150286171875
note_off channel=0 note=52 velocity=0 time=0
note_on channel=0 note=78 velocity=78 time=0.078721328125
note_on channel=0 note=81 velocity=78 time=0
note_on channel=0 note=59 velocity=79 time=0
note_on channel=0 note=64 velocity=79 time=0
note_off channel=0 note=78 velocity=0 time=0.150286171875
note_off channel=0 note=81 velocity=0 time=0
note_off channel=0 note=59 velocity=0 time=0
note_off channel=0 note=64 velocity=0 time=0
note_on channel=0 note=76 velocity=73 time=0.078721328125
note_on channel=0 note=79 velocity=73 time=0
note_on channel=0 note=59 velocity=64 time=0
note_on channel=0 note=64 velocity=64 time=0
note_off channel=0 note=76 velocity=0 time=0.150286171875
note_off channel=0 note=79 velocity=0 time=0
note_off channel=0 note=59 velocity=0 time=0
note_off channel=0 note=64 velocity=0 time=0
note_on channel=0 note=78 velocity=85 time=0.078721328125
note_on channel=0 note=81 velocity=85 time=0
note_on channel=0 note=59 velocity=67 time=0
note_on channel=0 note=64 velocity=67 time=0
note_off channel=0 note=78 velocity=0 time=0.1467079296875
note_off channel=0 note=81 velocity=0 time=0
note_on channel=0 note=79 velocity=87 time=0
note_off channel=0 note=59 velocity=0 time=0.0035782421875
note_off channel=0 note=64 velocity=0 time=0
note_on channel=0 note=81 velocity=87 time=0.03757154296875
note_on channel=0 note=83 velocity=87 time=0.04114978515625
note_off channel=0 note=79 velocity=0 time=0
note_off channel=0 note=81 velocity=0 time=0
note_on channel=0 note=52 velocity=55 time=0
note_off channel=0 note=83 velocity=0 time=0.150286171875
note_off channel=0 note=52 velocity=0 time=0
note_on channel=0 note=78 velocity=72 time=0.078721328125
note_on channel=0 note=81 velocity=72 time=0
note_on channel=0 note=59 velocity=81 time=0
note_on channel=0 note=64 velocity=81 time=0
note_off channel=0 note=78 velocity=0 time=0.150286171875
note_off channel=0 note=81 velocity=0 time=0
note_off channel=0 note=59 velocity=0 time=0
note_off channel=0 note=64 velocity=0 time=0
note_on channel=0 note=76 velocity=71 time=0.078721328125
note_on channel=0 note=79 velocity=71 time=0
note_on channel=0 note=59 velocity=68 time=0
note_on channel=0 note=64 velocity=68 time=0
note_off channel=0 note=76 velocity=0 time=0.150286171875
note_off channel=0 note=79 velocity=0 time=0
note_off channel=0 note=59 velocity=0 time=0
note_off channel=0 note=64 velocity=0 time=0
note_on channel=0 note=78 velocity=94 time=0.078721328125
note_on channel=0 note=81 velocity=94 time=0
note_on channel=0 note=59 velocity=61 time=0
note_on channel=0 note=64 velocity=61 time=0
note_off channel=0 note=78 velocity=0 time=0.14849705078125
note_off channel=0 note=81 velocity=0 time=0
note_on channel=0 note=79 velocity=101 time=0
note_off channel=0 note=59 velocity=0 time=0.00178912109375
note_off channel=0 note=64 velocity=0 time=0
note_on channel=0 note=81 velocity=101 time=0.0393606640625
MetaMessage('set_tempo', tempo=465116, time=0.03757154296875)
note_on channel=0 note=83 velocity=101 time=0.001816859375
note_off channel=0 note=79 velocity=0 time=0
note_off channel=0 note=81 velocity=0 time=0
note_on channel=0 note=52 velocity=56 time=0
note_off channel=0 note=83 velocity=0 time=0.1526161875
note_off channel=0 note=52 velocity=0 time=0
note_on channel=0 note=78 velocity=93 time=0.0799418125
note_on channel=0 note=81 velocity=93 time=0
note_on channel=0 note=59 velocity=81 time=0
note_on channel=0 note=64 velocity=81 time=0
note_off channel=0 note=78 velocity=0 time=0.1526161875
note_off channel=0 note=81 velocity=0 time=0
note_off channel=0 note=59 velocity=0 time=0
note_off channel=0 note=64 velocity=0 time=0
note_on channel=0 note=76 velocity=90 time=0.0799418125
note_on channel=0 note=79 velocity=90 time=0
note_on channel=0 note=47 velocity=57 time=0
note_off channel=0 note=76 velocity=0 time=0.1526161875
note_off channel=0 note=79 velocity=0 time=0
note_off channel=0 note=47 velocity=0 time=0
note_on channel=0 note=75 velocity=85 time=0.0799418125
note_on channel=0 note=78 velocity=85 time=0
note_on channel=0 note=59 velocity=72 time=0
note_off channel=0 note=75 velocity=0 time=0.1526161875
note_off channel=0 note=78 velocity=0 time=0
note_off channel=0 note=59 velocity=0 time=0
MetaMessage('time_signature', numerator=1, denominator=4, clocks_per_click=24, notated_32nd_notes_per_beat=8, time=0.0799418125)
note_on channel=0 note=76 velocity=76 time=0
note_on channel=0 note=52 velocity=54 time=0
note_off channel=0 note=76 velocity=0 time=0.43786310937499995
note_off channel=0 note=52 velocity=0 time=0
MetaMessage('time_signature', numerator=2, denominator=4, clocks_per_click=24, notated_32nd_notes_per_beat=8, time=0.027252890624999998)
MetaMessage('time_signature', numerator=1, denominator=4, clocks_per_click=24, notated_32nd_notes_per_beat=8, time=0)
note_on channel=0 note=71 velocity=61 time=0
note_off channel=0 note=71 velocity=0 time=0.110828421875
note_on channel=0 note=69 velocity=54 time=0.005450578124999999
note_off channel=0 note=69 velocity=0 time=0.110828421875
note_on channel=0 note=68 velocity=58 time=0.005450578124999999
note_off channel=0 note=68 velocity=0 time=0.110828421875
note_on channel=0 note=69 velocity=66 time=0.005450578124999999
note_off channel=0 note=69 velocity=0 time=0.110828421875
MetaMessage('time_signature', numerator=2, denominator=4, clocks_per_click=24, notated_32nd_notes_per_beat=8, time=0.005450578124999999)
note_on channel=0 note=72 velocity=68 time=0
note_on channel=0 note=57 velocity=38 time=0
note_off channel=0 note=72 velocity=0 time=0.1526161875
note_on channel=0 note=60 velocity=44 time=0.0799418125
note_on channel=0 note=64 velocity=44 time=0
note_off channel=0 note=57 velocity=0 time=0.00363371875
note_off channel=0 note=60 velocity=0 time=0.21620626562499998
note_off channel=0 note=64 velocity=0 time=0
note_on channel=0 note=74 velocity=56 time=0.012718015624999999
note_on channel=0 note=60 velocity=49 time=0
note_on channel=0 note=64 velocity=49 time=0
note_on channel=0 note=72 velocity=53 time=0.116279
note_off channel=0 note=74 velocity=0 time=0.001816859375
note_off channel=0 note=60 velocity=0 time=0.034520328125
note_off channel=0 note=64 velocity=0 time=0
note_on channel=0 note=71 velocity=58 time=0.0799418125
note_on channel=0 note=60 velocity=47 time=0
note_on channel=0 note=64 velocity=47 time=0
note_off channel=0 note=72 velocity=0 time=0.001816859375
note_on channel=0 note=72 velocity=61 time=0.114462140625
note_off channel=0 note=71 velocity=0 time=0.001816859375
note_off channel=0 note=60 velocity=0 time=0.034520328125
note_off channel=0 note=64 velocity=0 time=0
MetaMessage('set_tempo', tempo=454544, time=0.0799418125)
note_on channel=0 note=76 velocity=71 time=0
note_on channel=0 note=57 velocity=46 time=0
note_off channel=0 note=72 velocity=0 time=0.0017755625
note_off channel=0 note=76 velocity=0 time=0.14737168750000001
note_on channel=0 note=60 velocity=55 time=0.07812475
note_on channel=0 note=64 velocity=55 time=0
note_off channel=0 note=57 velocity=0 time=0.003551125
note_off channel=0 note=60 velocity=0 time=0.2112919375
note_off channel=0 note=64 velocity=0 time=0
note_on channel=0 note=77 velocity=58 time=0.0124289375
note_on channel=0 note=60 velocity=49 time=0
note_on channel=0 note=64 velocity=49 time=0
note_on channel=0 note=76 velocity=55 time=0.113636
note_off channel=0 note=77 velocity=0 time=0.0017755625
note_off channel=0 note=60 velocity=0 time=0.0337356875
note_off channel=0 note=64 velocity=0 time=0
note_on channel=0 note=75 velocity=53 time=0.07812475
note_on channel=0 note=60 velocity=48 time=0
note_on channel=0 note=64 velocity=48 time=0
note_off channel=0 note=76 velocity=0 time=0.0017755625
note_on channel=0 note=76 velocity=57 time=0.1118604375
note_off channel=0 note=75 velocity=0 time=0.0017755625
note_off channel=0 note=60 velocity=0 time=0.0337356875
note_off channel=0 note=64 velocity=0 time=0
note_on channel=0 note=83 velocity=72 time=0.07812475
note_on channel=0 note=57 velocity=48 time=0
note_off channel=0 note=76 velocity=0 time=0.0017755625
note_on channel=0 note=81 velocity=68 time=0.1118604375
note_off channel=0 note=83 velocity=0 time=0.0017755625
note_off channel=0 note=57 velocity=0 time=0.0337356875
note_on channel=0 note=80 velocity=64 time=0.07812475
note_on channel=0 note=60 velocity=63 time=0
note_on channel=0 note=64 velocity=63 time=0
note_off channel=0 note=81 velocity=0 time=0.0017755625
note_on channel=0 note=81 velocity=75 time=0.1118604375
note_off channel=0 note=80 velocity=0 time=0.0017755625
note_off channel=0 note=60 velocity=0 time=0.0337356875
note_off channel=0 note=64 velocity=0 time=0
note_on channel=0 note=83 velocity=79 time=0.07812475
note_on channel=0 note=57 velocity=52 time=0
note_off channel=0 note=81 velocity=0 time=0.0017755625
note_on channel=0 note=81 velocity=68 time=0.1118604375
note_off channel=0 note=83 velocity=0 time=0.0017755625
note_off channel=0 note=57 velocity=0 time=0.0337356875
note_on channel=0 note=80 velocity=76 time=0.07812475
note_on channel=0 note=60 velocity=66 time=0
note_on channel=0 note=64 velocity=66 time=0
note_off channel=0 note=81 velocity=0 time=0.0017755625
note_on channel=0 note=81 velocity=84 time=0.1118604375
note_off channel=0 note=80 velocity=0 time=0.0017755625
note_off channel=0 note=60 velocity=0 time=0.0337356875
note_off channel=0 note=64 velocity=0 time=0
note_on channel=0 note=84 velocity=90 time=0.07812475
note_on channel=0 note=57 velocity=58 time=0
note_off channel=0 note=81 velocity=0 time=0.0017755625
note_on channel=0 note=60 velocity=65 time=0.2254964375
note_on channel=0 note=64 velocity=65 time=0
note_off channel=0 note=57 velocity=0 time=0.003551125
note_off channel=0 note=84 velocity=0 time=0.2006385625
note_off channel=0 note=60 velocity=0 time=0.010653375
note_off channel=0 note=64 velocity=0 time=0
MetaMessage('set_tempo', tempo=458015, time=0.0124289375)
note_on channel=0 note=81 velocity=76 time=0
note_on channel=0 note=60 velocity=67 time=0
note_on channel=0 note=64 velocity=67 time=0
note_off channel=0 note=81 velocity=0 time=0.150286171875
note_off channel=0 note=60 velocity=0 time=0
note_off channel=0 note=64 velocity=0 time=0
note_on channel=0 note=84 velocity=88 time=0.078721328125
note_on channel=0 note=60 velocity=59 time=0
note_on channel=0 note=64 velocity=59 time=0
note_off channel=0 note=84 velocity=0 time=0.1467079296875
note_on channel=0 note=79 velocity=85 time=0
note_off channel=0 note=60 velocity=0 time=0.0035782421875
note_off channel=0 note=64 velocity=0 time=0
note_on channel=0 note=81 velocity=85 time=0.03757154296875
note_on channel=0 note=83 velocity=85 time=0.04114978515625
note_off channel=0 note=79 velocity=0 time=0
note_off channel=0 note=81 velocity=0 time=0
note_on channel=0 note=52 velocity=55 time=0
note_off channel=0 note=83 velocity=0 time=0.150286171875
note_off channel=0 note=52 velocity=0 time=0
note_on channel=0 note=78 velocity=79 time=0.078721328125
note_on channel=0 note=81 velocity=79 time=0
note_on channel=0 note=59 velocity=81 time=0
note_on channel=0 note=64 velocity=81 time=0
note_off channel=0 note=78 velocity=0 time=0.150286171875
note_off channel=0 note=81 velocity=0 time=0
note_off channel=0 note=59 velocity=0 time=0
note_off channel=0 note=64 velocity=0 time=0
note_on channel=0 note=76 velocity=82 time=0.078721328125
note_on channel=0 note=79 velocity=82 time=0
note_on channel=0 note=59 velocity=64 time=0
note_on channel=0 note=64 velocity=64 time=0
note_off channel=0 note=76 velocity=0 time=0.150286171875
note_off channel=0 note=79 velocity=0 time=0
note_off channel=0 note=59 velocity=0 time=0
note_off channel=0 note=64 velocity=0 time=0
note_on channel=0 note=78 velocity=85 time=0.078721328125
note_on channel=0 note=81 velocity=85 time=0
note_on channel=0 note=59 velocity=65 time=0
note_on channel=0 note=64 velocity=65 time=0
note_off channel=0 note=78 velocity=0 time=0.1467079296875
note_off channel=0 note=81 velocity=0 time=0
note_on channel=0 note=79 velocity=88 time=0
note_off channel=0 note=59 velocity=0 time=0.0035782421875
note_off channel=0 note=64 velocity=0 time=0
note_on channel=0 note=81 velocity=88 time=0.03757154296875
note_on channel=0 note=83 velocity=88 time=0.04114978515625
note_off channel=0 note=79 velocity=0 time=0
note_off channel=0 note=81 velocity=0 time=0
note_on channel=0 note=52 velocity=58 time=0
note_off channel=0 note=83 velocity=0 time=0.150286171875
note_off channel=0 note=52 velocity=0 time=0
note_on channel=0 note=78 velocity=71 time=0.078721328125
note_on channel=0 note=81 velocity=71 time=0
note_on channel=0 note=59 velocity=79 time=0
note_on channel=0 note=64 velocity=79 time=0
note_off channel=0 note=78 velocity=0 time=0.150286171875
note_off channel=0 note=81 velocity=0 time=0
note_off channel=0 note=59 velocity=0 time=0
note_off channel=0 note=64 velocity=0 time=0
note_on channel=0 note=76 velocity=72 time=0.078721328125
note_on channel=0 note=79 velocity=72 time=0
note_on channel=0 note=59 velocity=67 time=0
note_on channel=0 note=64 velocity=67 time=0
note_off channel=0 note=76 velocity=0 time=0.150286171875
note_off channel=0 note=79 velocity=0 time=0
note_off channel=0 note=59 velocity=0 time=0
note_off channel=0 note=64 velocity=0 time=0
note_on channel=0 note=78 velocity=95 time=0.078721328125
note_on channel=0 note=81 velocity=95 time=0
note_on channel=0 note=59 velocity=63 time=0
note_on channel=0 note=64 velocity=63 time=0
note_off channel=0 note=78 velocity=0 time=0.14849705078125
note_off channel=0 note=81 velocity=0 time=0
note_on channel=0 note=79 velocity=104 time=0
note_off channel=0 note=59 velocity=0 time=0.00178912109375
note_off channel=0 note=64 velocity=0 time=0
note_on channel=0 note=81 velocity=104 time=0.0393606640625
MetaMessage('set_tempo', tempo=465116, time=0.03757154296875)
note_on channel=0 note=83 velocity=104 time=0.001816859375
note_off channel=0 note=79 velocity=0 time=0
note_off channel=0 note=81 velocity=0 time=0
note_on channel=0 note=52 velocity=55 time=0
note_off channel=0 note=83 velocity=0 time=0.1526161875
note_off channel=0 note=52 velocity=0 time=0
note_on channel=0 note=78 velocity=91 time=0.0799418125
note_on channel=0 note=81 velocity=91 time=0
note_on channel=0 note=59 velocity=78 time=0
note_on channel=0 note=64 velocity=78 time=0
note_off channel=0 note=78 velocity=0 time=0.1526161875
note_off channel=0 note=81 velocity=0 time=0
note_off channel=0 note=59 velocity=0 time=0
note_off channel=0 note=64 velocity=0 time=0
note_on channel=0 note=76 velocity=89 time=0.0799418125
note_on channel=0 note=79 velocity=89 time=0
note_on channel=0 note=47 velocity=56 time=0
note_off channel=0 note=76 velocity=0 time=0.1526161875
note_off channel=0 note=79 velocity=0 time=0
note_off channel=0 note=47 velocity=0 time=0
note_on channel=0 note=75 velocity=79 time=0.0799418125
note_on channel=0 note=78 velocity=79 time=0
note_on channel=0 note=59 velocity=68 time=0
note_off channel=0 note=75 velocity=0 time=0.1526161875
note_off channel=0 note=78 velocity=0 time=0
note_off channel=0 note=59 velocity=0 time=0
MetaMessage('time_signature', numerator=1, denominator=4, clocks_per_click=24, notated_32nd_notes_per_beat=8, time=0.0799418125)
note_on channel=0 note=76 velocity=73 time=0
note_on channel=0 note=52 velocity=57 time=0
note_off channel=0 note=76 velocity=0 time=0.43786310937499995
note_off channel=0 note=52 velocity=0 time=0
MetaMessage('set_tempo', tempo=447760, time=0.027252890624999998)
note_on channel=0 note=72 velocity=95 time=0
note_on channel=0 note=76 velocity=95 time=0
note_off channel=0 note=72 velocity=0 time=0.14692125
note_off channel=0 note=76 velocity=0 time=0
note_on channel=0 note=74 velocity=104 time=0.07695874999999999
note_on channel=0 note=77 velocity=104 time=0
note_off channel=0 note=74 velocity=0 time=0.14692125
note_off channel=0 note=77 velocity=0 time=0
MetaMessage('time_signature', numerator=2, denominator=4, clocks_per_click=24, notated_32nd_notes_per_beat=8, time=0.07695874999999999)
note_on channel=0 note=76 velocity=103 time=0
note_on channel=0 note=79 velocity=103 time=0
note_on channel=0 note=48 velocity=56 time=0
note_off channel=0 note=48 velocity=0 time=0.14692125
note_off channel=0 note=76 velocity=0 time=0.0087453125
note_off channel=0 note=79 velocity=0 time=0
note_on channel=0 note=76 velocity=95 time=0.0682134375
note_on channel=0 note=79 velocity=95 time=0
note_on channel=0 note=60 velocity=82 time=0
note_off channel=0 note=60 velocity=0 time=0.14692125
note_off channel=0 note=76 velocity=0 time=0.010494375
note_off channel=0 note=79 velocity=0 time=0
note_on channel=0 note=81 velocity=103 time=0.06646437499999999
note_on channel=0 note=52 velocity=64 time=0
note_off channel=0 note=81 velocity=0 time=0.11194
note_on channel=0 note=79 velocity=93 time=0
note_off channel=0 note=52 velocity=0 time=0.03498125
note_on channel=0 note=77 velocity=85 time=0.07695874999999999
note_on channel=0 note=64 velocity=80 time=0
note_off channel=0 note=79 velocity=0 time=0.0017490625
note_on channel=0 note=76 velocity=93 time=0.1101909375
note_off channel=0 note=77 velocity=0 time=0.0017490625
note_off channel=0 note=64 velocity=0 time=0.033232187499999996
note_on channel=0 note=74 velocity=92 time=0.07695874999999999
note_on channel=0 note=71 velocity=90 time=0
note_on channel=0 note=55 velocity=64 time=0
note_off channel=0 note=76 velocity=0 time=0.0017490625
MetaMessage('set_tempo', tempo=444443, time=0.2221309375)
note_on channel=0 note=67 velocity=84 time=0
note_off channel=0 note=71 velocity=0 time=0.0034722109375
note_off channel=0 note=55 velocity=0 time=0.19270770703124998
note_off channel=0 note=74 velocity=0 time=0.006944421875
note_off channel=0 note=67 velocity=0 time=0.006944421875
note_on channel=0 note=72 velocity=102 time=0.012152738281249999
note_on channel=0 note=76 velocity=102 time=0
note_off channel=0 note=72 velocity=0 time=0.14583285937499998
note_off channel=0 note=76 velocity=0 time=0
note_on channel=0 note=74 velocity=98 time=0.07638864062499999
note_on channel=0 note=77 velocity=98 time=0
note_off channel=0 note=74 velocity=0 time=0.14583285937499998
note_off channel=0 note=77 velocity=0 time=0
note_on channel=0 note=76 velocity=100 time=0.07638864062499999
note_on channel=0 note=79 velocity=100 time=0
note_on channel=0 note=48 velocity=54 time=0
note_off channel=0 note=48 velocity=0 time=0.14583285937499998
note_off channel=0 note=76 velocity=0 time=0.00868052734375
note_off channel=0 note=79 velocity=0 time=0
note_on channel=0 note=76 velocity=97 time=0.06770811328125
note_on channel=0 note=79 velocity=97 time=0
note_on channel=0 note=60 velocity=78 time=0
note_off channel=0 note=60 velocity=0 time=0.14583285937499998
note_off channel=0 note=76 velocity=0 time=0.0104166328125
note_off channel=0 note=79 velocity=0 time=0
note_on channel=0 note=81 velocity=104 time=0.0659720078125
note_on channel=0 note=52 velocity=64 time=0
note_off channel=0 note=81 velocity=0 time=0.11111075
note_on channel=0 note=79 velocity=90 time=0
note_off channel=0 note=52 velocity=0 time=0.034722109375
note_on channel=0 note=77 velocity=81 time=0.07638864062499999
note_on channel=0 note=64 velocity=78 time=0
note_off channel=0 note=79 velocity=0 time=0.00173610546875
note_on channel=0 note=76 velocity=90 time=0.10937464453125
note_off channel=0 note=77 velocity=0 time=0.00173610546875
note_off channel=0 note=64 velocity=0 time=0.03298600390625
note_on channel=0 note=71 velocity=82 time=0.07638864062499999
note_on channel=0 note=74 velocity=82 time=0
note_on channel=0 note=55 velocity=59 time=0
note_off channel=0 note=76 velocity=0 time=0.00173610546875
MetaMessage('set_tempo', tempo=454544, time=0.159721703125)
note_off channel=0 note=55 velocity=0 time=0.26278325
note_off channel=0 note=71 velocity=0 time=0.003551125
note_off channel=0 note=74 velocity=0 time=0
note_on channel=0 note=69 velocity=58 time=0.0230823125
note_on channel=0 note=72 velocity=58 time=0
note_off channel=0 note=69 velocity=0 time=0.14914725
note_off channel=0 note=72 velocity=0 time=0
note_on channel=0 note=71 velocity=70 time=0.07812475
note_on channel=0 note=74 velocity=70 time=0
note_off channel=0 note=71 velocity=0 time=0.14914725
note_off channel=0 note=74 velocity=0 time=0
note_on channel=0 note=72 velocity=62 time=0.07812475
note_on channel=0 note=76 velocity=62 time=0
note_on channel=0 note=45 velocity=32 time=0
note_off channel=0 note=72 velocity=0 time=0.14914725
note_off channel=0 note=76 velocity=0 time=0
note_off channel=0 note=45 velocity=0 time=0
note_on channel=0 note=72 velocity=62 time=0.07812475
note_on channel=0 note=76 velocity=62 time=0
note_on channel=0 note=57 velocity=41 time=0
note_off channel=0 note=72 velocity=0 time=0.14914725
note_off channel=0 note=76 velocity=0 time=0
note_off channel=0 note=57 velocity=0 time=0
note_on channel=0 note=77 velocity=66 time=0.07812475
note_on channel=0 note=48 velocity=33 time=0
note_off channel=0 note=77 velocity=0 time=0.1083093125
note_on channel=0 note=76 velocity=59 time=0.0053266875
note_off channel=0 note=48 velocity=0 time=0.03551125
note_off channel=0 note=76 velocity=0 time=0.0727980625
note_on channel=0 note=74 velocity=60 time=0.0053266875
note_on channel=0 note=60 velocity=43 time=0
note_off channel=0 note=74 velocity=0 time=0.1083093125
note_on channel=0 note=72 velocity=57 time=0.0053266875
note_off channel=0 note=60 velocity=0 time=0.03551125
note_off channel=0 note=72 velocity=0 time=0.0727980625
note_on channel=0 note=71 velocity=65 time=0.0053266875
note_on channel=0 note=68 velocity=87 time=0
note_on channel=0 note=52 velocity=33 time=0
note_off channel=0 note=68 velocity=0 time=0.21484306250000001
MetaMessage('set_tempo', tempo=451126, time=0.0124289375)
note_on channel=0 note=64 velocity=70 time=0
note_off channel=0 note=71 velocity=0 time=0.1991298359375
note_off channel=0 note=52 velocity=0 time=0
note_off channel=0 note=64 velocity=0 time=0.014097687499999999
note_on channel=0 note=69 velocity=66 time=0.0123354765625
note_on channel=0 note=72 velocity=66 time=0
note_off channel=0 note=69 velocity=0 time=0.14802571874999998
note_off channel=0 note=72 velocity=0 time=0
note_on channel=0 note=71 velocity=66 time=0.07753728124999999
note_on channel=0 note=74 velocity=66 time=0
note_off channel=0 note=71 velocity=0 time=0.14802571874999998
note_off channel=0 note=74 velocity=0 time=0
note_on channel=0 note=72 velocity=70 time=0.07753728124999999
note_on channel=0 note=76 velocity=70 time=0
note_on channel=0 note=45 velocity=29 time=0
note_off channel=0 note=72 velocity=0 time=0.14802571874999998
note_off channel=0 note=76 velocity=0 time=0
note_off channel=0 note=45 velocity=0 time=0
note_on channel=0 note=72 velocity=61 time=0.07753728124999999
note_on channel=0 note=76 velocity=61 time=0
note_on channel=0 note=57 velocity=37 time=0
note_off channel=0 note=72 velocity=0 time=0.14802571874999998
note_off channel=0 note=76 velocity=0 time=0
note_off channel=0 note=57 velocity=0 time=0
note_on channel=0 note=77 velocity=65 time=0.07753728124999999
note_on channel=0 note=48 velocity=32 time=0
note_off channel=0 note=77 velocity=0 time=0.1074948671875
note_on channel=0 note=76 velocity=65 time=0.0052866328125
note_off channel=0 note=48 velocity=0 time=0.03524421875
note_off channel=0 note=76 velocity=0 time=0.0722506484375
note_on channel=0 note=74 velocity=58 time=0.0052866328125
note_on channel=0 note=60 velocity=43 time=0
note_off channel=0 note=74 velocity=0 time=0.1074948671875
note_on channel=0 note=72 velocity=59 time=0.0052866328125
note_off channel=0 note=60 velocity=0 time=0.03524421875
note_off channel=0 note=72 velocity=0 time=0.0722506484375
note_on channel=0 note=68 velocity=61 time=0.0052866328125
note_on channel=0 note=71 velocity=61 time=0
note_on channel=0 note=52 velocity=36 time=0
note_off channel=0 note=68 velocity=0 time=0.42469283593749996
note_off channel=0 note=71 velocity=0 time=0
note_off channel=0 note=52 velocity=0 time=0
note_on channel=0 note=71 velocity=59 time=0.026433164062499997
note_on channel=0 note=69 velocity=56 time=0.11278149999999999
note_off channel=0 note=71 velocity=0 time=0.0017622109374999999
note_on channel=0 note=68 velocity=55 time=0.1110192890625
note_off channel=0 note=69 velocity=0 time=0.0017622109374999999
note_on channel=0 note=69 velocity=57 time=0.1110192890625
note_off channel=0 note=68 velocity=0 time=0.0017622109374999999
note_on channel=0 note=72 velocity=69 time=0.1110192890625
note_on channel=0 note=57 velocity=32 time=0
note_off channel=0 note=69 velocity=0 time=0.0017622109374999999
note_off channel=0 note=72 velocity=0 time=0.1462635078125
note_off channel=0 note=57 velocity=0 time=0
note_on channel=0 note=60 velocity=43 time=0.07753728124999999
note_on channel=0 note=64 velocity=43 time=0
note_off channel=0 note=60 velocity=0 time=0.14802571874999998
note_off channel=0 note=64 velocity=0 time=0
note_on channel=0 note=74 velocity=58 time=0.07753728124999999
note_on channel=0 note=60 velocity=36 time=0
note_on channel=0 note=64 velocity=36 time=0
note_on channel=0 note=72 velocity=54 time=0.11278149999999999
note_off channel=0 note=74 velocity=0 time=0.0017622109374999999
note_off channel=0 note=60 velocity=0 time=0.0334820078125
note_off channel=0 note=64 velocity=0 time=0
note_on channel=0 note=71 velocity=59 time=0.07753728124999999
note_on channel=0 note=60 velocity=34 time=0
note_on channel=0 note=64 velocity=34 time=0
note_off channel=0 note=72 velocity=0 time=0.0017622109374999999
note_on channel=0 note=72 velocity=64 time=0.1110192890625
note_off channel=0 note=71 velocity=0 time=0.0017622109374999999
note_off channel=0 note=60 velocity=0 time=0.0334820078125
note_off channel=0 note=64 velocity=0 time=0
note_on channel=0 note=76 velocity=62 time=0.07753728124999999
note_on channel=0 note=57 velocity=31 time=0
note_off channel=0 note=72 velocity=0 time=0.0017622109374999999
note_off channel=0 note=76 velocity=0 time=0.1462635078125
note_off channel=0 note=57 velocity=0 time=0
note_on channel=0 note=60 velocity=48 time=0.07753728124999999
note_on channel=0 note=64 velocity=48 time=0
note_off channel=0 note=60 velocity=0 time=0.14802571874999998
note_off channel=0 note=64 velocity=0 time=0
note_on channel=0 note=77 velocity=64 time=0.07753728124999999
note_on channel=0 note=60 velocity=40 time=0
note_on channel=0 note=64 velocity=40 time=0
note_on channel=0 note=76 velocity=60 time=0.11278149999999999
note_off channel=0 note=77 velocity=0 time=0.0017622109374999999
note_off channel=0 note=60 velocity=0 time=0.0334820078125
note_off channel=0 note=64 velocity=0 time=0
note_on channel=0 note=75 velocity=68 time=0.07753728124999999
note_on channel=0 note=60 velocity=42 time=0
note_on channel=0 note=64 velocity=42 time=0
note_off channel=0 note=76 velocity=0 time=0.0017622109374999999
note_on channel=0 note=76 velocity=68 time=0.1110192890625
note_off channel=0 note=75 velocity=0 time=0.0017622109374999999
note_off channel=0 note=60 velocity=0 time=0.0334820078125
note_off channel=0 note=64 velocity=0 time=0
note_on channel=0 note=83 velocity=96 time=0.07753728124999999
note_on channel=0 note=57 velocity=35 time=0
note_off channel=0 note=76 velocity=0 time=0.0017622109374999999
note_on channel=0 note=81 velocity=93 time=0.1110192890625
note_off channel=0 note=83 velocity=0 time=0.0017622109374999999
note_off channel=0 note=57 velocity=0 time=0.0986838125
note_on channel=0 note=80 velocity=75 time=0.0123354765625
note_on channel=0 note=60 velocity=44 time=0
note_on channel=0 note=64 velocity=44 time=0
note_off channel=0 note=81 velocity=0 time=0.0017622109374999999
note_on channel=0 note=81 velocity=74 time=0.1110192890625
note_off channel=0 note=80 velocity=0 time=0.0017622109374999999
note_off channel=0 note=60 velocity=0 time=0.0986838125
note_off channel=0 note=64 velocity=0 time=0
note_on channel=0 note=83 velocity=87 time=0.0123354765625
note_on channel=0 note=57 velocity=59 time=0
note_off channel=0 note=81 velocity=0 time=0.0017622109374999999
note_on channel=0 note=81 velocity=84 time=0.1110192890625
note_off channel=0 note=83 velocity=0 time=0.0017622109374999999
note_off channel=0 note=57 velocity=0 time=0.0986838125
note_on channel=0 note=80 velocity=73 time=0.0123354765625
note_on channel=0 note=60 velocity=72 time=0
note_on channel=0 note=64 velocity=72 time=0
note_off channel=0 note=81 velocity=0 time=0.0017622109374999999
note_on channel=0 note=81 velocity=73 time=0.1110192890625
note_off channel=0 note=80 velocity=0 time=0.0017622109374999999
note_off channel=0 note=60 velocity=0 time=0.0986838125
note_off channel=0 note=64 velocity=0 time=0
note_on channel=0 note=84 velocity=103 time=0.0123354765625
note_on channel=0 note=53 velocity=56 time=0
note_off channel=0 note=81 velocity=0 time=0.0017622109374999999
note_on channel=0 note=57 velocity=78 time=0.22380078906249998
note_on channel=0 note=63 velocity=78 time=0
note_off channel=0 note=53 velocity=0 time=0.0035244218749999998
note_off channel=0 note=84 velocity=0 time=0.1991298359375
note_off channel=0 note=57 velocity=0 time=0.010573265625
note_off channel=0 note=63 velocity=0 time=0
note_on channel=0 note=81 velocity=74 time=0.0123354765625
note_on channel=0 note=57 velocity=62 time=0
note_on channel=0 note=63 velocity=62 time=0
note_off channel=0 note=81 velocity=0 time=0.14802571874999998
note_off channel=0 note=57 velocity=0 time=0
note_off channel=0 note=63 velocity=0 time=0
note_on channel=0 note=83 velocity=84 time=0.07753728124999999
note_on channel=0 note=57 velocity=65 time=0
note_on channel=0 note=63 velocity=65 time=0
note_off channel=0 note=83 velocity=0 time=0.14802571874999998
note_off channel=0 note=57 velocity=0 time=0
note_off channel=0 note=63 velocity=0 time=0
note_on channel=0 note=84 velocity=85 time=0.07753728124999999
note_on channel=0 note=52 velocity=58 time=0
note_off channel=0 note=84 velocity=0 time=0.14802571874999998
note_off channel=0 note=52 velocity=0 time=0
note_on channel=0 note=83 velocity=79 time=0.07753728124999999
note_on channel=0 note=57 velocity=73 time=0
note_on channel=0 note=64 velocity=73 time=0
note_off channel=0 note=83 velocity=0 time=0.14802571874999998
note_off channel=0 note=57 velocity=0 time=0
note_off channel=0 note=64 velocity=0 time=0
note_on channel=0 note=81 velocity=73 time=0.07753728124999999
note_on channel=0 note=50 velocity=59 time=0
note_off channel=0 note=81 velocity=0 time=0.14802571874999998
note_off channel=0 note=50 velocity=0 time=0
note_on channel=0 note=80 velocity=75 time=0.07753728124999999
note_on channel=0 note=53 velocity=66 time=0
note_on channel=0 note=59 velocity=66 time=0
note_off channel=0 note=80 velocity=0 time=0.14802571874999998
note_off channel=0 note=53 velocity=0 time=0
note_off channel=0 note=59 velocity=0 time=0
note_on channel=0 note=81 velocity=82 time=0.07753728124999999
note_on channel=0 note=48 velocity=55 time=0
note_off channel=0 note=81 velocity=0 time=0.14802571874999998
note_off channel=0 note=48 velocity=0 time=0
note_on channel=0 note=76 velocity=71 time=0.07753728124999999
note_on channel=0 note=52 velocity=69 time=0
note_on channel=0 note=57 velocity=69 time=0
note_off channel=0 note=76 velocity=0 time=0.14802571874999998
note_off channel=0 note=52 velocity=0 time=0
note_off channel=0 note=57 velocity=0 time=0
note_on channel=0 note=77 velocity=82 time=0.07753728124999999
note_on channel=0 note=50 velocity=59 time=0
note_off channel=0 note=77 velocity=0 time=0.14802571874999998
note_off channel=0 note=50 velocity=0 time=0
note_on channel=0 note=74 velocity=70 time=0.07753728124999999
note_on channel=0 note=53 velocity=71 time=0
note_on channel=0 note=59 velocity=71 time=0
note_off channel=0 note=74 velocity=0 time=0.14802571874999998
note_off channel=0 note=53 velocity=0 time=0
note_off channel=0 note=59 velocity=0 time=0
MetaMessage('set_tempo', tempo=458015, time=0.07753728124999999)
note_on channel=0 note=72 velocity=72 time=0
note_on channel=0 note=52 velocity=64 time=0
note_on channel=0 note=57 velocity=64 time=0
note_off channel=0 note=52 velocity=0 time=0.150286171875
note_off channel=0 note=57 velocity=0 time=0
note_on channel=0 note=52 velocity=65 time=0.078721328125
note_on channel=0 note=57 velocity=65 time=0
note_off channel=0 note=52 velocity=0 time=0.150286171875
note_off channel=0 note=57 velocity=0 time=0
note_off channel=0 note=72 velocity=0 time=0.05188451171875
note_on channel=0 note=72 velocity=78 time=0.026836816406250002
note_on channel=0 note=52 velocity=64 time=0
note_on channel=0 note=56 velocity=64 time=0
note_off channel=0 note=72 velocity=0 time=0.07156484375
note_on channel=0 note=71 velocity=78 time=0.00894560546875
note_off channel=0 note=71 velocity=0 time=0.064408359375
note_off channel=0 note=52 velocity=0 time=0.00536736328125
note_off channel=0 note=56 velocity=0 time=0
note_on channel=0 note=72 velocity=78 time=0.0107347265625
note_off channel=0 note=72 velocity=0 time=0.064408359375
note_on channel=0 note=52 velocity=59 time=0.0035782421875
note_on channel=0 note=56 velocity=59 time=0
note_on channel=0 note=71 velocity=78 time=0.01252384765625
note_off channel=0 note=71 velocity=0 time=0.064408359375
note_on channel=0 note=69 velocity=71 time=0.03757154296875
note_off channel=0 note=52 velocity=0 time=0.035782421875
note_off channel=0 note=56 velocity=0 time=0
note_off channel=0 note=69 velocity=0 time=0.01968033203125
note_on channel=0 note=71 velocity=81 time=0.00178912109375
note_off channel=0 note=71 velocity=0 time=0.05546275390625
MetaMessage('time_signature', numerator=1, denominator=4, clocks_per_click=24, notated_32nd_notes_per_beat=8, time=0.00178912109375)
note_on channel=0 note=69 velocity=75 time=0
note_on channel=0 note=45 velocity=72 time=0
note_on channel=0 note=57 velocity=72 time=0
note_off channel=0 note=69 velocity=0 time=0.43117818359375
note_off channel=0 note=45 velocity=0 time=0
note_off channel=0 note=57 velocity=0 time=0
MetaMessage('set_tempo', tempo=472440, time=0.0250476953125)
MetaMessage('set_tempo', tempo=447760, time=0.0018454687499999999)
MetaMessage('time_signature', numerator=2, denominator=4, clocks_per_click=24, notated_32nd_notes_per_beat=8, time=0)
MetaMessage('time_signature', numerator=1, denominator=4, clocks_per_click=24, notated_32nd_notes_per_beat=8, time=0)
note_on channel=0 note=72 velocity=114 time=0
note_on channel=0 note=76 velocity=114 time=0
note_off channel=0 note=72 velocity=0 time=0.14692125
note_off channel=0 note=76 velocity=0 time=0
note_on channel=0 note=74 velocity=104 time=0.07695874999999999
note_on channel=0 note=77 velocity=104 time=0
note_off channel=0 note=74 velocity=0 time=0.14692125
note_off channel=0 note=77 velocity=0 time=0
MetaMessage('time_signature', numerator=2, denominator=4, clocks_per_click=24, notated_32nd_notes_per_beat=8, time=0.07695874999999999)
note_on channel=0 note=76 velocity=107 time=0
note_on channel=0 note=79 velocity=107 time=0
note_on channel=0 note=48 velocity=59 time=0
note_off channel=0 note=48 velocity=0 time=0.14692125
note_off channel=0 note=76 velocity=0 time=0.0087453125
note_off channel=0 note=79 velocity=0 time=0
note_on channel=0 note=76 velocity=98 time=0.0682134375
note_on channel=0 note=79 velocity=98 time=0
note_on channel=0 note=60 velocity=80 time=0
note_off channel=0 note=60 velocity=0 time=0.14692125
note_off channel=0 note=76 velocity=0 time=0.010494375
note_off channel=0 note=79 velocity=0 time=0
note_on channel=0 note=81 velocity=103 time=0.06646437499999999
note_on channel=0 note=52 velocity=58 time=0
note_off channel=0 note=81 velocity=0 time=0.11194
note_on channel=0 note=79 velocity=94 time=0
note_off channel=0 note=52 velocity=0 time=0.03498125
note_on channel=0 note=77 velocity=86 time=0.07695874999999999
note_on channel=0 note=64 velocity=83 time=0
note_off channel=0 note=79 velocity=0 time=0.0017490625
note_on channel=0 note=76 velocity=89 time=0.1101909375
note_off channel=0 note=77 velocity=0 time=0.0017490625
note_off channel=0 note=64 velocity=0 time=0.033232187499999996
note_on channel=0 note=74 velocity=77 time=0.07695874999999999
note_on channel=0 note=71 velocity=90 time=0
note_on channel=0 note=55 velocity=62 time=0
note_off channel=0 note=76 velocity=0 time=0.0017490625
MetaMessage('set_tempo', tempo=444443, time=0.2221309375)
note_on channel=0 note=67 velocity=86 time=0
note_off channel=0 note=71 velocity=0 time=0.0034722109375
note_off channel=0 note=55 velocity=0 time=0.19270770703124998
note_off channel=0 note=74 velocity=0 time=0.006944421875
note_off channel=0 note=67 velocity=0 time=0.006944421875
note_on channel=0 note=72 velocity=102 time=0.012152738281249999
note_on channel=0 note=76 velocity=102 time=0
note_off channel=0 note=72 velocity=0 time=0.14583285937499998
note_off channel=0 note=76 velocity=0 time=0
note_on channel=0 note=74 velocity=101 time=0.07638864062499999
note_on channel=0 note=77 velocity=101 time=0
note_off channel=0 note=74 velocity=0 time=0.14583285937499998
note_off channel=0 note=77 velocity=0 time=0
note_on channel=0 note=76 velocity=105 time=0.07638864062499999
note_on channel=0 note=79 velocity=105 time=0
note_on channel=0 note=48 velocity=50 time=0
note_off channel=0 note=48 velocity=0 time=0.14583285937499998
note_off channel=0 note=76 velocity=0 time=0.00868052734375
note_off channel=0 note=79 velocity=0 time=0
note_on channel=0 note=76 velocity=93 time=0.06770811328125
note_on channel=0 note=79 velocity=93 time=0
note_on channel=0 note=60 velocity=78 time=0
note_off channel=0 note=60 velocity=0 time=0.14583285937499998
note_off channel=0 note=76 velocity=0 time=0.0104166328125
note_off channel=0 note=79 velocity=0 time=0
note_on channel=0 note=81 velocity=99 time=0.0659720078125
note_on channel=0 note=52 velocity=66 time=0
note_off channel=0 note=81 velocity=0 time=0.11111075
note_on channel=0 note=79 velocity=89 time=0
note_off channel=0 note=52 velocity=0 time=0.034722109375
note_on channel=0 note=77 velocity=85 time=0.07638864062499999
note_on channel=0 note=64 velocity=80 time=0
note_off channel=0 note=79 velocity=0 time=0.00173610546875
note_on channel=0 note=76 velocity=96 time=0.10937464453125
note_off channel=0 note=77 velocity=0 time=0.00173610546875
note_off channel=0 note=64 velocity=0 time=0.03298600390625
note_on channel=0 note=71 velocity=92 time=0.07638864062499999
note_on channel=0 note=74 velocity=92 time=0
note_on channel=0 note=55 velocity=61 time=0
note_off channel=0 note=76 velocity=0 time=0.00173610546875
MetaMessage('set_tempo', tempo=454544, time=0.159721703125)
note_off channel=0 note=55 velocity=0 time=0.26278325
note_off channel=0 note=71 velocity=0 time=0.003551125
note_off channel=0 note=74 velocity=0 time=0
note_on channel=0 note=69 velocity=57 time=0.0230823125
note_on channel=0 note=72 velocity=57 time=0
note_off channel=0 note=69 velocity=0 time=0.14914725
note_off channel=0 note=72 velocity=0 time=0
note_on channel=0 note=71 velocity=69 time=0.07812475
note_on channel=0 note=74 velocity=69 time=0
note_off channel=0 note=71 velocity=0 time=0.14914725
note_off channel=0 note=74 velocity=0 time=0
note_on channel=0 note=72 velocity=68 time=0.07812475
note_on channel=0 note=76 velocity=68 time=0
note_on channel=0 note=45 velocity=34 time=0
note_off channel=0 note=72 velocity=0 time=0.14914725
note_off channel=0 note=76 velocity=0 time=0
note_off channel=0 note=45 velocity=0 time=0
note_on channel=0 note=72 velocity=66 time=0.07812475
note_on channel=0 note=76 velocity=66 time=0
note_on channel=0 note=57 velocity=43 time=0
note_off channel=0 note=72 velocity=0 time=0.14914725
note_off channel=0 note=76 velocity=0 time=0
note_off channel=0 note=57 velocity=0 time=0
note_on channel=0 note=77 velocity=67 time=0.07812475
note_on channel=0 note=48 velocity=35 time=0
note_off channel=0 note=77 velocity=0 time=0.1083093125
note_on channel=0 note=76 velocity=61 time=0.0053266875
note_off channel=0 note=48 velocity=0 time=0.03551125
note_off channel=0 note=76 velocity=0 time=0.0727980625
note_on channel=0 note=74 velocity=58 time=0.0053266875
note_on channel=0 note=60 velocity=43 time=0
note_off channel=0 note=74 velocity=0 time=0.1083093125
note_on channel=0 note=72 velocity=58 time=0.0053266875
note_off channel=0 note=60 velocity=0 time=0.03551125
note_off channel=0 note=72 velocity=0 time=0.0727980625
note_on channel=0 note=71 velocity=58 time=0.0053266875
note_on channel=0 note=68 velocity=81 time=0
note_on channel=0 note=52 velocity=28 time=0
note_off channel=0 note=68 velocity=0 time=0.21484306250000001
MetaMessage('set_tempo', tempo=451126, time=0.0124289375)
note_on channel=0 note=64 velocity=71 time=0
note_off channel=0 note=71 velocity=0 time=0.1991298359375
note_off channel=0 note=52 velocity=0 time=0
note_off channel=0 note=64 velocity=0 time=0.014097687499999999
note_on channel=0 note=69 velocity=61 time=0.0123354765625
note_on channel=0 note=72 velocity=61 time=0
note_off channel=0 note=69 velocity=0 time=0.14802571874999998
note_off channel=0 note=72 velocity=0 time=0
note_on channel=0 note=71 velocity=72 time=0.07753728124999999
note_on channel=0 note=74 velocity=72 time=0
note_off channel=0 note=71 velocity=0 time=0.14802571874999998
note_off channel=0 note=74 velocity=0 time=0
note_on channel=0 note=72 velocity=67 time=0.07753728124999999
note_on channel=0 note=76 velocity=67 time=0
note_on channel=0 note=45 velocity=28 time=0
note_off channel=0 note=72 velocity=0 time=0.14802571874999998
note_off channel=0 note=76 velocity=0 time=0
note_off channel=0 note=45 velocity=0 time=0
note_on channel=0 note=72 velocity=66 time=0.07753728124999999
note_on channel=0 note=76 velocity=66 time=0
note_on channel=0 note=57 velocity=33 time=0
note_off channel=0 note=72 velocity=0 time=0.14802571874999998
note_off channel=0 note=76 velocity=0 time=0
note_off channel=0 note=57 velocity=0 time=0
note_on channel=0 note=77 velocity=69 time=0.07753728124999999
note_on channel=0 note=48 velocity=35 time=0
note_off channel=0 note=77 velocity=0 time=0.1074948671875
note_on channel=0 note=76 velocity=58 time=0.0052866328125
note_off channel=0 note=48 velocity=0 time=0.03524421875
note_off channel=0 note=76 velocity=0 time=0.0722506484375
note_on channel=0 note=74 velocity=63 time=0.0052866328125
note_on channel=0 note=60 velocity=48 time=0
note_off channel=0 note=74 velocity=0 time=0.1074948671875
note_on channel=0 note=72 velocity=60 time=0.0052866328125
note_off channel=0 note=60 velocity=0 time=0.03524421875
note_off channel=0 note=72 velocity=0 time=0.0722506484375
note_on channel=0 note=68 velocity=60 time=0.0052866328125
note_on channel=0 note=71 velocity=60 time=0
note_on channel=0 note=52 velocity=32 time=0
note_off channel=0 note=68 velocity=0 time=0.42469283593749996
note_off channel=0 note=71 velocity=0 time=0
note_off channel=0 note=52 velocity=0 time=0
note_on channel=0 note=71 velocity=66 time=0.026433164062499997
note_on channel=0 note=69 velocity=61 time=0.11278149999999999
note_off channel=0 note=71 velocity=0 time=0.0017622109374999999
note_on channel=0 note=68 velocity=61 time=0.1110192890625
note_off channel=0 note=69 velocity=0 time=0.0017622109374999999
note_on channel=0 note=69 velocity=64 time=0.1110192890625
note_off channel=0 note=68 velocity=0 time=0.0017622109374999999
note_on channel=0 note=72 velocity=65 time=0.1110192890625
note_on channel=0 note=57 velocity=35 time=0
note_off channel=0 note=69 velocity=0 time=0.0017622109374999999
note_off channel=0 note=72 velocity=0 time=0.1462635078125
note_off channel=0 note=57 velocity=0 time=0
note_on channel=0 note=60 velocity=39 time=0.07753728124999999
note_on channel=0 note=64 velocity=39 time=0
note_off channel=0 note=60 velocity=0 time=0.14802571874999998
note_off channel=0 note=64 velocity=0 time=0
note_on channel=0 note=74 velocity=59 time=0.07753728124999999
note_on channel=0 note=60 velocity=40 time=0
note_on channel=0 note=64 velocity=40 time=0
note_on channel=0 note=72 velocity=54 time=0.11278149999999999
note_off channel=0 note=74 velocity=0 time=0.0017622109374999999
note_off channel=0 note=60 velocity=0 time=0.0334820078125
note_off channel=0 note=64 velocity=0 time=0
note_on channel=0 note=71 velocity=62 time=0.07753728124999999
note_on channel=0 note=60 velocity=35 time=0
note_on channel=0 note=64 velocity=35 time=0
note_off channel=0 note=72 velocity=0 time=0.0017622109374999999
note_on channel=0 note=72 velocity=65 time=0.1110192890625
note_off channel=0 note=71 velocity=0 time=0.0017622109374999999
note_off channel=0 note=60 velocity=0 time=0.0334820078125
note_off channel=0 note=64 velocity=0 time=0
note_on channel=0 note=76 velocity=68 time=0.07753728124999999
note_on channel=0 note=57 velocity=38 time=0
note_off channel=0 note=72 velocity=0 time=0.0017622109374999999
note_off channel=0 note=76 velocity=0 time=0.1462635078125
note_off channel=0 note=57 velocity=0 time=0
note_on channel=0 note=60 velocity=47 time=0.07753728124999999
note_on channel=0 note=64 velocity=47 time=0
note_off channel=0 note=60 velocity=0 time=0.14802571874999998
note_off channel=0 note=64 velocity=0 time=0
note_on channel=0 note=77 velocity=65 time=0.07753728124999999
note_on channel=0 note=60 velocity=37 time=0
note_on channel=0 note=64 velocity=37 time=0
note_on channel=0 note=76 velocity=65 time=0.11278149999999999
note_off channel=0 note=77 velocity=0 time=0.0017622109374999999
note_off channel=0 note=60 velocity=0 time=0.0334820078125
note_off channel=0 note=64 velocity=0 time=0
note_on channel=0 note=75 velocity=65 time=0.07753728124999999
note_on channel=0 note=60 velocity=38 time=0
note_on channel=0 note=64 velocity=38 time=0
note_off channel=0 note=76 velocity=0 time=0.0017622109374999999
note_on channel=0 note=76 velocity=71 time=0.1110192890625
note_off channel=0 note=75 velocity=0 time=0.0017622109374999999
note_off channel=0 note=60 velocity=0 time=0.0334820078125
note_off channel=0 note=64 velocity=0 time=0
note_on channel=0 note=83 velocity=96 time=0.07753728124999999
note_on channel=0 note=57 velocity=35 time=0
note_off channel=0 note=76 velocity=0 time=0.0017622109374999999
note_on channel=0 note=81 velocity=93 time=0.1110192890625
note_off channel=0 note=83 velocity=0 time=0.0017622109374999999
note_off channel=0 note=57 velocity=0 time=0.0986838125
note_on channel=0 note=80 velocity=78 time=0.0123354765625
note_on channel=0 note=60 velocity=43 time=0
note_on channel=0 note=64 velocity=43 time=0
note_off channel=0 note=81 velocity=0 time=0.0017622109374999999
note_on channel=0 note=81 velocity=83 time=0.1110192890625
note_off channel=0 note=80 velocity=0 time=0.0017622109374999999
note_off channel=0 note=60 velocity=0 time=0.0986838125
note_off channel=0 note=64 velocity=0 time=0
note_on channel=0 note=83 velocity=83 time=0.0123354765625
note_on channel=0 note=57 velocity=62 time=0
note_off channel=0 note=81 velocity=0 time=0.0017622109374999999
note_on channel=0 note=81 velocity=81 time=0.1110192890625
note_off channel=0 note=83 velocity=0 time=0.0017622109374999999
note_off channel=0 note=57 velocity=0 time=0.0986838125
note_on channel=0 note=80 velocity=82 time=0.0123354765625
note_on channel=0 note=60 velocity=75 time=0
note_on channel=0 note=64 velocity=75 time=0
note_off channel=0 note=81 velocity=0 time=0.0017622109374999999
note_on channel=0 note=81 velocity=88 time=0.1110192890625
note_off channel=0 note=80 velocity=0 time=0.0017622109374999999
note_off channel=0 note=60 velocity=0 time=0.0986838125
note_off channel=0 note=64 velocity=0 time=0
note_on channel=0 note=84 velocity=105 time=0.0123354765625
note_on channel=0 note=53 velocity=57 time=0
note_off channel=0 note=81 velocity=0 time=0.0017622109374999999
note_on channel=0 note=57 velocity=79 time=0.22380078906249998
note_on channel=0 note=63 velocity=79 time=0
note_off channel=0 note=53 velocity=0 time=0.0035244218749999998
note_off channel=0 note=84 velocity=0 time=0.1991298359375
note_off channel=0 note=57 velocity=0 time=0.010573265625
note_off channel=0 note=63 velocity=0 time=0
note_on channel=0 note=81 velocity=74 time=0.0123354765625
note_on channel=0 note=57 velocity=62 time=0
note_on channel=0 note=63 velocity=62 time=0
note_off channel=0 note=81 velocity=0 time=0.14802571874999998
note_off channel=0 note=57 velocity=0 time=0
note_off channel=0 note=63 velocity=0 time=0
note_on channel=0 note=83 velocity=85 time=0.07753728124999999
note_on channel=0 note=57 velocity=65 time=0
note_on channel=0 note=63 velocity=65 time=0
note_off channel=0 note=83 velocity=0 time=0.14802571874999998
note_off channel=0 note=57 velocity=0 time=0
note_off channel=0 note=63 velocity=0 time=0
note_on channel=0 note=84 velocity=83 time=0.07753728124999999
note_on channel=0 note=52 velocity=57 time=0
note_off channel=0 note=84 velocity=0 time=0.14802571874999998
note_off channel=0 note=52 velocity=0 time=0
note_on channel=0 note=83 velocity=78 time=0.07753728124999999
note_on channel=0 note=57 velocity=79 time=0
note_on channel=0 note=64 velocity=79 time=0
note_off channel=0 note=83 velocity=0 time=0.14802571874999998
note_off channel=0 note=57 velocity=0 time=0
note_off channel=0 note=64 velocity=0 time=0
note_on channel=0 note=81 velocity=76 time=0.07753728124999999
note_on channel=0 note=50 velocity=61 time=0
note_off channel=0 note=81 velocity=0 time=0.14802571874999998
note_off channel=0 note=50 velocity=0 time=0
note_on channel=0 note=80 velocity=78 time=0.07753728124999999
note_on channel=0 note=53 velocity=72 time=0
note_on channel=0 note=59 velocity=72 time=0
note_off channel=0 note=80 velocity=0 time=0.14802571874999998
note_off channel=0 note=53 velocity=0 time=0
note_off channel=0 note=59 velocity=0 time=0
note_on channel=0 note=81 velocity=83 time=0.07753728124999999
note_on channel=0 note=48 velocity=57 time=0
note_off channel=0 note=81 velocity=0 time=0.14802571874999998
note_off channel=0 note=48 velocity=0 time=0
note_on channel=0 note=76 velocity=66 time=0.07753728124999999
note_on channel=0 note=52 velocity=65 time=0
note_on channel=0 note=57 velocity=65 time=0
note_off channel=0 note=76 velocity=0 time=0.14802571874999998
note_off channel=0 note=52 velocity=0 time=0
note_off channel=0 note=57 velocity=0 time=0
note_on channel=0 note=77 velocity=84 time=0.07753728124999999
note_on channel=0 note=50 velocity=60 time=0
note_off channel=0 note=77 velocity=0 time=0.14802571874999998
note_off channel=0 note=50 velocity=0 time=0
note_on channel=0 note=74 velocity=72 time=0.07753728124999999
note_on channel=0 note=53 velocity=72 time=0
note_on channel=0 note=59 velocity=72 time=0
note_off channel=0 note=74 velocity=0 time=0.14802571874999998
note_off channel=0 note=53 velocity=0 time=0
note_off channel=0 note=59 velocity=0 time=0
MetaMessage('set_tempo', tempo=458015, time=0.07753728124999999)
note_on channel=0 note=72 velocity=71 time=0
note_on channel=0 note=52 velocity=64 time=0
note_on channel=0 note=57 velocity=64 time=0
note_off channel=0 note=52 velocity=0 time=0.150286171875
note_off channel=0 note=57 velocity=0 time=0
note_on channel=0 note=52 velocity=61 time=0.078721328125
note_on channel=0 note=57 velocity=61 time=0
note_off channel=0 note=52 velocity=0 time=0.150286171875
note_off channel=0 note=57 velocity=0 time=0
note_off channel=0 note=72 velocity=0 time=0.05188451171875
note_on channel=0 note=72 velocity=76 time=0.026836816406250002
note_on channel=0 note=52 velocity=64 time=0
note_on channel=0 note=56 velocity=64 time=0
note_off channel=0 note=72 velocity=0 time=0.07156484375
note_on channel=0 note=71 velocity=76 time=0.00894560546875
note_off channel=0 note=71 velocity=0 time=0.064408359375
note_off channel=0 note=52 velocity=0 time=0.00536736328125
note_off channel=0 note=56 velocity=0 time=0
note_on channel=0 note=72 velocity=76 time=0.0107347265625
note_off channel=0 note=72 velocity=0 time=0.064408359375
note_on channel=0 note=52 velocity=65 time=0.0035782421875
note_on channel=0 note=56 velocity=65 time=0
note_on channel=0 note=71 velocity=76 time=0.01252384765625
note_off channel=0 note=71 velocity=0 time=0.064408359375
note_on channel=0 note=69 velocity=77 time=0.03757154296875
note_off channel=0 note=52 velocity=0 time=0.035782421875
note_off channel=0 note=56 velocity=0 time=0
note_off channel=0 note=69 velocity=0 time=0.01968033203125
note_on channel=0 note=71 velocity=82 time=0.00178912109375
note_off channel=0 note=71 velocity=0 time=0.05546275390625
MetaMessage('time_signature', numerator=1, denominator=4, clocks_per_click=24, notated_32nd_notes_per_beat=8, time=0.00178912109375)
note_on channel=0 note=69 velocity=77 time=0
note_on channel=0 note=45 velocity=59 time=0
note_on channel=0 note=57 velocity=59 time=0
note_off channel=0 note=69 velocity=0 time=0.43117818359375
note_off channel=0 note=45 velocity=0 time=0
note_off channel=0 note=57 velocity=0 time=0
MetaMessage('set_tempo', tempo=472440, time=0.0250476953125)
note_on channel=0 note=69 velocity=99 time=0.0018454687499999999
note_on channel=0 note=81 velocity=125 time=0.11810999999999999
note_off channel=0 note=69 velocity=0 time=0.0018454687499999999
note_on channel=0 note=71 velocity=77 time=0.11626453125
note_off channel=0 note=81 velocity=0 time=0.0018454687499999999
note_on channel=0 note=45 velocity=83 time=0.110728125
note_on channel=0 note=83 velocity=97 time=0.00553640625
note_off channel=0 note=71 velocity=0 time=0.0018454687499999999
note_on channel=0 note=49 velocity=83 time=0.03506390625
note_on channel=0 note=52 velocity=83 time=0.0406003125
MetaMessage('time_signature', numerator=2, denominator=4, clocks_per_click=24, notated_32nd_notes_per_beat=8, time=0.0406003125)
note_on channel=0 note=73 velocity=80 time=0
control_change channel=0 control=64 value=127 time=0
note_on channel=0 note=57 velocity=83 time=0
note_off channel=0 note=45 velocity=0 time=0
note_off channel=0 note=49 velocity=0 time=0
note_off channel=0 note=52 velocity=0 time=0
note_off channel=0 note=83 velocity=0 time=0.0018454687499999999
note_on channel=0 note=85 velocity=102 time=0.11626453125
note_off channel=0 note=73 velocity=0 time=0.0018454687499999999
note_off channel=0 note=57 velocity=0 time=0.10334625
note_off channel=0 note=85 velocity=0 time=0.00553640625
note_on channel=0 note=57 velocity=77 time=0.0073818749999999995
control_change channel=0 control=64 value=0 time=0.08673703125
note_off channel=0 note=57 velocity=0 time=0.1365646875
note_on channel=0 note=69 velocity=81 time=0.01291828125
note_on channel=0 note=57 velocity=81 time=0
note_on channel=0 note=81 velocity=109 time=0.11810999999999999
note_off channel=0 note=69 velocity=0 time=0.0018454687499999999
note_off channel=0 note=57 velocity=0 time=0.10334625
note_on channel=0 note=71 velocity=81 time=0.01291828125
note_on channel=0 note=57 velocity=79 time=0
note_off channel=0 note=81 velocity=0 time=0.0018454687499999999
note_off channel=0 note=57 velocity=0 time=0.110728125
note_on channel=0 note=45 velocity=89 time=0
note_on channel=0 note=83 velocity=101 time=0.00553640625
note_off channel=0 note=71 velocity=0 time=0.0018454687499999999
note_on channel=0 note=49 velocity=89 time=0.03506390625
note_on channel=0 note=52 velocity=89 time=0.0406003125
control_change channel=0 control=64 value=127 time=0.03875484375
note_on channel=0 note=73 velocity=74 time=0.0018454687499999999
note_on channel=0 note=57 velocity=89 time=0
note_off channel=0 note=45 velocity=0 time=0
note_off channel=0 note=49 velocity=0 time=0
note_off channel=0 note=52 velocity=0 time=0
note_off channel=0 note=83 velocity=0 time=0.0018454687499999999
note_on channel=0 note=85 velocity=93 time=0.11626453125
note_off channel=0 note=73 velocity=0 time=0.0018454687499999999
note_off channel=0 note=57 velocity=0 time=0.10334625
note_on channel=0 note=71 velocity=76 time=0.01291828125
note_on channel=0 note=57 velocity=84 time=0
note_off channel=0 note=85 velocity=0 time=0.0018454687499999999
note_on channel=0 note=83 velocity=95 time=0.11626453125
control_change channel=0 control=64 value=0 time=0
note_off channel=0 note=71 velocity=0 time=0.0018454687499999999
note_off channel=0 note=57 velocity=0 time=0.10334625
note_on channel=0 note=69 velocity=75 time=0.01291828125
note_on channel=0 note=57 velocity=80 time=0
note_off channel=0 note=83 velocity=0 time=0.0018454687499999999
note_on channel=0 note=81 velocity=90 time=0.11626453125
note_off channel=0 note=69 velocity=0 time=0.0018454687499999999
note_off channel=0 note=57 velocity=0 time=0.10334625
note_on channel=0 note=68 velocity=75 time=0.01291828125
note_on channel=0 note=57 velocity=81 time=0
note_off channel=0 note=81 velocity=0 time=0.0018454687499999999
note_off channel=0 note=57 velocity=0 time=0.110728125
note_on channel=0 note=38 velocity=83 time=0
note_on channel=0 note=80 velocity=91 time=0.00553640625
note_off channel=0 note=68 velocity=0 time=0.0018454687499999999
note_on channel=0 note=42 velocity=83 time=0.03506390625
note_on channel=0 note=45 velocity=83 time=0.0406003125
control_change channel=0 control=64 value=127 time=0.03875484375
note_on channel=0 note=66 velocity=69 time=0.0018454687499999999
note_on channel=0 note=50 velocity=83 time=0
note_off channel=0 note=38 velocity=0 time=0
note_off channel=0 note=42 velocity=0 time=0
note_off channel=0 note=45 velocity=0 time=0
note_off channel=0 note=80 velocity=0 time=0.0018454687499999999
note_on channel=0 note=78 velocity=82 time=0.11626453125
note_off channel=0 note=66 velocity=0 time=0.0018454687499999999
note_off channel=0 note=50 velocity=0 time=0.10334625
note_on channel=0 note=68 velocity=75 time=0.01291828125
control_change channel=0 control=64 value=0 time=0
control_change channel=0 control=64 value=127 time=0
note_on channel=0 note=50 velocity=82 time=0
note_off channel=0 note=78 velocity=0 time=0.0018454687499999999
note_off channel=0 note=50 velocity=0 time=0.09042796874999999
note_on channel=0 note=39 velocity=82 time=0
note_on channel=0 note=80 velocity=91 time=0.0258365625
note_off channel=0 note=68 velocity=0 time=0.0018454687499999999
note_on channel=0 note=42 velocity=82 time=0.0110728125
note_on channel=0 note=45 velocity=82 time=0.029527499999999998
note_on channel=0 note=69 velocity=76 time=0.07566421875
note_on channel=0 note=51 velocity=82 time=0
note_off channel=0 note=39 velocity=0 time=0
note_off channel=0 note=42 velocity=0 time=0
note_off channel=0 note=45 velocity=0 time=0
note_off channel=0 note=80 velocity=0 time=0.0018454687499999999
note_on channel=0 note=81 velocity=95 time=0.11626453125
note_off channel=0 note=69 velocity=0 time=0.0018454687499999999
note_off channel=0 note=51 velocity=0 time=0.10334625
note_on channel=0 note=71 velocity=74 time=0.01291828125
note_on channel=0 note=51 velocity=82 time=0
note_off channel=0 note=81 velocity=0 time=0.0018454687499999999
note_off channel=0 note=51 velocity=0 time=0.110728125
note_on channel=0 note=40 velocity=85 time=0
note_on channel=0 note=83 velocity=96 time=0.00553640625
control_change channel=0 control=64 value=0 time=0
note_off channel=0 note=71 velocity=0 time=0.0018454687499999999
note_on channel=0 note=44 velocity=85 time=0.03506390625
note_on channel=0 note=47 velocity=85 time=0.0406003125
note_on channel=0 note=68 velocity=79 time=0.0406003125
control_change channel=0 control=64 value=127 time=0
note_on channel=0 note=52 velocity=85 time=0
note_off channel=0 note=40 velocity=0 time=0
note_off channel=0 note=44 velocity=0 time=0
note_off channel=0 note=47 velocity=0 time=0
note_off channel=0 note=83 velocity=0 time=0.0018454687499999999
note_on channel=0 note=80 velocity=102 time=0.11626453125
note_off channel=0 note=68 velocity=0 time=0.0018454687499999999
note_off channel=0 note=52 velocity=0 time=0.10334625
note_on channel=0 note=64 velocity=76 time=0.01291828125
note_on channel=0 note=52 velocity=83 time=0
note_off channel=0 note=80 velocity=0 time=0.0018454687499999999
note_on channel=0 note=76 velocity=93 time=0.11626453125
control_change channel=0 control=64 value=0 time=0
note_off channel=0 note=64 velocity=0 time=0.0018454687499999999
note_off channel=0 note=52 velocity=0 time=0.10334625
note_off channel=0 note=76 velocity=0 time=0.00553640625
note_on channel=0 note=69 velocity=82 time=0.0073818749999999995
note_on channel=0 note=52 velocity=82 time=0
note_on channel=0 note=81 velocity=103 time=0.11810999999999999
note_off channel=0 note=69 velocity=0 time=0.0018454687499999999
note_off channel=0 note=52 velocity=0 time=0.10334625
note_on channel=0 note=71 velocity=84 time=0.01291828125
note_on channel=0 note=52 velocity=78 time=0
note_off channel=0 note=81 velocity=0 time=0.0018454687499999999
note_off channel=0 note=52 velocity=0 time=0.110728125
note_on channel=0 note=45 velocity=90 time=0
note_on channel=0 note=83 velocity=107 time=0.00553640625
note_off channel=0 note=71 velocity=0 time=0.0018454687499999999
note_on channel=0 note=49 velocity=90 time=0.03506390625
note_on channel=0 note=52 velocity=90 time=0.0406003125
control_change channel=0 control=64 value=127 time=0.03875484375
note_on channel=0 note=73 velocity=73 time=0.0018454687499999999
note_on channel=0 note=57 velocity=90 time=0
note_off channel=0 note=45 velocity=0 time=0
note_off channel=0 note=49 velocity=0 time=0
note_off channel=0 note=52 velocity=0 time=0
note_off channel=0 note=83 velocity=0 time=0.0018454687499999999
note_on channel=0 note=85 velocity=90 time=0.11626453125
note_off channel=0 note=73 velocity=0 time=0.0018454687499999999
note_off channel=0 note=57 velocity=0 time=0.10334625
note_off channel=0 note=85 velocity=0 time=0.00553640625
note_on channel=0 note=57 velocity=82 time=0.0073818749999999995
note_off channel=0 note=57 velocity=0 time=0.22330171875
note_on channel=0 note=69 velocity=85 time=0.01291828125
control_change channel=0 control=64 value=0 time=0
note_on channel=0 note=57 velocity=79 time=0
note_on channel=0 note=81 velocity=107 time=0.11810999999999999
note_off channel=0 note=69 velocity=0 time=0.0018454687499999999
note_off channel=0 note=57 velocity=0 time=0.10334625
note_on channel=0 note=71 velocity=73 time=0.01291828125
note_on channel=0 note=57 velocity=81 time=0
note_off channel=0 note=81 velocity=0 time=0.0018454687499999999
note_off channel=0 note=57 velocity=0 time=0.110728125
note_on channel=0 note=45 velocity=83 time=0
note_on channel=0 note=83 velocity=93 time=0.00553640625
note_off channel=0 note=71 velocity=0 time=0.0018454687499999999
note_on channel=0 note=49 velocity=83 time=0.03506390625
note_on channel=0 note=52 velocity=83 time=0.0406003125
note_on channel=0 note=73 velocity=81 time=0.0406003125
control_change channel=0 control=64 value=127 time=0
note_on channel=0 note=57 velocity=83 time=0
note_off channel=0 note=45 velocity=0 time=0
note_off channel=0 note=49 velocity=0 time=0
note_off channel=0 note=52 velocity=0 time=0
note_off channel=0 note=83 velocity=0 time=0.0018454687499999999
note_on channel=0 note=85 velocity=97 time=0.11626453125
note_off channel=0 note=73 velocity=0 time=0.0018454687499999999
note_off channel=0 note=57 velocity=0 time=0.10334625
note_on channel=0 note=71 velocity=75 time=0.01291828125
note_on channel=0 note=57 velocity=77 time=0
note_off channel=0 note=85 velocity=0 time=0.0018454687499999999
note_on channel=0 note=83 velocity=95 time=0.11626453125
control_change channel=0 control=64 value=0 time=0
note_off channel=0 note=71 velocity=0 time=0.0018454687499999999
note_off channel=0 note=57 velocity=0 time=0.10334625
note_on channel=0 note=69 velocity=72 time=0.01291828125
note_on channel=0 note=57 velocity=76 time=0
note_off channel=0 note=83 velocity=0 time=0.0018454687499999999
note_on channel=0 note=81 velocity=91 time=0.11626453125
note_off channel=0 note=69 velocity=0 time=0.0018454687499999999
note_off channel=0 note=57 velocity=0 time=0.10334625
note_on channel=0 note=68 velocity=71 time=0.01291828125
note_on channel=0 note=57 velocity=81 time=0
note_off channel=0 note=81 velocity=0 time=0.0018454687499999999
note_off channel=0 note=57 velocity=0 time=0.110728125
note_on channel=0 note=38 velocity=89 time=0
note_on channel=0 note=80 velocity=86 time=0.00553640625
note_off channel=0 note=68 velocity=0 time=0.0018454687499999999
note_on channel=0 note=42 velocity=89 time=0.03506390625
note_on channel=0 note=45 velocity=89 time=0.0406003125
note_on channel=0 note=66 velocity=68 time=0.0406003125
control_change channel=0 control=64 value=127 time=0
note_on channel=0 note=50 velocity=89 time=0
note_off channel=0 note=38 velocity=0 time=0
note_off channel=0 note=42 velocity=0 time=0
note_off channel=0 note=45 velocity=0 time=0
note_off channel=0 note=80 velocity=0 time=0.0018454687499999999
note_on channel=0 note=78 velocity=85 time=0.11626453125
note_off channel=0 note=66 velocity=0 time=0.0018454687499999999
note_off channel=0 note=50 velocity=0 time=0.10334625
note_on channel=0 note=71 velocity=83 time=0.01291828125
control_change channel=0 control=64 value=0 time=0
note_on channel=0 note=50 velocity=83 time=0
note_off channel=0 note=78 velocity=0 time=0.0018454687499999999
note_off channel=0 note=50 velocity=0 time=0.110728125
note_on channel=0 note=40 velocity=89 time=0
note_on channel=0 note=83 velocity=102 time=0.00553640625
control_change channel=0 control=64 value=127 time=0
note_off channel=0 note=71 velocity=0 time=0.0018454687499999999
note_on channel=0 note=44 velocity=89 time=0.03506390625
note_on channel=0 note=47 velocity=89 time=0.0406003125
note_on channel=0 note=68 velocity=74 time=0.0406003125
note_on channel=0 note=52 velocity=89 time=0
note_off channel=0 note=40 velocity=0 time=0
note_off channel=0 note=44 velocity=0 time=0
note_off channel=0 note=47 velocity=0 time=0
note_off channel=0 note=83 velocity=0 time=0.0018454687499999999
note_on channel=0 note=80 velocity=89 time=0.11626453125
note_off channel=0 note=68 velocity=0 time=0.0018454687499999999
note_off channel=0 note=52 velocity=0 time=0.10334625
note_on channel=0 note=64 velocity=79 time=0.01291828125
control_change channel=0 control=64 value=0 time=0
note_on channel=0 note=52 velocity=80 time=0
note_off channel=0 note=80 velocity=0 time=0.0018454687499999999
note_on channel=0 note=76 velocity=96 time=0.11626453125
note_off channel=0 note=64 velocity=0 time=0.0018454687499999999
note_off channel=0 note=52 velocity=0 time=0.10334625
MetaMessage('time_signature', numerator=1, denominator=4, clocks_per_click=24, notated_32nd_notes_per_beat=8, time=0.01291828125)
note_on channel=0 note=69 velocity=112 time=0
note_on channel=0 note=81 velocity=112 time=0
note_on channel=0 note=45 velocity=74 time=0
note_off channel=0 note=76 velocity=0 time=0.0018454687499999999
note_off channel=0 note=45 velocity=0 time=0.4429125
note_off channel=0 note=69 velocity=0 time=0.0036909374999999998
note_off channel=0 note=81 velocity=0 time=0
MetaMessage('time_signature', numerator=2, denominator=4, clocks_per_click=24, notated_32nd_notes_per_beat=8, time=0.023991093749999998)
MetaMessage('time_signature', numerator=1, denominator=4, clocks_per_click=24, notated_32nd_notes_per_beat=8, time=0)
note_on channel=0 note=69 velocity=69 time=0
note_on channel=0 note=81 velocity=84 time=0.11810999999999999
note_off channel=0 note=69 velocity=0 time=0.0018454687499999999
note_on channel=0 note=71 velocity=76 time=0.11626453125
note_off channel=0 note=81 velocity=0 time=0.0018454687499999999
note_on channel=0 note=45 velocity=83 time=0.110728125
note_on channel=0 note=83 velocity=99 time=0.00553640625
note_off channel=0 note=71 velocity=0 time=0.0018454687499999999
note_on channel=0 note=49 velocity=83 time=0.03506390625
note_on channel=0 note=52 velocity=83 time=0.0406003125
MetaMessage('time_signature', numerator=2, denominator=4, clocks_per_click=24, notated_32nd_notes_per_beat=8, time=0.0406003125)
note_on channel=0 note=73 velocity=79 time=0
control_change channel=0 control=64 value=127 time=0
note_on channel=0 note=57 velocity=83 time=0
note_off channel=0 note=45 velocity=0 time=0
note_off channel=0 note=49 velocity=0 time=0
note_off channel=0 note=52 velocity=0 time=0
note_off channel=0 note=83 velocity=0 time=0.0018454687499999999
note_on channel=0 note=85 velocity=99 time=0.11626453125
note_off channel=0 note=73 velocity=0 time=0.0018454687499999999
note_off channel=0 note=57 velocity=0 time=0.10334625
note_off channel=0 note=85 velocity=0 time=0.00553640625
note_on channel=0 note=57 velocity=82 time=0.0073818749999999995
control_change channel=0 control=64 value=0 time=0.08673703125
note_off channel=0 note=57 velocity=0 time=0.1365646875
note_on channel=0 note=69 velocity=85 time=0.01291828125
note_on channel=0 note=57 velocity=79 time=0
note_on channel=0 note=81 velocity=106 time=0.11810999999999999
note_off channel=0 note=69 velocity=0 time=0.0018454687499999999
note_off channel=0 note=57 velocity=0 time=0.10334625
note_on channel=0 note=71 velocity=77 time=0.01291828125
note_on channel=0 note=57 velocity=79 time=0
note_off channel=0 note=81 velocity=0 time=0.0018454687499999999
note_off channel=0 note=57 velocity=0 time=0.110728125
note_on channel=0 note=45 velocity=87 time=0
note_on channel=0 note=83 velocity=98 time=0.00553640625
note_off channel=0 note=71 velocity=0 time=0.0018454687499999999
note_on channel=0 note=49 velocity=87 time=0.03506390625
note_on channel=0 note=52 velocity=87 time=0.0406003125
control_change channel=0 control=64 value=127 time=0.03875484375
note_on channel=0 note=73 velocity=74 time=0.0018454687499999999
note_on channel=0 note=57 velocity=87 time=0
note_off channel=0 note=45 velocity=0 time=0
note_off channel=0 note=49 velocity=0 time=0
note_off channel=0 note=52 velocity=0 time=0
note_off channel=0 note=83 velocity=0 time=0.0018454687499999999
note_on channel=0 note=85 velocity=91 time=0.11626453125
note_off channel=0 note=73 velocity=0 time=0.0018454687499999999
note_off channel=0 note=57 velocity=0 time=0.10334625
note_on channel=0 note=71 velocity=66 time=0.01291828125
note_on channel=0 note=57 velocity=86 time=0
note_off channel=0 note=85 velocity=0 time=0.0018454687499999999
note_on channel=0 note=83 velocity=83 time=0.11626453125
control_change channel=0 control=64 value=0 time=0
note_off channel=0 note=71 velocity=0 time=0.0018454687499999999
note_off channel=0 note=57 velocity=0 time=0.10334625
note_on channel=0 note=69 velocity=73 time=0.01291828125
note_on channel=0 note=57 velocity=83 time=0
note_off channel=0 note=83 velocity=0 time=0.0018454687499999999
note_on channel=0 note=81 velocity=90 time=0.11626453125
note_off channel=0 note=69 velocity=0 time=0.0018454687499999999
note_off channel=0 note=57 velocity=0 time=0.10334625
note_on channel=0 note=68 velocity=74 time=0.01291828125
note_on channel=0 note=57 velocity=84 time=0
note_off channel=0 note=81 velocity=0 time=0.0018454687499999999
note_off channel=0 note=57 velocity=0 time=0.110728125
note_on channel=0 note=38 velocity=88 time=0
note_on channel=0 note=80 velocity=90 time=0.00553640625
note_off channel=0 note=68 velocity=0 time=0.0018454687499999999
note_on channel=0 note=42 velocity=88 time=0.03506390625
note_on channel=0 note=45 velocity=88 time=0.0406003125
control_change channel=0 control=64 value=127 time=0.03875484375
note_on channel=0 note=66 velocity=76 time=0.0018454687499999999
note_on channel=0 note=50 velocity=88 time=0
note_off channel=0 note=38 velocity=0 time=0
note_off channel=0 note=42 velocity=0 time=0
note_off channel=0 note=45 velocity=0 time=0
note_off channel=0 note=80 velocity=0 time=0.0018454687499999999
note_on channel=0 note=78 velocity=93 time=0.11626453125
note_off channel=0 note=66 velocity=0 time=0.0018454687499999999
note_off channel=0 note=50 velocity=0 time=0.10334625
note_on channel=0 note=68 velocity=78 time=0.01291828125
control_change channel=0 control=64 value=0 time=0
control_change channel=0 control=64 value=127 time=0
note_on channel=0 note=50 velocity=80 time=0
note_off channel=0 note=78 velocity=0 time=0.0018454687499999999
note_off channel=0 note=50 velocity=0 time=0.09042796874999999
note_on channel=0 note=39 velocity=88 time=0
note_on channel=0 note=80 velocity=97 time=0.0258365625
note_off channel=0 note=68 velocity=0 time=0.0018454687499999999
note_on channel=0 note=42 velocity=88 time=0.0110728125
note_on channel=0 note=45 velocity=88 time=0.029527499999999998
note_on channel=0 note=69 velocity=77 time=0.07566421875
note_on channel=0 note=51 velocity=88 time=0
note_off channel=0 note=39 velocity=0 time=0
note_off channel=0 note=42 velocity=0 time=0
note_off channel=0 note=45 velocity=0 time=0
note_off channel=0 note=80 velocity=0 time=0.0018454687499999999
note_on channel=0 note=81 velocity=97 time=0.11626453125
note_off channel=0 note=69 velocity=0 time=0.0018454687499999999
note_off channel=0 note=51 velocity=0 time=0.10334625
note_on channel=0 note=71 velocity=79 time=0.01291828125
note_on channel=0 note=51 velocity=84 time=0
note_off channel=0 note=81 velocity=0 time=0.0018454687499999999
note_off channel=0 note=51 velocity=0 time=0.110728125
note_on channel=0 note=40 velocity=85 time=0
note_on channel=0 note=83 velocity=103 time=0.00553640625
control_change channel=0 control=64 value=0 time=0
note_off channel=0 note=71 velocity=0 time=0.0018454687499999999
note_on channel=0 note=44 velocity=85 time=0.03506390625
note_on channel=0 note=47 velocity=85 time=0.0406003125
note_on channel=0 note=68 velocity=77 time=0.0406003125
control_change channel=0 control=64 value=127 time=0
note_on channel=0 note=52 velocity=85 time=0
note_off channel=0 note=40 velocity=0 time=0
note_off channel=0 note=44 velocity=0 time=0
note_off channel=0 note=47 velocity=0 time=0
note_off channel=0 note=83 velocity=0 time=0.0018454687499999999
note_on channel=0 note=80 velocity=96 time=0.11626453125
note_off channel=0 note=68 velocity=0 time=0.0018454687499999999
note_off channel=0 note=52 velocity=0 time=0.10334625
note_on channel=0 note=64 velocity=79 time=0.01291828125
note_on channel=0 note=52 velocity=83 time=0
note_off channel=0 note=80 velocity=0 time=0.0018454687499999999
note_on channel=0 note=76 velocity=93 time=0.11626453125
control_change channel=0 control=64 value=0 time=0
note_off channel=0 note=64 velocity=0 time=0.0018454687499999999
note_off channel=0 note=52 velocity=0 time=0.10334625
note_off channel=0 note=76 velocity=0 time=0.00553640625
note_on channel=0 note=69 velocity=84 time=0.0073818749999999995
note_on channel=0 note=52 velocity=83 time=0
note_on channel=0 note=81 velocity=104 time=0.11810999999999999
note_off channel=0 note=69 velocity=0 time=0.0018454687499999999
note_off channel=0 note=52 velocity=0 time=0.10334625
note_on channel=0 note=71 velocity=72 time=0.01291828125
note_on channel=0 note=52 velocity=76 time=0
note_off channel=0 note=81 velocity=0 time=0.0018454687499999999
note_off channel=0 note=52 velocity=0 time=0.110728125
note_on channel=0 note=45 velocity=88 time=0
note_on channel=0 note=83 velocity=89 time=0.00553640625
note_off channel=0 note=71 velocity=0 time=0.0018454687499999999
note_on channel=0 note=49 velocity=88 time=0.03506390625
note_on channel=0 note=52 velocity=88 time=0.0406003125
control_change channel=0 control=64 value=127 time=0.03875484375
note_on channel=0 note=73 velocity=77 time=0.0018454687499999999
note_on channel=0 note=57 velocity=88 time=0
note_off channel=0 note=45 velocity=0 time=0
note_off channel=0 note=49 velocity=0 time=0
note_off channel=0 note=52 velocity=0 time=0
note_off channel=0 note=83 velocity=0 time=0.0018454687499999999
note_on channel=0 note=85 velocity=96 time=0.11626453125
note_off channel=0 note=73 velocity=0 time=0.0018454687499999999
note_off channel=0 note=57 velocity=0 time=0.10334625
note_off channel=0 note=85 velocity=0 time=0.00553640625
note_on channel=0 note=57 velocity=81 time=0.0073818749999999995
note_off channel=0 note=57 velocity=0 time=0.22330171875
note_on channel=0 note=69 velocity=85 time=0.01291828125
control_change channel=0 control=64 value=0 time=0
note_on channel=0 note=57 velocity=81 time=0
note_on channel=0 note=81 velocity=109 time=0.11810999999999999
note_off channel=0 note=69 velocity=0 time=0.0018454687499999999
note_off channel=0 note=57 velocity=0 time=0.10334625
note_on channel=0 note=71 velocity=78 time=0.01291828125
note_on channel=0 note=57 velocity=80 time=0
note_off channel=0 note=81 velocity=0 time=0.0018454687499999999
note_off channel=0 note=57 velocity=0 time=0.110728125
note_on channel=0 note=45 velocity=85 time=0
note_on channel=0 note=83 velocity=98 time=0.00553640625
note_off channel=0 note=71 velocity=0 time=0.0018454687499999999
note_on channel=0 note=49 velocity=85 time=0.03506390625
note_on channel=0 note=52 velocity=85 time=0.0406003125
note_on channel=0 note=73 velocity=76 time=0.0406003125
control_change channel=0 control=64 value=127 time=0
note_on channel=0 note=57 velocity=85 time=0
note_off channel=0 note=45 velocity=0 time=0
note_off channel=0 note=49 velocity=0 time=0
note_off channel=0 note=52 velocity=0 time=0
note_off channel=0 note=83 velocity=0 time=0.0018454687499999999
note_on channel=0 note=85 velocity=95 time=0.11626453125
note_off channel=0 note=73 velocity=0 time=0.0018454687499999999
note_off channel=0 note=57 velocity=0 time=0.10334625
note_on channel=0 note=71 velocity=72 time=0.01291828125
note_on channel=0 note=57 velocity=80 time=0
note_off channel=0 note=85 velocity=0 time=0.0018454687499999999
note_on channel=0 note=83 velocity=88 time=0.11626453125
control_change channel=0 control=64 value=0 time=0
note_off channel=0 note=71 velocity=0 time=0.0018454687499999999
note_off channel=0 note=57 velocity=0 time=0.10334625
note_on channel=0 note=69 velocity=74 time=0.01291828125
note_on channel=0 note=57 velocity=78 time=0
note_off channel=0 note=83 velocity=0 time=0.0018454687499999999
note_on channel=0 note=81 velocity=93 time=0.11626453125
note_off channel=0 note=69 velocity=0 time=0.0018454687499999999
note_off channel=0 note=57 velocity=0 time=0.10334625
note_on channel=0 note=68 velocity=78 time=0.01291828125
note_on channel=0 note=57 velocity=78 time=0
note_off channel=0 note=81 velocity=0 time=0.0018454687499999999
note_off channel=0 note=57 velocity=0 time=0.110728125
note_on channel=0 note=38 velocity=86 time=0
note_on channel=0 note=80 velocity=94 time=0.00553640625
note_off channel=0 note=68 velocity=0 time=0.0018454687499999999
note_on channel=0 note=42 velocity=86 time=0.03506390625
note_on channel=0 note=45 velocity=86 time=0.0406003125
note_on channel=0 note=66 velocity=79 time=0.0406003125
control_change channel=0 control=64 value=127 time=0
note_on channel=0 note=50 velocity=86 time=0
note_off channel=0 note=38 velocity=0 time=0
note_off channel=0 note=42 velocity=0 time=0
note_off channel=0 note=45 velocity=0 time=0
note_off channel=0 note=80 velocity=0 time=0.0018454687499999999
note_on channel=0 note=78 velocity=98 time=0.11626453125
note_off channel=0 note=66 velocity=0 time=0.0018454687499999999
note_off channel=0 note=50 velocity=0 time=0.10334625
note_on channel=0 note=71 velocity=82 time=0.01291828125
control_change channel=0 control=64 value=0 time=0
note_on channel=0 note=50 velocity=82 time=0
note_off channel=0 note=78 velocity=0 time=0.0018454687499999999
note_off channel=0 note=50 velocity=0 time=0.110728125
note_on channel=0 note=40 velocity=84 time=0
note_on channel=0 note=83 velocity=103 time=0.00553640625
control_change channel=0 control=64 value=127 time=0
note_off channel=0 note=71 velocity=0 time=0.0018454687499999999
note_on channel=0 note=44 velocity=84 time=0.03506390625
note_on channel=0 note=47 velocity=84 time=0.0406003125
note_on channel=0 note=68 velocity=74 time=0.0406003125
note_on channel=0 note=52 velocity=84 time=0
note_off channel=0 note=40 velocity=0 time=0
note_off channel=0 note=44 velocity=0 time=0
note_off channel=0 note=47 velocity=0 time=0
note_off channel=0 note=83 velocity=0 time=0.0018454687499999999
note_on channel=0 note=80 velocity=88 time=0.11626453125
note_off channel=0 note=68 velocity=0 time=0.0018454687499999999
note_off channel=0 note=52 velocity=0 time=0.10334625
note_on channel=0 note=64 velocity=71 time=0.01291828125
control_change channel=0 control=64 value=0 time=0
note_on channel=0 note=52 velocity=82 time=0
note_off channel=0 note=80 velocity=0 time=0.0018454687499999999
note_off channel=0 note=52 velocity=0 time=0.0996553125
note_on channel=0 note=45 velocity=89 time=0
note_on channel=0 note=76 velocity=89 time=0.016609218749999998
note_off channel=0 note=64 velocity=0 time=0.0018454687499999999
note_on channel=0 note=49 velocity=89 time=0.0258365625
note_on channel=0 note=52 velocity=89 time=0.04613671875
MetaMessage('set_tempo', tempo=472440, time=0.04429125)
note_on channel=0 note=69 velocity=111 time=0
note_on channel=0 note=81 velocity=111 time=0
control_change channel=0 control=64 value=127 time=0
note_on channel=0 note=57 velocity=89 time=0
note_off channel=0 note=45 velocity=0 time=0
note_off channel=0 note=49 velocity=0 time=0
note_off channel=0 note=52 velocity=0 time=0
note_off channel=0 note=76 velocity=0 time=0.0018454687499999999
control_change channel=0 control=64 value=0 time=0.016609218749999998
note_off channel=0 note=57 velocity=0 time=0.20484703124999998
note_on channel=0 note=57 velocity=94 time=0.01291828125
note_off channel=0 note=69 velocity=0 time=0.21591984374999998
note_off channel=0 note=81 velocity=0 time=0
note_off channel=0 note=57 velocity=0 time=0.0073818749999999995
note_on channel=0 note=85 velocity=112 time=0.01291828125
note_on channel=0 note=69 velocity=127 time=0
note_on channel=0 note=57 velocity=95 time=0
note_off channel=0 note=57 velocity=0 time=0.22330171875
note_on channel=0 note=57 velocity=102 time=0.01291828125
note_off channel=0 note=85 velocity=0 time=0.09780984375
note_off channel=0 note=57 velocity=0 time=0.0036909374999999998
note_on channel=0 note=45 velocity=103 time=0
note_on channel=0 note=85 velocity=96 time=0.016609218749999998
note_on channel=0 note=49 velocity=103 time=0.02768203125
note_on channel=0 note=52 velocity=103 time=0.04613671875
note_off channel=0 note=69 velocity=0 time=0.016609218749999998
note_off channel=0 note=85 velocity=0 time=0.022145625
note_on channel=0 note=73 velocity=127 time=0.00553640625
control_change channel=0 control=64 value=127 time=0
note_on channel=0 note=57 velocity=103 time=0
note_off channel=0 note=45 velocity=0 time=0
note_off channel=0 note=49 velocity=0 time=0
note_off channel=0 note=52 velocity=0 time=0
note_on channel=0 note=76 velocity=127 time=0.07935515624999999
note_on channel=0 note=85 velocity=117 time=0.03137296875
note_on channel=0 note=81 velocity=127 time=0.047982187499999995
note_off channel=0 note=57 velocity=0 time=0.06459140625
note_on channel=0 note=57 velocity=95 time=0.01291828125
note_off channel=0 note=73 velocity=0 time=0.20853796875
note_off channel=0 note=76 velocity=0 time=0
note_off channel=0 note=81 velocity=0 time=0
note_off channel=0 note=57 velocity=0 time=0.014763749999999999
control_change channel=0 control=64 value=0 time=0.01291828125
note_on channel=0 note=57 velocity=94 time=0
note_off channel=0 note=57 velocity=0 time=0.22330171875
note_on channel=0 note=57 velocity=96 time=0.01291828125
note_off channel=0 note=57 velocity=0 time=0.10150078124999999
note_on channel=0 note=45 velocity=104 time=0
note_on channel=0 note=49 velocity=104 time=0.04429125
note_on channel=0 note=52 velocity=104 time=0.04613671875
note_on channel=0 note=73 velocity=118 time=0.04429125
control_change channel=0 control=64 value=127 time=0
note_on channel=0 note=57 velocity=104 time=0
note_off channel=0 note=45 velocity=0 time=0
note_off channel=0 note=49 velocity=0 time=0
note_off channel=0 note=52 velocity=0 time=0
note_off channel=0 note=85 velocity=0 time=0.0553640625
note_on channel=0 note=76 velocity=118 time=0.023991093749999998
note_on channel=0 note=85 velocity=116 time=0.03137296875
note_on channel=0 note=81 velocity=118 time=0.047982187499999995
note_off channel=0 note=57 velocity=0 time=0.06459140625
note_on channel=0 note=57 velocity=98 time=0.01291828125
note_off channel=0 note=73 velocity=0 time=0.20853796875
note_off channel=0 note=76 velocity=0 time=0
note_off channel=0 note=81 velocity=0 time=0
note_off channel=0 note=57 velocity=0 time=0.014763749999999999
control_change channel=0 control=64 value=0 time=0.01291828125
note_on channel=0 note=57 velocity=97 time=0
note_off channel=0 note=57 velocity=0 time=0.22330171875
note_on channel=0 note=57 velocity=97 time=0.01291828125
note_off channel=0 note=57 velocity=0 time=0.10150078124999999
note_on channel=0 note=45 velocity=100 time=0
note_on channel=0 note=49 velocity=100 time=0.04429125
note_on channel=0 note=52 velocity=100 time=0.04613671875
note_on channel=0 note=86 velocity=127 time=0.04429125
control_change channel=0 control=64 value=127 time=0
note_on channel=0 note=57 velocity=100 time=0
note_off channel=0 note=45 velocity=0 time=0
note_off channel=0 note=49 velocity=0 time=0
note_off channel=0 note=52 velocity=0 time=0
note_off channel=0 note=85 velocity=0 time=0.0553640625
note_on channel=0 note=85 velocity=121 time=0.0627459375
note_off channel=0 note=86 velocity=0 time=0.0110728125
note_off channel=0 note=57 velocity=0 time=0.09411890625
note_on channel=0 note=83 velocity=121 time=0.01291828125
note_on channel=0 note=57 velocity=98 time=0
note_off channel=0 note=85 velocity=0 time=0.0018454687499999999
note_off channel=0 note=83 velocity=0 time=0.07935515624999999
note_on channel=0 note=85 velocity=127 time=0.036909374999999994
note_off channel=0 note=85 velocity=0 time=0.081200625
note_off channel=0 note=57 velocity=0 time=0.023991093749999998
note_on channel=0 note=86 velocity=127 time=0.01291828125
control_change channel=0 control=64 value=0 time=0
note_on channel=0 note=57 velocity=92 time=0
note_on channel=0 note=85 velocity=124 time=0.11810999999999999
note_off channel=0 note=86 velocity=0 time=0.0110728125
note_off channel=0 note=57 velocity=0 time=0.09411890625
note_on channel=0 note=83 velocity=117 time=0.01291828125
note_on channel=0 note=57 velocity=99 time=0
note_off channel=0 note=85 velocity=0 time=0.0018454687499999999
note_off channel=0 note=83 velocity=0 time=0.07935515624999999
note_off channel=0 note=57 velocity=0 time=0.01291828125
note_on channel=0 note=38 velocity=107 time=0
note_on channel=0 note=85 velocity=127 time=0.023991093749999998
note_on channel=0 note=42 velocity=107 time=0.02768203125
note_on channel=0 note=45 velocity=107 time=0.04613671875
note_off channel=0 note=85 velocity=0 time=0.0073818749999999995
note_on channel=0 note=78 velocity=123 time=0.036909374999999994
note_on channel=0 note=81 velocity=123 time=0
note_on channel=0 note=86 velocity=123 time=0
control_change channel=0 control=64 value=127 time=0
note_on channel=0 note=50 velocity=107 time=0
note_off channel=0 note=38 velocity=0 time=0
note_off channel=0 note=42 velocity=0 time=0
note_off channel=0 note=45 velocity=0 time=0
note_off channel=0 note=50 velocity=0 time=0.22330171875
note_on channel=0 note=50 velocity=98 time=0.01291828125
note_off channel=0 note=50 velocity=0 time=0.22330171875
control_change channel=0 control=64 value=0 time=0.01291828125
note_on channel=0 note=50 velocity=96 time=0
note_off channel=0 note=50 velocity=0 time=0.22330171875
note_on channel=0 note=50 velocity=97 time=0.01291828125
note_off channel=0 note=50 velocity=0 time=0.10150078124999999
note_on channel=0 note=45 velocity=106 time=0
note_on channel=0 note=49 velocity=106 time=0.04429125
note_off channel=0 note=78 velocity=0 time=0.02768203125
note_off channel=0 note=81 velocity=0 time=0
note_off channel=0 note=86 velocity=0 time=0
note_on channel=0 note=86 velocity=108 time=0
note_on channel=0 note=52 velocity=106 time=0.018454687499999997
note_on channel=0 note=76 velocity=108 time=0.04429125
note_on channel=0 note=81 velocity=108 time=0
note_on channel=0 note=85 velocity=108 time=0
note_off channel=0 note=86 velocity=0 time=0
control_change channel=0 control=64 value=127 time=0
note_on channel=0 note=57 velocity=106 time=0
note_off channel=0 note=45 velocity=0 time=0
note_off channel=0 note=49 velocity=0 time=0
note_off channel=0 note=52 velocity=0 time=0
note_off channel=0 note=76 velocity=0 time=0.155019375
note_off channel=0 note=81 velocity=0 time=0
note_off channel=0 note=85 velocity=0 time=0
note_on channel=0 note=86 velocity=110 time=0.018454687499999997
note_off channel=0 note=57 velocity=0 time=0.04982765625
note_on channel=0 note=76 velocity=110 time=0.01291828125
note_on channel=0 note=81 velocity=110 time=0
note_on channel=0 note=85 velocity=110 time=0
note_off channel=0 note=86 velocity=0 time=0
control_change channel=0 control=64 value=0 time=0
note_on channel=0 note=57 velocity=95 time=0
note_off channel=0 note=76 velocity=0 time=0.155019375
note_off channel=0 note=81 velocity=0 time=0
note_off channel=0 note=85 velocity=0 time=0
note_on channel=0 note=86 velocity=105 time=0.018454687499999997
note_off channel=0 note=57 velocity=0 time=0.04982765625
note_on channel=0 note=76 velocity=105 time=0.01291828125
note_on channel=0 note=81 velocity=105 time=0
note_on channel=0 note=85 velocity=105 time=0
note_off channel=0 note=86 velocity=0 time=0
note_on channel=0 note=57 velocity=99 time=0
note_off channel=0 note=76 velocity=0 time=0.155019375
note_off channel=0 note=81 velocity=0 time=0
note_off channel=0 note=85 velocity=0 time=0
note_on channel=0 note=86 velocity=108 time=0.018454687499999997
note_off channel=0 note=57 velocity=0 time=0.04982765625
note_on channel=0 note=76 velocity=108 time=0.01291828125
note_on channel=0 note=81 velocity=108 time=0
note_on channel=0 note=85 velocity=108 time=0
note_off channel=0 note=86 velocity=0 time=0
note_on channel=0 note=57 velocity=96 time=0
note_off channel=0 note=57 velocity=0 time=0.09411890625
note_on channel=0 note=40 velocity=99 time=0
note_on channel=0 note=44 velocity=99 time=0.051673125
note_off channel=0 note=76 velocity=0 time=0.009227343749999999
note_off channel=0 note=81 velocity=0 time=0
note_off channel=0 note=85 velocity=0 time=0
note_on channel=0 note=47 velocity=99 time=0.036909374999999994
note_on channel=0 note=83 velocity=109 time=0.04429125
note_on channel=0 note=76 velocity=112 time=0
note_on channel=0 note=80 velocity=112 time=0
control_change channel=0 control=64 value=127 time=0
note_on channel=0 note=52 velocity=99 time=0
note_off channel=0 note=40 velocity=0 time=0
note_off channel=0 note=44 velocity=0 time=0
note_off channel=0 note=47 velocity=0 time=0
note_off channel=0 note=52 velocity=0 time=0.22330171875
note_on channel=0 note=52 velocity=99 time=0.01291828125
note_off channel=0 note=52 velocity=0 time=0.22330171875
note_on channel=0 note=52 velocity=91 time=0.01291828125
note_off channel=0 note=83 velocity=0 time=0.19377421874999998
note_off channel=0 note=52 velocity=0 time=0.029527499999999998
note_on channel=0 note=88 velocity=123 time=0.01291828125
control_change channel=0 control=64 value=0 time=0
note_on channel=0 note=52 velocity=97 time=0
note_off channel=0 note=52 velocity=0 time=0.10150078124999999
note_on channel=0 note=45 velocity=104 time=0
note_on channel=0 note=49 velocity=104 time=0.04429125
note_off channel=0 note=76 velocity=0 time=0.03506390625
note_off channel=0 note=80 velocity=0 time=0
note_on channel=0 note=52 velocity=104 time=0.0110728125
note_off channel=0 note=88 velocity=0 time=0.03137296875
note_on channel=0 note=73 velocity=121 time=0.01291828125
control_change channel=0 control=64 value=127 time=0
note_on channel=0 note=57 velocity=104 time=0
note_off channel=0 note=45 velocity=0 time=0
note_off channel=0 note=49 velocity=0 time=0
note_off channel=0 note=52 velocity=0 time=0
note_on channel=0 note=76 velocity=121 time=0.07935515624999999
note_on channel=0 note=85 velocity=123 time=0.03137296875
note_on channel=0 note=81 velocity=121 time=0.047982187499999995
note_off channel=0 note=57 velocity=0 time=0.06459140625
note_on channel=0 note=57 velocity=98 time=0.01291828125
note_off channel=0 note=73 velocity=0 time=0.20853796875
note_off channel=0 note=76 velocity=0 time=0
note_off channel=0 note=81 velocity=0 time=0
note_off channel=0 note=57 velocity=0 time=0.014763749999999999
control_change channel=0 control=64 value=0 time=0.01291828125
note_on channel=0 note=57 velocity=98 time=0
note_off channel=0 note=57 velocity=0 time=0.22330171875
note_on channel=0 note=57 velocity=94 time=0.01291828125
note_off channel=0 note=57 velocity=0 time=0.10150078124999999
note_on channel=0 note=45 velocity=103 time=0
note_on channel=0 note=49 velocity=103 time=0.04429125
note_on channel=0 note=52 velocity=103 time=0.04613671875
note_on channel=0 note=73 velocity=111 time=0.04429125
control_change channel=0 control=64 value=127 time=0
note_on channel=0 note=57 velocity=103 time=0
note_off channel=0 note=45 velocity=0 time=0
note_off channel=0 note=49 velocity=0 time=0
note_off channel=0 note=52 velocity=0 time=0
note_off channel=0 note=85 velocity=0 time=0.0553640625
note_on channel=0 note=76 velocity=111 time=0.023991093749999998
note_on channel=0 note=85 velocity=127 time=0.03137296875
note_on channel=0 note=81 velocity=111 time=0.047982187499999995
note_off channel=0 note=57 velocity=0 time=0.06459140625
note_on channel=0 note=57 velocity=97 time=0.01291828125
note_off channel=0 note=73 velocity=0 time=0.20853796875
note_off channel=0 note=76 velocity=0 time=0
note_off channel=0 note=81 velocity=0 time=0
note_off channel=0 note=57 velocity=0 time=0.014763749999999999
control_change channel=0 control=64 value=0 time=0.01291828125
note_on channel=0 note=57 velocity=97 time=0
note_off channel=0 note=57 velocity=0 time=0.22330171875
note_on channel=0 note=57 velocity=90 time=0.01291828125
note_off channel=0 note=57 velocity=0 time=0.10150078124999999
note_on channel=0 note=45 velocity=103 time=0
note_on channel=0 note=49 velocity=103 time=0.04429125
note_on channel=0 note=52 velocity=103 time=0.04613671875
note_on channel=0 note=86 velocity=127 time=0.04429125
control_change channel=0 control=64 value=127 time=0
note_on channel=0 note=57 velocity=103 time=0
note_off channel=0 note=45 velocity=0 time=0
note_off channel=0 note=49 velocity=0 time=0
note_off channel=0 note=52 velocity=0 time=0
note_off channel=0 note=85 velocity=0 time=0.0553640625
note_on channel=0 note=85 velocity=122 time=0.0627459375
note_off channel=0 note=86 velocity=0 time=0.0110728125
note_off channel=0 note=57 velocity=0 time=0.09411890625
note_off channel=0 note=85 velocity=0 time=0.01291828125
note_on channel=0 note=83 velocity=120 time=0
control_change channel=0 control=64 value=0 time=0
note_on channel=0 note=57 velocity=96 time=0
note_off channel=0 note=83 velocity=0 time=0.081200625
note_on channel=0 note=85 velocity=127 time=0.036909374999999994
note_off channel=0 note=85 velocity=0 time=0.081200625
note_off channel=0 note=57 velocity=0 time=0.023991093749999998
note_on channel=0 note=86 velocity=127 time=0.01291828125
note_on channel=0 note=57 velocity=94 time=0
note_on channel=0 note=85 velocity=122 time=0.11810999999999999
note_off channel=0 note=86 velocity=0 time=0.02030015625
note_off channel=0 note=57 velocity=0 time=0.08489156249999999
note_on channel=0 note=83 velocity=117 time=0.01291828125
note_on channel=0 note=57 velocity=95 time=0
note_off channel=0 note=85 velocity=0 time=0.0018454687499999999
note_off channel=0 note=83 velocity=0 time=0.07935515624999999
note_off channel=0 note=57 velocity=0 time=0.01291828125
note_on channel=0 note=38 velocity=102 time=0
note_on channel=0 note=85 velocity=127 time=0.023991093749999998
note_on channel=0 note=42 velocity=102 time=0.02768203125
note_on channel=0 note=45 velocity=102 time=0.04613671875
note_off channel=0 note=85 velocity=0 time=0.0073818749999999995
note_on channel=0 note=78 velocity=127 time=0.036909374999999994
note_on channel=0 note=81 velocity=127 time=0
note_on channel=0 note=86 velocity=127 time=0
control_change channel=0 control=64 value=127 time=0
note_on channel=0 note=50 velocity=102 time=0
note_off channel=0 note=38 velocity=0 time=0
note_off channel=0 note=42 velocity=0 time=0
note_off channel=0 note=45 velocity=0 time=0
note_off channel=0 note=50 velocity=0 time=0.22330171875
note_on channel=0 note=50 velocity=99 time=0.01291828125
note_off channel=0 note=50 velocity=0 time=0.22330171875
control_change channel=0 control=64 value=0 time=0.01291828125
note_on channel=0 note=50 velocity=98 time=0
note_off channel=0 note=50 velocity=0 time=0.22330171875
note_on channel=0 note=50 velocity=94 time=0.01291828125
note_off channel=0 note=50 velocity=0 time=0.10150078124999999
note_on channel=0 note=45 velocity=102 time=0
note_on channel=0 note=49 velocity=102 time=0.04429125
note_off channel=0 note=78 velocity=0 time=0.02768203125
note_off channel=0 note=81 velocity=0 time=0
note_off channel=0 note=86 velocity=0 time=0
note_on channel=0 note=86 velocity=108 time=0
note_on channel=0 note=52 velocity=102 time=0.018454687499999997
note_on channel=0 note=76 velocity=108 time=0.04429125
note_on channel=0 note=81 velocity=108 time=0
note_on channel=0 note=85 velocity=108 time=0
note_off channel=0 note=86 velocity=0 time=0
control_change channel=0 control=64 value=127 time=0
note_on channel=0 note=57 velocity=102 time=0
note_off channel=0 note=45 velocity=0 time=0
note_off channel=0 note=49 velocity=0 time=0
note_off channel=0 note=52 velocity=0 time=0
note_off channel=0 note=57 velocity=0 time=0.22330171875
note_on channel=0 note=57 velocity=96 time=0.01291828125
note_off channel=0 note=57 velocity=0 time=0.22330171875
control_change channel=0 control=64 value=0 time=0.01291828125
note_on channel=0 note=57 velocity=92 time=0
note_off channel=0 note=57 velocity=0 time=0.22330171875
note_on channel=0 note=57 velocity=101 time=0.01291828125
note_off channel=0 note=57 velocity=0 time=0.09411890625
note_on channel=0 note=40 velocity=102 time=0
note_on channel=0 note=44 velocity=102 time=0.051673125
note_off channel=0 note=76 velocity=0 time=0.02768203125
note_off channel=0 note=81 velocity=0 time=0
note_off channel=0 note=85 velocity=0 time=0
note_on channel=0 note=85 velocity=107 time=0
note_on channel=0 note=47 velocity=102 time=0.018454687499999997
note_on channel=0 note=76 velocity=107 time=0.04429125
note_on channel=0 note=80 velocity=107 time=0
note_on channel=0 note=83 velocity=107 time=0
note_off channel=0 note=85 velocity=0 time=0
control_change channel=0 control=64 value=127 time=0
note_on channel=0 note=52 velocity=102 time=0
note_off channel=0 note=40 velocity=0 time=0
note_off channel=0 note=44 velocity=0 time=0
note_off channel=0 note=47 velocity=0 time=0
note_off channel=0 note=76 velocity=0 time=0.1734740625
note_off channel=0 note=80 velocity=0 time=0
note_off channel=0 note=83 velocity=0 time=0
note_on channel=0 note=85 velocity=103 time=0
note_off channel=0 note=52 velocity=0 time=0.04982765625
note_on channel=0 note=76 velocity=103 time=0.01291828125
note_on channel=0 note=80 velocity=103 time=0
note_on channel=0 note=83 velocity=103 time=0
note_off channel=0 note=85 velocity=0 time=0
control_change channel=0 control=64 value=0 time=0
note_on channel=0 note=52 velocity=100 time=0
note_off channel=0 note=76 velocity=0 time=0.1734740625
note_off channel=0 note=80 velocity=0 time=0
note_off channel=0 note=83 velocity=0 time=0
note_on channel=0 note=85 velocity=109 time=0
note_off channel=0 note=52 velocity=0 time=0.04982765625
note_on channel=0 note=76 velocity=109 time=0.01291828125
note_on channel=0 note=80 velocity=109 time=0
note_on channel=0 note=83 velocity=109 time=0
note_off channel=0 note=85 velocity=0 time=0
note_on channel=0 note=52 velocity=94 time=0
note_off channel=0 note=76 velocity=0 time=0.1734740625
note_off channel=0 note=80 velocity=0 time=0
note_off channel=0 note=83 velocity=0 time=0
note_on channel=0 note=85 velocity=107 time=0
note_off channel=0 note=52 velocity=0 time=0.04982765625
note_on channel=0 note=76 velocity=107 time=0.01291828125
note_on channel=0 note=80 velocity=107 time=0
note_on channel=0 note=83 velocity=107 time=0
note_off channel=0 note=85 velocity=0 time=0
note_on channel=0 note=52 velocity=98 time=0
note_off channel=0 note=52 velocity=0 time=0.22330171875
note_on channel=0 note=81 velocity=94 time=0.01291828125
control_change channel=0 control=64 value=127 time=0
note_on channel=0 note=57 velocity=100 time=0
note_off channel=0 note=76 velocity=0 time=0.0036909374999999998
note_off channel=0 note=80 velocity=0 time=0
note_off channel=0 note=83 velocity=0 time=0
note_off channel=0 note=57 velocity=0 time=0.10888265624999999
note_on channel=0 note=64 velocity=118 time=0.00553640625
note_off channel=0 note=64 velocity=0 time=0.11257359374999999
control_change channel=0 control=64 value=0 time=0.00553640625
note_on channel=0 note=61 velocity=91 time=0
note_off channel=0 note=61 velocity=0 time=0.11257359374999999
note_on channel=0 note=64 velocity=66 time=0.00553640625
note_off channel=0 note=81 velocity=0 time=0.033218437499999996
note_on channel=0 note=76 velocity=90 time=0
note_on channel=0 note=81 velocity=90 time=0.0406003125
note_off channel=0 note=64 velocity=0 time=0.03875484375
note_on channel=0 note=85 velocity=90 time=0.00553640625
note_off channel=0 note=76 velocity=0 time=0
note_off channel=0 note=81 velocity=0 time=0
note_on channel=0 note=57 velocity=57 time=0
note_off channel=0 note=57 velocity=0 time=0.11257359374999999
note_on channel=0 note=64 velocity=76 time=0.00553640625
note_off channel=0 note=64 velocity=0 time=0.11257359374999999
note_on channel=0 note=61 velocity=60 time=0.00553640625
note_off channel=0 note=85 velocity=0 time=0.0996553125
note_off channel=0 note=61 velocity=0 time=0.01291828125
note_on channel=0 note=85 velocity=83 time=0.00553640625
note_on channel=0 note=64 velocity=72 time=0
note_off channel=0 note=85 velocity=0 time=0.04429125
note_on channel=0 note=76 velocity=109 time=0
note_on channel=0 note=81 velocity=109 time=0.033218437499999996
note_off channel=0 note=64 velocity=0 time=0.03506390625
note_on channel=0 note=85 velocity=109 time=0.00553640625
note_off channel=0 note=76 velocity=0 time=0
note_off channel=0 note=81 velocity=0 time=0
control_change channel=0 control=64 value=127 time=0
note_on channel=0 note=57 velocity=60 time=0
note_off channel=0 note=57 velocity=0 time=0.11257359374999999
note_on channel=0 note=64 velocity=72 time=0.00553640625
note_off channel=0 note=64 velocity=0 time=0.11257359374999999
note_on channel=0 note=61 velocity=63 time=0.00553640625
note_off channel=0 note=61 velocity=0 time=0.11257359374999999
note_on channel=0 note=64 velocity=68 time=0.00553640625
note_off channel=0 note=64 velocity=0 time=0.11257359374999999
note_on channel=0 note=57 velocity=60 time=0.00553640625
note_off channel=0 note=57 velocity=0 time=0.11257359374999999
note_on channel=0 note=64 velocity=76 time=0.00553640625
note_off channel=0 note=64 velocity=0 time=0.11257359374999999
control_change channel=0 control=64 value=0 time=0.00553640625
note_on channel=0 note=61 velocity=58 time=0
note_off channel=0 note=61 velocity=0 time=0.11257359374999999
note_on channel=0 note=64 velocity=71 time=0.00553640625
note_off channel=0 note=85 velocity=0 time=0.036909374999999994
note_on channel=0 note=76 velocity=92 time=0
note_on channel=0 note=81 velocity=92 time=0.0406003125
note_off channel=0 note=64 velocity=0 time=0.03506390625
note_on channel=0 note=85 velocity=92 time=0.00553640625
note_off channel=0 note=76 velocity=0 time=0
note_off channel=0 note=81 velocity=0 time=0
control_change channel=0 control=64 value=127 time=0
note_on channel=0 note=57 velocity=60 time=0
note_off channel=0 note=57 velocity=0 time=0.11257359374999999
note_on channel=0 note=64 velocity=70 time=0.00553640625
note_off channel=0 note=64 velocity=0 time=0.11257359374999999
note_on channel=0 note=61 velocity=58 time=0.00553640625
note_off channel=0 note=61 velocity=0 time=0.11257359374999999
note_on channel=0 note=64 velocity=70 time=0.00553640625
note_off channel=0 note=64 velocity=0 time=0.11257359374999999
note_on channel=0 note=57 velocity=57 time=0.00553640625
note_off channel=0 note=57 velocity=0 time=0.11257359374999999
note_on channel=0 note=64 velocity=77 time=0.00553640625
note_off channel=0 note=64 velocity=0 time=0.11257359374999999
control_change channel=0 control=64 value=0 time=0.00553640625
note_on channel=0 note=61 velocity=59 time=0
note_off channel=0 note=61 velocity=0 time=0.11257359374999999
note_on channel=0 note=64 velocity=71 time=0.00553640625
note_off channel=0 note=85 velocity=0 time=0.0701278125
note_off channel=0 note=64 velocity=0 time=0.042445781249999995
note_on channel=0 note=86 velocity=83 time=0.00553640625
control_change channel=0 control=64 value=127 time=0
note_on channel=0 note=57 velocity=61 time=0
note_off channel=0 note=57 velocity=0 time=0.11257359374999999
note_on channel=0 note=85 velocity=79 time=0.00553640625
note_on channel=0 note=64 velocity=79 time=0
note_off channel=0 note=86 velocity=0 time=0.0110728125
note_off channel=0 note=64 velocity=0 time=0.10150078124999999
note_on channel=0 note=83 velocity=75 time=0.00553640625
note_on channel=0 note=61 velocity=57 time=0
note_off channel=0 note=85 velocity=0 time=0.0018454687499999999
note_off channel=0 note=83 velocity=0 time=0.07935515624999999
note_off channel=0 note=61 velocity=0 time=0.03137296875
note_on channel=0 note=85 velocity=81 time=0.00553640625
note_on channel=0 note=64 velocity=69 time=0
note_off channel=0 note=85 velocity=0 time=0.081200625
note_off channel=0 note=64 velocity=0 time=0.03137296875
note_on channel=0 note=86 velocity=83 time=0.00553640625
control_change channel=0 control=64 value=0 time=0
note_on channel=0 note=57 velocity=61 time=0
note_off channel=0 note=57 velocity=0 time=0.11257359374999999
note_on channel=0 note=85 velocity=80 time=0.00553640625
note_on channel=0 note=64 velocity=75 time=0
note_off channel=0 note=86 velocity=0 time=0.0110728125
note_off channel=0 note=64 velocity=0 time=0.10150078124999999
note_on channel=0 note=83 velocity=73 time=0.00553640625
note_on channel=0 note=61 velocity=58 time=0
note_off channel=0 note=85 velocity=0 time=0.0018454687499999999
note_off channel=0 note=83 velocity=0 time=0.07935515624999999
note_off channel=0 note=61 velocity=0 time=0.03137296875
note_on channel=0 note=85 velocity=82 time=0.00553640625
note_on channel=0 note=64 velocity=67 time=0
note_off channel=0 note=85 velocity=0 time=0.081200625
note_off channel=0 note=64 velocity=0 time=0.03137296875
note_on channel=0 note=86 velocity=86 time=0.00553640625
control_change channel=0 control=64 value=127 time=0
note_on channel=0 note=57 velocity=54 time=0
note_off channel=0 note=57 velocity=0 time=0.11257359374999999
note_on channel=0 note=66 velocity=76 time=0.00553640625
note_off channel=0 note=66 velocity=0 time=0.11257359374999999
note_on channel=0 note=62 velocity=61 time=0.00553640625
note_off channel=0 note=62 velocity=0 time=0.11257359374999999
note_on channel=0 note=66 velocity=68 time=0.00553640625
note_off channel=0 note=66 velocity=0 time=0.11257359374999999
note_on channel=0 note=57 velocity=59 time=0.00553640625
note_off channel=0 note=57 velocity=0 time=0.11257359374999999
note_on channel=0 note=66 velocity=75 time=0.00553640625
note_off channel=0 note=66 velocity=0 time=0.11257359374999999
control_change channel=0 control=64 value=0 time=0.00553640625
note_on channel=0 note=62 velocity=58 time=0
note_off channel=0 note=62 velocity=0 time=0.11257359374999999
note_on channel=0 note=66 velocity=73 time=0.00553640625
note_off channel=0 note=86 velocity=0 time=0.0701278125
note_on channel=0 note=86 velocity=76 time=0.0073818749999999995
note_off channel=0 note=66 velocity=0 time=0.03506390625
note_on channel=0 note=85 velocity=76 time=0.00553640625
note_off channel=0 note=86 velocity=0 time=0
control_change channel=0 control=64 value=127 time=0
note_on channel=0 note=57 velocity=61 time=0
note_off channel=0 note=57 velocity=0 time=0.11257359374999999
note_on channel=0 note=64 velocity=70 time=0.00553640625
note_off channel=0 note=85 velocity=0 time=0.0775096875
note_on channel=0 note=86 velocity=79 time=0
note_off channel=0 note=64 velocity=0 time=0.03506390625
note_on channel=0 note=85 velocity=79 time=0.00553640625
note_off channel=0 note=86 velocity=0 time=0
control_change channel=0 control=64 value=0 time=0
note_on channel=0 note=61 velocity=57 time=0
note_off channel=0 note=61 velocity=0 time=0.11257359374999999
note_on channel=0 note=64 velocity=69 time=0.00553640625
note_off channel=0 note=85 velocity=0 time=0.0775096875
note_on channel=0 note=86 velocity=78 time=0
note_off channel=0 note=64 velocity=0 time=0.03506390625
note_on channel=0 note=85 velocity=78 time=0.00553640625
note_off channel=0 note=86 velocity=0 time=0
note_on channel=0 note=57 velocity=57 time=0
note_off channel=0 note=57 velocity=0 time=0.11257359374999999
note_on channel=0 note=64 velocity=73 time=0.00553640625
note_off channel=0 note=85 velocity=0 time=0.0775096875
note_on channel=0 note=86 velocity=77 time=0
note_off channel=0 note=64 velocity=0 time=0.03506390625
note_on channel=0 note=85 velocity=77 time=0.00553640625
note_off channel=0 note=86 velocity=0 time=0
note_on channel=0 note=61 velocity=59 time=0
note_off channel=0 note=61 velocity=0 time=0.11257359374999999
note_on channel=0 note=64 velocity=68 time=0.00553640625
note_off channel=0 note=85 velocity=0 time=0.10519171875
note_off channel=0 note=64 velocity=0 time=0.0073818749999999995
note_on channel=0 note=83 velocity=74 time=0.00553640625
control_change channel=0 control=64 value=127 time=0
note_on channel=0 note=52 velocity=56 time=0
note_off channel=0 note=52 velocity=0 time=0.11257359374999999
note_on channel=0 note=64 velocity=77 time=0.00553640625
note_off channel=0 note=64 velocity=0 time=0.11257359374999999
note_on channel=0 note=56 velocity=57 time=0.00553640625
note_off channel=0 note=56 velocity=0 time=0.11257359374999999
note_on channel=0 note=64 velocity=75 time=0.00553640625
note_off channel=0 note=64 velocity=0 time=0.11257359374999999
note_on channel=0 note=52 velocity=57 time=0.00553640625
note_off channel=0 note=52 velocity=0 time=0.11257359374999999
note_on channel=0 note=64 velocity=80 time=0.00553640625
note_off channel=0 note=83 velocity=0 time=0.07566421875
note_off channel=0 note=64 velocity=0 time=0.036909374999999994
note_on channel=0 note=88 velocity=83 time=0.00553640625
control_change channel=0 control=64 value=0 time=0
note_on channel=0 note=56 velocity=58 time=0
note_on channel=0 note=45 velocity=101 time=0.10150078124999999
note_off channel=0 note=56 velocity=0 time=0.0110728125
note_on channel=0 note=64 velocity=101 time=0.00553640625
note_off channel=0 note=64 velocity=0 time=0.02768203125
note_on channel=0 note=49 velocity=101 time=0
note_on channel=0 note=52 velocity=101 time=0.04613671875
note_off channel=0 note=88 velocity=0 time=0.03137296875
note_on channel=0 note=73 velocity=113 time=0.01291828125
control_change channel=0 control=64 value=127 time=0
note_on channel=0 note=57 velocity=101 time=0
note_off channel=0 note=45 velocity=0 time=0
note_off channel=0 note=49 velocity=0 time=0
note_off channel=0 note=52 velocity=0 time=0
note_on channel=0 note=76 velocity=113 time=0.07935515624999999
note_on channel=0 note=85 velocity=124 time=0.03137296875
note_on channel=0 note=81 velocity=113 time=0.047982187499999995
note_off channel=0 note=57 velocity=0 time=0.06459140625
note_on channel=0 note=57 velocity=98 time=0.01291828125
note_off channel=0 note=73 velocity=0 time=0.20853796875
note_off channel=0 note=76 velocity=0 time=0
note_off channel=0 note=81 velocity=0 time=0
note_off channel=0 note=57 velocity=0 time=0.014763749999999999
note_on channel=0 note=57 velocity=98 time=0.01291828125
note_off channel=0 note=57 velocity=0 time=0.22330171875
control_change channel=0 control=64 value=0 time=0.01291828125
note_on channel=0 note=57 velocity=98 time=0
note_off channel=0 note=57 velocity=0 time=0.10150078124999999
note_on channel=0 note=45 velocity=104 time=0
note_on channel=0 note=49 velocity=104 time=0.04429125
note_on channel=0 note=52 velocity=104 time=0.04613671875
note_on channel=0 note=73 velocity=113 time=0.04429125
control_change channel=0 control=64 value=127 time=0
note_on channel=0 note=57 velocity=104 time=0
note_off channel=0 note=45 velocity=0 time=0
note_off channel=0 note=49 velocity=0 time=0
note_off channel=0 note=52 velocity=0 time=0
note_off channel=0 note=85 velocity=0 time=0.0553640625
note_on channel=0 note=76 velocity=113 time=0.023991093749999998
note_on channel=0 note=85 velocity=127 time=0.03137296875
note_on channel=0 note=81 velocity=113 time=0.047982187499999995
note_off channel=0 note=57 velocity=0 time=0.06459140625
note_on channel=0 note=57 velocity=103 time=0.01291828125
note_off channel=0 note=73 velocity=0 time=0.20853796875
note_off channel=0 note=76 velocity=0 time=0
note_off channel=0 note=81 velocity=0 time=0
note_off channel=0 note=57 velocity=0 time=0.014763749999999999
control_change channel=0 control=64 value=0 time=0.01291828125
note_on channel=0 note=57 velocity=100 time=0
note_off channel=0 note=57 velocity=0 time=0.22330171875
note_on channel=0 note=57 velocity=98 time=0.01291828125
note_off channel=0 note=57 velocity=0 time=0.10150078124999999
note_on channel=0 note=45 velocity=102 time=0
note_on channel=0 note=49 velocity=102 time=0.04429125
note_on channel=0 note=52 velocity=102 time=0.04613671875
note_on channel=0 note=86 velocity=127 time=0.04429125
control_change channel=0 control=64 value=127 time=0
note_on channel=0 note=57 velocity=102 time=0
note_off channel=0 note=45 velocity=0 time=0
note_off channel=0 note=49 velocity=0 time=0
note_off channel=0 note=52 velocity=0 time=0
note_off channel=0 note=85 velocity=0 time=0.0553640625
note_on channel=0 note=85 velocity=124 time=0.0627459375
note_off channel=0 note=86 velocity=0 time=0.0110728125
note_off channel=0 note=57 velocity=0 time=0.09411890625
note_off channel=0 note=85 velocity=0 time=0.01291828125
note_on channel=0 note=83 velocity=114 time=0
note_on channel=0 note=57 velocity=95 time=0
note_off channel=0 note=83 velocity=0 time=0.081200625
note_on channel=0 note=85 velocity=127 time=0.036909374999999994
note_off channel=0 note=85 velocity=0 time=0.081200625
note_off channel=0 note=57 velocity=0 time=0.023991093749999998
note_on channel=0 note=86 velocity=127 time=0.01291828125
control_change channel=0 control=64 value=0 time=0
note_on channel=0 note=57 velocity=93 time=0
note_on channel=0 note=85 velocity=120 time=0.11810999999999999
note_off channel=0 note=86 velocity=0 time=0.0110728125
note_off channel=0 note=57 velocity=0 time=0.09411890625
note_on channel=0 note=83 velocity=123 time=0.01291828125
note_on channel=0 note=57 velocity=94 time=0
note_off channel=0 note=85 velocity=0 time=0.0018454687499999999
note_off channel=0 note=83 velocity=0 time=0.07935515624999999
note_off channel=0 note=57 velocity=0 time=0.03137296875
note_on channel=0 note=38 velocity=103 time=0
note_on channel=0 note=85 velocity=127 time=0.00553640625
note_on channel=0 note=42 velocity=103 time=0.036909374999999994
note_on channel=0 note=45 velocity=103 time=0.0406003125
note_off channel=0 note=85 velocity=0 time=0.0036909374999999998
note_on channel=0 note=78 velocity=127 time=0.036909374999999994
note_on channel=0 note=81 velocity=127 time=0
note_on channel=0 note=86 velocity=127 time=0
control_change channel=0 control=64 value=127 time=0
note_on channel=0 note=50 velocity=103 time=0
note_off channel=0 note=38 velocity=0 time=0
note_off channel=0 note=42 velocity=0 time=0
note_off channel=0 note=45 velocity=0 time=0
note_off channel=0 note=50 velocity=0 time=0.22330171875
note_on channel=0 note=50 velocity=99 time=0.01291828125
note_off channel=0 note=50 velocity=0 time=0.22330171875
note_on channel=0 note=50 velocity=92 time=0.01291828125
note_off channel=0 note=50 velocity=0 time=0.22330171875
control_change channel=0 control=64 value=0 time=0.01291828125
note_on channel=0 note=50 velocity=96 time=0
note_off channel=0 note=50 velocity=0 time=0.11257359374999999
note_on channel=0 note=45 velocity=108 time=0
note_on channel=0 note=49 velocity=108 time=0.042445781249999995
note_off channel=0 note=78 velocity=0 time=0.0110728125
note_off channel=0 note=81 velocity=0 time=0
note_off channel=0 note=86 velocity=0 time=0
note_on channel=0 note=86 velocity=108 time=0
note_on channel=0 note=52 velocity=108 time=0.029527499999999998
note_on channel=0 note=76 velocity=108 time=0.0406003125
note_on channel=0 note=81 velocity=108 time=0
note_on channel=0 note=85 velocity=108 time=0
note_off channel=0 note=86 velocity=0 time=0
control_change channel=0 control=64 value=127 time=0
note_on channel=0 note=57 velocity=108 time=0
note_off channel=0 note=45 velocity=0 time=0
note_off channel=0 note=49 velocity=0 time=0
note_off channel=0 note=52 velocity=0 time=0
note_off channel=0 note=57 velocity=0 time=0.22330171875
note_on channel=0 note=57 velocity=99 time=0.01291828125
note_off channel=0 note=57 velocity=0 time=0.22330171875
note_on channel=0 note=57 velocity=97 time=0.01291828125
note_off channel=0 note=57 velocity=0 time=0.22330171875
control_change channel=0 control=64 value=0 time=0.01291828125
note_on channel=0 note=57 velocity=93 time=0
note_off channel=0 note=57 velocity=0 time=0.11257359374999999
note_on channel=0 note=40 velocity=102 time=0
note_on channel=0 note=44 velocity=102 time=0.042445781249999995
note_off channel=0 note=76 velocity=0 time=0.033218437499999996
note_off channel=0 note=81 velocity=0 time=0
note_off channel=0 note=85 velocity=0 time=0
note_on channel=0 note=85 velocity=101 time=0.0073818749999999995
note_on channel=0 note=47 velocity=102 time=0
note_on channel=0 note=76 velocity=101 time=0.0406003125
note_on channel=0 note=80 velocity=101 time=0
note_on channel=0 note=83 velocity=101 time=0
note_off channel=0 note=85 velocity=0 time=0
control_change channel=0 control=64 value=127 time=0
note_on channel=0 note=52 velocity=102 time=0
note_off channel=0 note=40 velocity=0 time=0
note_off channel=0 note=44 velocity=0 time=0
note_off channel=0 note=47 velocity=0 time=0
note_off channel=0 note=76 velocity=0 time=0.1956196875
note_off channel=0 note=80 velocity=0 time=0
note_off channel=0 note=83 velocity=0 time=0
note_on channel=0 note=85 velocity=106 time=0
note_off channel=0 note=52 velocity=0 time=0.02768203125
note_on channel=0 note=76 velocity=106 time=0.01291828125
note_on channel=0 note=80 velocity=106 time=0
note_on channel=0 note=83 velocity=106 time=0
note_off channel=0 note=85 velocity=0 time=0
control_change channel=0 control=64 value=0 time=0
note_on channel=0 note=52 velocity=99 time=0
note_off channel=0 note=76 velocity=0 time=0.1956196875
note_off channel=0 note=80 velocity=0 time=0
note_off channel=0 note=83 velocity=0 time=0
note_on channel=0 note=85 velocity=108 time=0
note_off channel=0 note=52 velocity=0 time=0.02768203125
note_on channel=0 note=76 velocity=108 time=0.01291828125
note_on channel=0 note=80 velocity=108 time=0
note_on channel=0 note=83 velocity=108 time=0
note_off channel=0 note=85 velocity=0 time=0
note_on channel=0 note=52 velocity=101 time=0
note_off channel=0 note=76 velocity=0 time=0.1956196875
note_off channel=0 note=80 velocity=0 time=0
note_off channel=0 note=83 velocity=0 time=0
note_on channel=0 note=85 velocity=103 time=0
note_off channel=0 note=52 velocity=0 time=0.02768203125
note_on channel=0 note=76 velocity=103 time=0.01291828125
note_on channel=0 note=80 velocity=103 time=0
note_on channel=0 note=83 velocity=103 time=0
note_off channel=0 note=85 velocity=0 time=0
note_on channel=0 note=52 velocity=95 time=0
note_off channel=0 note=52 velocity=0 time=0.11257359374999999
note_on channel=0 note=45 velocity=101 time=0
note_on channel=0 note=49 velocity=101 time=0.042445781249999995
note_on channel=0 note=52 velocity=101 time=0.0406003125
note_off channel=0 note=76 velocity=0 time=0.0406003125
note_on channel=0 note=69 velocity=95 time=0
note_on channel=0 note=73 velocity=95 time=0
note_on channel=0 note=76 velocity=95 time=0
note_on channel=0 note=81 velocity=95 time=0
control_change channel=0 control=64 value=127 time=0
note_on channel=0 note=57 velocity=101 time=0
note_off channel=0 note=45 velocity=0 time=0
note_off channel=0 note=49 velocity=0 time=0
note_off channel=0 note=52 velocity=0 time=0
note_off channel=0 note=80 velocity=0 time=0.0036909374999999998
note_off channel=0 note=83 velocity=0 time=0
note_off channel=0 note=57 velocity=0 time=0.21961078125
note_on channel=0 note=57 velocity=100 time=0.01291828125
note_off channel=0 note=57 velocity=0 time=0.22330171875
note_on channel=0 note=57 velocity=92 time=0.01291828125
note_off channel=0 note=69 velocity=0 time=0.199310625
note_off channel=0 note=73 velocity=0 time=0
note_off channel=0 note=76 velocity=0 time=0
note_off channel=0 note=81 velocity=0 time=0
note_off channel=0 note=57 velocity=0 time=0.023991093749999998
note_on channel=0 note=73 velocity=121 time=0.01291828125
note_on channel=0 note=85 velocity=121 time=0
control_change channel=0 control=64 value=0 time=0
note_on channel=0 note=57 velocity=98 time=0
note_off channel=0 note=57 velocity=0 time=0.11257359374999999
note_on channel=0 note=45 velocity=103 time=0
note_on channel=0 note=49 velocity=103 time=0.042445781249999995
note_on channel=0 note=52 velocity=103 time=0.0406003125
note_off channel=0 note=73 velocity=0 time=0.02768203125
note_off channel=0 note=85 velocity=0 time=0
note_on channel=0 note=69 velocity=101 time=0.01291828125
note_on channel=0 note=81 velocity=101 time=0
control_change channel=0 control=64 value=127 time=0
note_on channel=0 note=57 velocity=103 time=0
note_off channel=0 note=45 velocity=0 time=0
note_off channel=0 note=49 velocity=0 time=0
note_off channel=0 note=52 velocity=0 time=0
note_off channel=0 note=57 velocity=0 time=0.22330171875
note_on channel=0 note=57 velocity=93 time=0.01291828125
note_off channel=0 note=57 velocity=0 time=0.22330171875
note_on channel=0 note=57 velocity=102 time=0.01291828125
note_off channel=0 note=69 velocity=0 time=0.19377421874999998
note_off channel=0 note=81 velocity=0 time=0
note_off channel=0 note=57 velocity=0 time=0.029527499999999998
note_on channel=0 note=76 velocity=125 time=0.01291828125
note_on channel=0 note=88 velocity=125 time=0
control_change channel=0 control=64 value=0 time=0
note_on channel=0 note=57 velocity=94 time=0
note_off channel=0 note=57 velocity=0 time=0.10888265624999999
note_on channel=0 note=45 velocity=104 time=0
note_on channel=0 note=49 velocity=104 time=0.042445781249999995
note_on channel=0 note=52 velocity=104 time=0.042445781249999995
note_off channel=0 note=76 velocity=0 time=0.029527499999999998
note_off channel=0 note=88 velocity=0 time=0
MetaMessage('set_tempo', tempo=454544, time=0.01291828125)
note_on channel=0 note=69 velocity=93 time=0
note_on channel=0 note=81 velocity=93 time=0
control_change channel=0 control=64 value=127 time=0
note_on channel=0 note=57 velocity=104 time=0
note_off channel=0 note=45 velocity=0 time=0
note_off channel=0 note=49 velocity=0 time=0
note_off channel=0 note=52 velocity=0 time=0
note_off channel=0 note=57 velocity=0 time=0.21484306250000001
note_on channel=0 note=57 velocity=97 time=0.0124289375
note_off channel=0 note=57 velocity=0 time=0.21484306250000001
note_on channel=0 note=57 velocity=100 time=0.0124289375
note_off channel=0 note=69 velocity=0 time=0.1864340625
note_off channel=0 note=81 velocity=0 time=0
note_off channel=0 note=57 velocity=0 time=0.028409
note_on channel=0 note=73 velocity=127 time=0.0124289375
note_on channel=0 note=85 velocity=127 time=0
control_change channel=0 control=64 value=0 time=0
note_on channel=0 note=57 velocity=97 time=0
note_off channel=0 note=57 velocity=0 time=0.1012070625
note_on channel=0 note=45 velocity=102 time=0
note_on channel=0 note=49 velocity=102 time=0.0426135
note_on channel=0 note=52 velocity=102 time=0.0426135
MetaMessage('set_tempo', tempo=444443, time=0.0408379375)
note_on channel=0 note=69 velocity=114 time=0
note_on channel=0 note=81 velocity=114 time=0
control_change channel=0 control=64 value=127 time=0
note_on channel=0 note=57 velocity=102 time=0
note_off channel=0 note=45 velocity=0 time=0
note_off channel=0 note=49 velocity=0 time=0
note_off channel=0 note=52 velocity=0 time=0
note_off channel=0 note=73 velocity=0 time=0.0034722109375
note_off channel=0 note=85 velocity=0 time=0
note_off channel=0 note=69 velocity=0 time=0.1423606484375
note_off channel=0 note=81 velocity=0 time=0
note_off channel=0 note=57 velocity=0 time=0.06423590234375
note_on channel=0 note=73 velocity=127 time=0.012152738281249999
note_on channel=0 note=85 velocity=127 time=0
control_change channel=0 control=64 value=0 time=0
note_on channel=0 note=57 velocity=98 time=0
control_change channel=0 control=64 value=127 time=0.06944421875
note_off channel=0 note=57 velocity=0 time=0.029513792968749997
note_on channel=0 note=45 velocity=109 time=0
note_on channel=0 note=49 velocity=109 time=0.04166653125
note_off channel=0 note=73 velocity=0 time=0.01562494921875
note_off channel=0 note=85 velocity=0 time=0
note_on channel=0 note=52 velocity=109 time=0.02604158203125
note_on channel=0 note=69 velocity=116 time=0.03993042578125
note_on channel=0 note=81 velocity=116 time=0
note_on channel=0 note=57 velocity=109 time=0
note_off channel=0 note=45 velocity=0 time=0
note_off channel=0 note=49 velocity=0 time=0
note_off channel=0 note=52 velocity=0 time=0
note_off channel=0 note=69 velocity=0 time=0.14583285937499998
note_off channel=0 note=81 velocity=0 time=0
note_off channel=0 note=57 velocity=0 time=0.06423590234375
note_on channel=0 note=76 velocity=127 time=0.012152738281249999
note_on channel=0 note=88 velocity=127 time=0
control_change channel=0 control=64 value=0 time=0
note_on channel=0 note=57 velocity=108 time=0
note_off channel=0 note=76 velocity=0 time=0.1562494921875
note_off channel=0 note=88 velocity=0 time=0
note_off channel=0 note=57 velocity=0 time=0.05381926953125
MetaMessage('set_tempo', tempo=500000, time=0.0104166328125)
control_change channel=0 control=64 value=127 time=0
note_on channel=0 note=69 velocity=106 time=0.001953125
note_on channel=0 note=81 velocity=106 time=0
note_on channel=0 note=45 velocity=94 time=0
note_off channel=0 note=69 velocity=0 time=0.330078125
note_off channel=0 note=81 velocity=0 time=0
note_off channel=0 note=45 velocity=0 time=0.140625
MetaMessage('set_tempo', tempo=545454, time=0.029296875)
note_on channel=0 note=69 velocity=127 time=0
note_on channel=0 note=73 velocity=127 time=0
note_on channel=0 note=76 velocity=127 time=0
note_on channel=0 note=81 velocity=127 time=0
control_change channel=0 control=64 value=0 time=0
control_change channel=0 control=64 value=127 time=0
note_on channel=0 note=45 velocity=127 time=0
note_on channel=0 note=49 velocity=127 time=0
note_on channel=0 note=52 velocity=127 time=0
note_on channel=0 note=57 velocity=127 time=0
note_off channel=0 note=69 velocity=0 time=0.5134938046874999
note_off channel=0 note=73 velocity=0 time=0
note_off channel=0 note=76 velocity=0 time=0
note_off channel=0 note=81 velocity=0 time=0
note_off channel=0 note=45 velocity=0 time=0
note_off channel=0 note=49 velocity=0 time=0
note_off channel=0 note=52 velocity=0 time=0
note_off channel=0 note=57 velocity=0 time=0
control_change channel=0 control=64 value=0 time=0.029829515625
MetaMessage('set_tempo', tempo=666665, time=0.0021306796875)
note_on channel=0 note=69 velocity=127 time=0
note_on channel=0 note=73 velocity=127 time=0
note_on channel=0 note=76 velocity=127 time=0
note_on channel=0 note=81 velocity=127 time=0
control_change channel=0 control=64 value=127 time=0
note_on channel=0 note=45 velocity=127 time=0
note_on channel=0 note=49 velocity=127 time=0
note_on channel=0 note=52 velocity=127 time=0
note_on channel=0 note=57 velocity=127 time=0
note_off channel=0 note=69 velocity=0 time=0.6276025976562499
note_off channel=0 note=73 velocity=0 time=0
note_off channel=0 note=76 velocity=0 time=0
note_off channel=0 note=81 velocity=0 time=0
note_off channel=0 note=45 velocity=0 time=0
note_off channel=0 note=49 velocity=0 time=0
note_off channel=0 note=52 velocity=0 time=0
note_off channel=0 note=57 velocity=0 time=0
control_change channel=0 control=64 value=0 time=0.03906240234375
MetaMessage('end_of_track', time=0.00260416015625)
